%TF.GenerationSoftware,KiCad,Pcbnew,7.0.8*%
%TF.CreationDate,2024-03-30T18:50:20+07:00*%
%TF.ProjectId,2wd_control,3277645f-636f-46e7-9472-6f6c2e6b6963,rev?*%
%TF.SameCoordinates,Original*%
%TF.FileFunction,Soldermask,Top*%
%TF.FilePolarity,Negative*%
%FSLAX46Y46*%
G04 Gerber Fmt 4.6, Leading zero omitted, Abs format (unit mm)*
G04 Created by KiCad (PCBNEW 7.0.8) date 2024-03-30 18:50:20*
%MOMM*%
%LPD*%
G01*
G04 APERTURE LIST*
G04 Aperture macros list*
%AMRoundRect*
0 Rectangle with rounded corners*
0 $1 Rounding radius*
0 $2 $3 $4 $5 $6 $7 $8 $9 X,Y pos of 4 corners*
0 Add a 4 corners polygon primitive as box body*
4,1,4,$2,$3,$4,$5,$6,$7,$8,$9,$2,$3,0*
0 Add four circle primitives for the rounded corners*
1,1,$1+$1,$2,$3*
1,1,$1+$1,$4,$5*
1,1,$1+$1,$6,$7*
1,1,$1+$1,$8,$9*
0 Add four rect primitives between the rounded corners*
20,1,$1+$1,$2,$3,$4,$5,0*
20,1,$1+$1,$4,$5,$6,$7,0*
20,1,$1+$1,$6,$7,$8,$9,0*
20,1,$1+$1,$8,$9,$2,$3,0*%
G04 Aperture macros list end*
%ADD10C,6.000000*%
%ADD11RoundRect,0.250000X0.650000X-1.000000X0.650000X1.000000X-0.650000X1.000000X-0.650000X-1.000000X0*%
%ADD12RoundRect,0.250000X0.850000X0.350000X-0.850000X0.350000X-0.850000X-0.350000X0.850000X-0.350000X0*%
%ADD13RoundRect,0.249997X2.950003X2.650003X-2.950003X2.650003X-2.950003X-2.650003X2.950003X-2.650003X0*%
%ADD14RoundRect,0.102000X0.780000X-0.780000X0.780000X0.780000X-0.780000X0.780000X-0.780000X-0.780000X0*%
%ADD15C,1.764000*%
%ADD16RoundRect,0.301219X-0.301218X1.011780X-0.301218X-1.011780X0.301218X-1.011780X0.301218X1.011780X0*%
%ADD17RoundRect,0.297250X-0.297250X1.015750X-0.297250X-1.015750X0.297250X-1.015750X0.297250X1.015750X0*%
%ADD18RoundRect,0.250000X-1.950000X-1.000000X1.950000X-1.000000X1.950000X1.000000X-1.950000X1.000000X0*%
%ADD19R,1.800000X1.800000*%
%ADD20O,1.800000X1.800000*%
%ADD21RoundRect,0.250000X-0.600000X-0.725000X0.600000X-0.725000X0.600000X0.725000X-0.600000X0.725000X0*%
%ADD22O,1.700000X1.950000*%
%ADD23RoundRect,0.250000X-0.262500X-0.450000X0.262500X-0.450000X0.262500X0.450000X-0.262500X0.450000X0*%
%ADD24RoundRect,0.250000X-0.750000X0.600000X-0.750000X-0.600000X0.750000X-0.600000X0.750000X0.600000X0*%
%ADD25O,2.000000X1.700000*%
%ADD26RoundRect,0.243750X-0.243750X-0.456250X0.243750X-0.456250X0.243750X0.456250X-0.243750X0.456250X0*%
G04 APERTURE END LIST*
D10*
%TO.C,12V1*%
X223000000Y-99250000D03*
%TD*%
D11*
%TO.C,D5*%
X184490000Y-117250000D03*
X184490000Y-113250000D03*
%TD*%
%TO.C,D7*%
X172440000Y-97250000D03*
X172440000Y-93250000D03*
%TD*%
%TO.C,D4*%
X178240000Y-117250000D03*
X178240000Y-113250000D03*
%TD*%
D12*
%TO.C,U3*%
X177700000Y-107280000D03*
D13*
X171400000Y-105000000D03*
D12*
X177700000Y-102720000D03*
%TD*%
D11*
%TO.C,D2*%
X166740000Y-117250000D03*
X166740000Y-113250000D03*
%TD*%
D14*
%TO.C,U1*%
X122350000Y-75150000D03*
D15*
X124890000Y-75150000D03*
X127430000Y-75150000D03*
X129970000Y-75150000D03*
X132510000Y-75150000D03*
X135050000Y-75150000D03*
X137590000Y-75150000D03*
X140130000Y-75150000D03*
X142670000Y-75150000D03*
X145210000Y-75150000D03*
X147750000Y-75150000D03*
X150290000Y-75150000D03*
X152830000Y-75150000D03*
X155370000Y-75150000D03*
X157910000Y-75150000D03*
X160450000Y-75150000D03*
X162990000Y-75150000D03*
X165530000Y-75150000D03*
X168070000Y-75150000D03*
X122350000Y-49750000D03*
X124890000Y-49750000D03*
X127430000Y-49750000D03*
X129970000Y-49750000D03*
X132510000Y-49750000D03*
X135050000Y-49750000D03*
X137590000Y-49750000D03*
X140130000Y-49750000D03*
X142670000Y-49750000D03*
X145210000Y-49750000D03*
X147750000Y-49750000D03*
X150290000Y-49750000D03*
X152830000Y-49750000D03*
X155370000Y-49750000D03*
X157910000Y-49750000D03*
X160450000Y-49750000D03*
X162990000Y-49750000D03*
X165530000Y-49750000D03*
X168070000Y-49750000D03*
%TD*%
D16*
%TO.C,U4*%
X223750000Y-107750000D03*
D17*
X223750000Y-112322000D03*
%TD*%
D18*
%TO.C,C1*%
X192550000Y-112500000D03*
X200950000Y-112500000D03*
%TD*%
D19*
%TO.C,U2*%
X161325000Y-112395000D03*
D20*
X156245000Y-111125000D03*
X161325000Y-109855000D03*
X156245000Y-108585000D03*
X161325000Y-107315000D03*
X156245000Y-106045000D03*
X161325000Y-104775000D03*
X156245000Y-103505000D03*
X161325000Y-102235000D03*
X156245000Y-100965000D03*
X161325000Y-99695000D03*
X156245000Y-98425000D03*
X161325000Y-97155000D03*
X156245000Y-95885000D03*
X161325000Y-94615000D03*
%TD*%
D11*
%TO.C,D3*%
X172490000Y-117250000D03*
X172490000Y-113250000D03*
%TD*%
D21*
%TO.C,Encoder0*%
X123250000Y-82000000D03*
D22*
X125750000Y-82000000D03*
X128250000Y-82000000D03*
X130750000Y-82000000D03*
%TD*%
D11*
%TO.C,D9*%
X184490000Y-97250000D03*
X184490000Y-93250000D03*
%TD*%
D10*
%TO.C,GND1*%
X213750000Y-99250000D03*
%TD*%
D23*
%TO.C,R1*%
X183837500Y-107250000D03*
X185662500Y-107250000D03*
%TD*%
D21*
%TO.C,Encoder1*%
X137750000Y-82000000D03*
D22*
X140250000Y-82000000D03*
X142750000Y-82000000D03*
X145250000Y-82000000D03*
%TD*%
D18*
%TO.C,C2*%
X192600000Y-98250000D03*
X201000000Y-98250000D03*
%TD*%
D24*
%TO.C,MotorA1*%
X188500000Y-71500000D03*
D25*
X188500000Y-74000000D03*
%TD*%
D24*
%TO.C,MotorB1*%
X188500000Y-82000000D03*
D25*
X188500000Y-84500000D03*
%TD*%
D26*
%TO.C,D1*%
X183812500Y-102750000D03*
X185687500Y-102750000D03*
%TD*%
D11*
%TO.C,D6*%
X166690000Y-97250000D03*
X166690000Y-93250000D03*
%TD*%
%TO.C,D8*%
X178190000Y-97250000D03*
X178190000Y-93250000D03*
%TD*%
M02*
