%TF.GenerationSoftware,KiCad,Pcbnew,7.0.8*%
%TF.CreationDate,2024-03-30T18:50:20+07:00*%
%TF.ProjectId,2wd_control,3277645f-636f-46e7-9472-6f6c2e6b6963,rev?*%
%TF.SameCoordinates,Original*%
%TF.FileFunction,Profile,NP*%
%FSLAX46Y46*%
G04 Gerber Fmt 4.6, Leading zero omitted, Abs format (unit mm)*
G04 Created by KiCad (PCBNEW 7.0.8) date 2024-03-30 18:50:20*
%MOMM*%
%LPD*%
G01*
G04 APERTURE LIST*
%TA.AperFunction,Profile*%
%ADD10C,0.100000*%
%TD*%
G04 APERTURE END LIST*
D10*
X136750000Y-120500000D02*
X136750000Y-130500000D01*
X171250000Y-60500000D02*
X181250000Y-60500000D01*
X181250000Y-70500000D01*
X171250000Y-70500000D01*
X171250000Y-60500000D01*
X218000000Y-61000000D02*
G75*
G03*
X218000000Y-61000000I-2250000J0D01*
G01*
X131750000Y-35500000D02*
X141750000Y-35500000D01*
X141750000Y-45500000D01*
X131750000Y-45500000D01*
X131750000Y-35500000D01*
X215750000Y-120500000D02*
X136750000Y-120500000D01*
X136750000Y-30500000D02*
X136750000Y-20500000D01*
X136750000Y-20500000D02*
G75*
G03*
X136750000Y-130500000I39500000J-55000000D01*
G01*
X210750000Y-105500000D02*
X220750000Y-105500000D01*
X220750000Y-115500000D01*
X210750000Y-115500000D01*
X210750000Y-105500000D01*
X215750000Y-120500000D02*
X215750000Y-130500000D01*
X136750000Y-30500000D02*
X215750000Y-30500000D01*
X131750000Y-105500000D02*
X141750000Y-105500000D01*
X141750000Y-115500000D01*
X131750000Y-115500000D01*
X131750000Y-105500000D01*
X139000000Y-61000000D02*
G75*
G03*
X139000000Y-61000000I-2250000J0D01*
G01*
X214750000Y-75500000D02*
G75*
G03*
X214750000Y-75500000I-9000000J0D01*
G01*
X210750000Y-35500000D02*
X220750000Y-35500000D01*
X220750000Y-45500000D01*
X210750000Y-45500000D01*
X210750000Y-35500000D01*
X218000000Y-90000000D02*
G75*
G03*
X218000000Y-90000000I-2250000J0D01*
G01*
X215750000Y-30500000D02*
X215750000Y-20500000D01*
X139000000Y-90000000D02*
G75*
G03*
X139000000Y-90000000I-2250000J0D01*
G01*
X171250000Y-80500000D02*
X181250000Y-80500000D01*
X181250000Y-90500000D01*
X171250000Y-90500000D01*
X171250000Y-80500000D01*
X215750000Y-130500000D02*
G75*
G03*
X215750000Y-20500000I-39500000J55000000D01*
G01*
M02*
