%TF.GenerationSoftware,KiCad,Pcbnew,7.0.8*%
%TF.CreationDate,2024-03-30T18:50:20+07:00*%
%TF.ProjectId,2wd_control,3277645f-636f-46e7-9472-6f6c2e6b6963,rev?*%
%TF.SameCoordinates,Original*%
%TF.FileFunction,Legend,Top*%
%TF.FilePolarity,Positive*%
%FSLAX46Y46*%
G04 Gerber Fmt 4.6, Leading zero omitted, Abs format (unit mm)*
G04 Created by KiCad (PCBNEW 7.0.8) date 2024-03-30 18:50:20*
%MOMM*%
%LPD*%
G01*
G04 APERTURE LIST*
%ADD10C,0.150000*%
%ADD11C,0.120000*%
%ADD12C,0.127000*%
%ADD13C,0.200000*%
G04 APERTURE END LIST*
D10*
X187954819Y-78833332D02*
X187954819Y-78214285D01*
X187954819Y-78214285D02*
X188335771Y-78547618D01*
X188335771Y-78547618D02*
X188335771Y-78404761D01*
X188335771Y-78404761D02*
X188383390Y-78309523D01*
X188383390Y-78309523D02*
X188431009Y-78261904D01*
X188431009Y-78261904D02*
X188526247Y-78214285D01*
X188526247Y-78214285D02*
X188764342Y-78214285D01*
X188764342Y-78214285D02*
X188859580Y-78261904D01*
X188859580Y-78261904D02*
X188907200Y-78309523D01*
X188907200Y-78309523D02*
X188954819Y-78404761D01*
X188954819Y-78404761D02*
X188954819Y-78690475D01*
X188954819Y-78690475D02*
X188907200Y-78785713D01*
X188907200Y-78785713D02*
X188859580Y-78833332D01*
X188050057Y-77535713D02*
X188002438Y-77488094D01*
X188002438Y-77488094D02*
X187954819Y-77392856D01*
X187954819Y-77392856D02*
X187954819Y-77154761D01*
X187954819Y-77154761D02*
X188002438Y-77059523D01*
X188002438Y-77059523D02*
X188050057Y-77011904D01*
X188050057Y-77011904D02*
X188145295Y-76964285D01*
X188145295Y-76964285D02*
X188240533Y-76964285D01*
X188240533Y-76964285D02*
X188383390Y-77011904D01*
X188383390Y-77011904D02*
X188954819Y-77583332D01*
X188954819Y-77583332D02*
X188954819Y-76964285D01*
X188704819Y-67714285D02*
X188704819Y-68285713D01*
X188704819Y-67999999D02*
X187704819Y-67999999D01*
X187704819Y-67999999D02*
X187847676Y-68095237D01*
X187847676Y-68095237D02*
X187942914Y-68190475D01*
X187942914Y-68190475D02*
X187990533Y-68285713D01*
X188288152Y-87809523D02*
X188954819Y-87809523D01*
X187907200Y-88047618D02*
X188621485Y-88285713D01*
X188621485Y-88285713D02*
X188621485Y-87666666D01*
X221904761Y-94954819D02*
X221333333Y-94954819D01*
X221619047Y-94954819D02*
X221619047Y-93954819D01*
X221619047Y-93954819D02*
X221523809Y-94097676D01*
X221523809Y-94097676D02*
X221428571Y-94192914D01*
X221428571Y-94192914D02*
X221333333Y-94240533D01*
X222285714Y-94050057D02*
X222333333Y-94002438D01*
X222333333Y-94002438D02*
X222428571Y-93954819D01*
X222428571Y-93954819D02*
X222666666Y-93954819D01*
X222666666Y-93954819D02*
X222761904Y-94002438D01*
X222761904Y-94002438D02*
X222809523Y-94050057D01*
X222809523Y-94050057D02*
X222857142Y-94145295D01*
X222857142Y-94145295D02*
X222857142Y-94240533D01*
X222857142Y-94240533D02*
X222809523Y-94383390D01*
X222809523Y-94383390D02*
X222238095Y-94954819D01*
X222238095Y-94954819D02*
X222857142Y-94954819D01*
X223142857Y-93954819D02*
X223476190Y-94954819D01*
X223476190Y-94954819D02*
X223809523Y-93954819D01*
X224666666Y-94954819D02*
X224095238Y-94954819D01*
X224380952Y-94954819D02*
X224380952Y-93954819D01*
X224380952Y-93954819D02*
X224285714Y-94097676D01*
X224285714Y-94097676D02*
X224190476Y-94192914D01*
X224190476Y-94192914D02*
X224095238Y-94240533D01*
X182444819Y-115988094D02*
X181444819Y-115988094D01*
X181444819Y-115988094D02*
X181444819Y-115749999D01*
X181444819Y-115749999D02*
X181492438Y-115607142D01*
X181492438Y-115607142D02*
X181587676Y-115511904D01*
X181587676Y-115511904D02*
X181682914Y-115464285D01*
X181682914Y-115464285D02*
X181873390Y-115416666D01*
X181873390Y-115416666D02*
X182016247Y-115416666D01*
X182016247Y-115416666D02*
X182206723Y-115464285D01*
X182206723Y-115464285D02*
X182301961Y-115511904D01*
X182301961Y-115511904D02*
X182397200Y-115607142D01*
X182397200Y-115607142D02*
X182444819Y-115749999D01*
X182444819Y-115749999D02*
X182444819Y-115988094D01*
X181444819Y-114511904D02*
X181444819Y-114988094D01*
X181444819Y-114988094D02*
X181921009Y-115035713D01*
X181921009Y-115035713D02*
X181873390Y-114988094D01*
X181873390Y-114988094D02*
X181825771Y-114892856D01*
X181825771Y-114892856D02*
X181825771Y-114654761D01*
X181825771Y-114654761D02*
X181873390Y-114559523D01*
X181873390Y-114559523D02*
X181921009Y-114511904D01*
X181921009Y-114511904D02*
X182016247Y-114464285D01*
X182016247Y-114464285D02*
X182254342Y-114464285D01*
X182254342Y-114464285D02*
X182349580Y-114511904D01*
X182349580Y-114511904D02*
X182397200Y-114559523D01*
X182397200Y-114559523D02*
X182444819Y-114654761D01*
X182444819Y-114654761D02*
X182444819Y-114892856D01*
X182444819Y-114892856D02*
X182397200Y-114988094D01*
X182397200Y-114988094D02*
X182349580Y-115035713D01*
X170394819Y-95988094D02*
X169394819Y-95988094D01*
X169394819Y-95988094D02*
X169394819Y-95749999D01*
X169394819Y-95749999D02*
X169442438Y-95607142D01*
X169442438Y-95607142D02*
X169537676Y-95511904D01*
X169537676Y-95511904D02*
X169632914Y-95464285D01*
X169632914Y-95464285D02*
X169823390Y-95416666D01*
X169823390Y-95416666D02*
X169966247Y-95416666D01*
X169966247Y-95416666D02*
X170156723Y-95464285D01*
X170156723Y-95464285D02*
X170251961Y-95511904D01*
X170251961Y-95511904D02*
X170347200Y-95607142D01*
X170347200Y-95607142D02*
X170394819Y-95749999D01*
X170394819Y-95749999D02*
X170394819Y-95988094D01*
X169394819Y-95083332D02*
X169394819Y-94416666D01*
X169394819Y-94416666D02*
X170394819Y-94845237D01*
X176194819Y-115988094D02*
X175194819Y-115988094D01*
X175194819Y-115988094D02*
X175194819Y-115749999D01*
X175194819Y-115749999D02*
X175242438Y-115607142D01*
X175242438Y-115607142D02*
X175337676Y-115511904D01*
X175337676Y-115511904D02*
X175432914Y-115464285D01*
X175432914Y-115464285D02*
X175623390Y-115416666D01*
X175623390Y-115416666D02*
X175766247Y-115416666D01*
X175766247Y-115416666D02*
X175956723Y-115464285D01*
X175956723Y-115464285D02*
X176051961Y-115511904D01*
X176051961Y-115511904D02*
X176147200Y-115607142D01*
X176147200Y-115607142D02*
X176194819Y-115749999D01*
X176194819Y-115749999D02*
X176194819Y-115988094D01*
X175528152Y-114559523D02*
X176194819Y-114559523D01*
X175147200Y-114797618D02*
X175861485Y-115035713D01*
X175861485Y-115035713D02*
X175861485Y-114416666D01*
X171898095Y-108954819D02*
X171898095Y-109764342D01*
X171898095Y-109764342D02*
X171945714Y-109859580D01*
X171945714Y-109859580D02*
X171993333Y-109907200D01*
X171993333Y-109907200D02*
X172088571Y-109954819D01*
X172088571Y-109954819D02*
X172279047Y-109954819D01*
X172279047Y-109954819D02*
X172374285Y-109907200D01*
X172374285Y-109907200D02*
X172421904Y-109859580D01*
X172421904Y-109859580D02*
X172469523Y-109764342D01*
X172469523Y-109764342D02*
X172469523Y-108954819D01*
X172850476Y-108954819D02*
X173469523Y-108954819D01*
X173469523Y-108954819D02*
X173136190Y-109335771D01*
X173136190Y-109335771D02*
X173279047Y-109335771D01*
X173279047Y-109335771D02*
X173374285Y-109383390D01*
X173374285Y-109383390D02*
X173421904Y-109431009D01*
X173421904Y-109431009D02*
X173469523Y-109526247D01*
X173469523Y-109526247D02*
X173469523Y-109764342D01*
X173469523Y-109764342D02*
X173421904Y-109859580D01*
X173421904Y-109859580D02*
X173374285Y-109907200D01*
X173374285Y-109907200D02*
X173279047Y-109954819D01*
X173279047Y-109954819D02*
X172993333Y-109954819D01*
X172993333Y-109954819D02*
X172898095Y-109907200D01*
X172898095Y-109907200D02*
X172850476Y-109859580D01*
X164694819Y-115988094D02*
X163694819Y-115988094D01*
X163694819Y-115988094D02*
X163694819Y-115749999D01*
X163694819Y-115749999D02*
X163742438Y-115607142D01*
X163742438Y-115607142D02*
X163837676Y-115511904D01*
X163837676Y-115511904D02*
X163932914Y-115464285D01*
X163932914Y-115464285D02*
X164123390Y-115416666D01*
X164123390Y-115416666D02*
X164266247Y-115416666D01*
X164266247Y-115416666D02*
X164456723Y-115464285D01*
X164456723Y-115464285D02*
X164551961Y-115511904D01*
X164551961Y-115511904D02*
X164647200Y-115607142D01*
X164647200Y-115607142D02*
X164694819Y-115749999D01*
X164694819Y-115749999D02*
X164694819Y-115988094D01*
X163790057Y-115035713D02*
X163742438Y-114988094D01*
X163742438Y-114988094D02*
X163694819Y-114892856D01*
X163694819Y-114892856D02*
X163694819Y-114654761D01*
X163694819Y-114654761D02*
X163742438Y-114559523D01*
X163742438Y-114559523D02*
X163790057Y-114511904D01*
X163790057Y-114511904D02*
X163885295Y-114464285D01*
X163885295Y-114464285D02*
X163980533Y-114464285D01*
X163980533Y-114464285D02*
X164123390Y-114511904D01*
X164123390Y-114511904D02*
X164694819Y-115083332D01*
X164694819Y-115083332D02*
X164694819Y-114464285D01*
X113118567Y-74041373D02*
X113928403Y-74041373D01*
X113928403Y-74041373D02*
X114023678Y-73993736D01*
X114023678Y-73993736D02*
X114071316Y-73946099D01*
X114071316Y-73946099D02*
X114118953Y-73850824D01*
X114118953Y-73850824D02*
X114118953Y-73660274D01*
X114118953Y-73660274D02*
X114071316Y-73564999D01*
X114071316Y-73564999D02*
X114023678Y-73517362D01*
X114023678Y-73517362D02*
X113928403Y-73469724D01*
X113928403Y-73469724D02*
X113118567Y-73469724D01*
X114118953Y-72469339D02*
X114118953Y-73040988D01*
X114118953Y-72755163D02*
X113118567Y-72755163D01*
X113118567Y-72755163D02*
X113261479Y-72850438D01*
X113261479Y-72850438D02*
X113356754Y-72945713D01*
X113356754Y-72945713D02*
X113404392Y-73040988D01*
X226252819Y-110797904D02*
X227062342Y-110797904D01*
X227062342Y-110797904D02*
X227157580Y-110750285D01*
X227157580Y-110750285D02*
X227205200Y-110702666D01*
X227205200Y-110702666D02*
X227252819Y-110607428D01*
X227252819Y-110607428D02*
X227252819Y-110416952D01*
X227252819Y-110416952D02*
X227205200Y-110321714D01*
X227205200Y-110321714D02*
X227157580Y-110274095D01*
X227157580Y-110274095D02*
X227062342Y-110226476D01*
X227062342Y-110226476D02*
X226252819Y-110226476D01*
X226586152Y-109321714D02*
X227252819Y-109321714D01*
X226205200Y-109559809D02*
X226919485Y-109797904D01*
X226919485Y-109797904D02*
X226919485Y-109178857D01*
X196583333Y-106559580D02*
X196535714Y-106607200D01*
X196535714Y-106607200D02*
X196392857Y-106654819D01*
X196392857Y-106654819D02*
X196297619Y-106654819D01*
X196297619Y-106654819D02*
X196154762Y-106607200D01*
X196154762Y-106607200D02*
X196059524Y-106511961D01*
X196059524Y-106511961D02*
X196011905Y-106416723D01*
X196011905Y-106416723D02*
X195964286Y-106226247D01*
X195964286Y-106226247D02*
X195964286Y-106083390D01*
X195964286Y-106083390D02*
X196011905Y-105892914D01*
X196011905Y-105892914D02*
X196059524Y-105797676D01*
X196059524Y-105797676D02*
X196154762Y-105702438D01*
X196154762Y-105702438D02*
X196297619Y-105654819D01*
X196297619Y-105654819D02*
X196392857Y-105654819D01*
X196392857Y-105654819D02*
X196535714Y-105702438D01*
X196535714Y-105702438D02*
X196583333Y-105750057D01*
X197535714Y-106654819D02*
X196964286Y-106654819D01*
X197250000Y-106654819D02*
X197250000Y-105654819D01*
X197250000Y-105654819D02*
X197154762Y-105797676D01*
X197154762Y-105797676D02*
X197059524Y-105892914D01*
X197059524Y-105892914D02*
X196964286Y-105940533D01*
X150079819Y-104266904D02*
X150889342Y-104266904D01*
X150889342Y-104266904D02*
X150984580Y-104219285D01*
X150984580Y-104219285D02*
X151032200Y-104171666D01*
X151032200Y-104171666D02*
X151079819Y-104076428D01*
X151079819Y-104076428D02*
X151079819Y-103885952D01*
X151079819Y-103885952D02*
X151032200Y-103790714D01*
X151032200Y-103790714D02*
X150984580Y-103743095D01*
X150984580Y-103743095D02*
X150889342Y-103695476D01*
X150889342Y-103695476D02*
X150079819Y-103695476D01*
X150175057Y-103266904D02*
X150127438Y-103219285D01*
X150127438Y-103219285D02*
X150079819Y-103124047D01*
X150079819Y-103124047D02*
X150079819Y-102885952D01*
X150079819Y-102885952D02*
X150127438Y-102790714D01*
X150127438Y-102790714D02*
X150175057Y-102743095D01*
X150175057Y-102743095D02*
X150270295Y-102695476D01*
X150270295Y-102695476D02*
X150365533Y-102695476D01*
X150365533Y-102695476D02*
X150508390Y-102743095D01*
X150508390Y-102743095D02*
X151079819Y-103314523D01*
X151079819Y-103314523D02*
X151079819Y-102695476D01*
X170444819Y-115988094D02*
X169444819Y-115988094D01*
X169444819Y-115988094D02*
X169444819Y-115749999D01*
X169444819Y-115749999D02*
X169492438Y-115607142D01*
X169492438Y-115607142D02*
X169587676Y-115511904D01*
X169587676Y-115511904D02*
X169682914Y-115464285D01*
X169682914Y-115464285D02*
X169873390Y-115416666D01*
X169873390Y-115416666D02*
X170016247Y-115416666D01*
X170016247Y-115416666D02*
X170206723Y-115464285D01*
X170206723Y-115464285D02*
X170301961Y-115511904D01*
X170301961Y-115511904D02*
X170397200Y-115607142D01*
X170397200Y-115607142D02*
X170444819Y-115749999D01*
X170444819Y-115749999D02*
X170444819Y-115988094D01*
X169444819Y-115083332D02*
X169444819Y-114464285D01*
X169444819Y-114464285D02*
X169825771Y-114797618D01*
X169825771Y-114797618D02*
X169825771Y-114654761D01*
X169825771Y-114654761D02*
X169873390Y-114559523D01*
X169873390Y-114559523D02*
X169921009Y-114511904D01*
X169921009Y-114511904D02*
X170016247Y-114464285D01*
X170016247Y-114464285D02*
X170254342Y-114464285D01*
X170254342Y-114464285D02*
X170349580Y-114511904D01*
X170349580Y-114511904D02*
X170397200Y-114559523D01*
X170397200Y-114559523D02*
X170444819Y-114654761D01*
X170444819Y-114654761D02*
X170444819Y-114940475D01*
X170444819Y-114940475D02*
X170397200Y-115035713D01*
X170397200Y-115035713D02*
X170349580Y-115083332D01*
X123535714Y-86681009D02*
X123869047Y-86681009D01*
X124011904Y-87204819D02*
X123535714Y-87204819D01*
X123535714Y-87204819D02*
X123535714Y-86204819D01*
X123535714Y-86204819D02*
X124011904Y-86204819D01*
X124440476Y-86538152D02*
X124440476Y-87204819D01*
X124440476Y-86633390D02*
X124488095Y-86585771D01*
X124488095Y-86585771D02*
X124583333Y-86538152D01*
X124583333Y-86538152D02*
X124726190Y-86538152D01*
X124726190Y-86538152D02*
X124821428Y-86585771D01*
X124821428Y-86585771D02*
X124869047Y-86681009D01*
X124869047Y-86681009D02*
X124869047Y-87204819D01*
X125773809Y-87157200D02*
X125678571Y-87204819D01*
X125678571Y-87204819D02*
X125488095Y-87204819D01*
X125488095Y-87204819D02*
X125392857Y-87157200D01*
X125392857Y-87157200D02*
X125345238Y-87109580D01*
X125345238Y-87109580D02*
X125297619Y-87014342D01*
X125297619Y-87014342D02*
X125297619Y-86728628D01*
X125297619Y-86728628D02*
X125345238Y-86633390D01*
X125345238Y-86633390D02*
X125392857Y-86585771D01*
X125392857Y-86585771D02*
X125488095Y-86538152D01*
X125488095Y-86538152D02*
X125678571Y-86538152D01*
X125678571Y-86538152D02*
X125773809Y-86585771D01*
X126345238Y-87204819D02*
X126250000Y-87157200D01*
X126250000Y-87157200D02*
X126202381Y-87109580D01*
X126202381Y-87109580D02*
X126154762Y-87014342D01*
X126154762Y-87014342D02*
X126154762Y-86728628D01*
X126154762Y-86728628D02*
X126202381Y-86633390D01*
X126202381Y-86633390D02*
X126250000Y-86585771D01*
X126250000Y-86585771D02*
X126345238Y-86538152D01*
X126345238Y-86538152D02*
X126488095Y-86538152D01*
X126488095Y-86538152D02*
X126583333Y-86585771D01*
X126583333Y-86585771D02*
X126630952Y-86633390D01*
X126630952Y-86633390D02*
X126678571Y-86728628D01*
X126678571Y-86728628D02*
X126678571Y-87014342D01*
X126678571Y-87014342D02*
X126630952Y-87109580D01*
X126630952Y-87109580D02*
X126583333Y-87157200D01*
X126583333Y-87157200D02*
X126488095Y-87204819D01*
X126488095Y-87204819D02*
X126345238Y-87204819D01*
X127535714Y-87204819D02*
X127535714Y-86204819D01*
X127535714Y-87157200D02*
X127440476Y-87204819D01*
X127440476Y-87204819D02*
X127250000Y-87204819D01*
X127250000Y-87204819D02*
X127154762Y-87157200D01*
X127154762Y-87157200D02*
X127107143Y-87109580D01*
X127107143Y-87109580D02*
X127059524Y-87014342D01*
X127059524Y-87014342D02*
X127059524Y-86728628D01*
X127059524Y-86728628D02*
X127107143Y-86633390D01*
X127107143Y-86633390D02*
X127154762Y-86585771D01*
X127154762Y-86585771D02*
X127250000Y-86538152D01*
X127250000Y-86538152D02*
X127440476Y-86538152D01*
X127440476Y-86538152D02*
X127535714Y-86585771D01*
X128392857Y-87157200D02*
X128297619Y-87204819D01*
X128297619Y-87204819D02*
X128107143Y-87204819D01*
X128107143Y-87204819D02*
X128011905Y-87157200D01*
X128011905Y-87157200D02*
X127964286Y-87061961D01*
X127964286Y-87061961D02*
X127964286Y-86681009D01*
X127964286Y-86681009D02*
X128011905Y-86585771D01*
X128011905Y-86585771D02*
X128107143Y-86538152D01*
X128107143Y-86538152D02*
X128297619Y-86538152D01*
X128297619Y-86538152D02*
X128392857Y-86585771D01*
X128392857Y-86585771D02*
X128440476Y-86681009D01*
X128440476Y-86681009D02*
X128440476Y-86776247D01*
X128440476Y-86776247D02*
X127964286Y-86871485D01*
X128869048Y-87204819D02*
X128869048Y-86538152D01*
X128869048Y-86728628D02*
X128916667Y-86633390D01*
X128916667Y-86633390D02*
X128964286Y-86585771D01*
X128964286Y-86585771D02*
X129059524Y-86538152D01*
X129059524Y-86538152D02*
X129154762Y-86538152D01*
X129678572Y-86204819D02*
X129773810Y-86204819D01*
X129773810Y-86204819D02*
X129869048Y-86252438D01*
X129869048Y-86252438D02*
X129916667Y-86300057D01*
X129916667Y-86300057D02*
X129964286Y-86395295D01*
X129964286Y-86395295D02*
X130011905Y-86585771D01*
X130011905Y-86585771D02*
X130011905Y-86823866D01*
X130011905Y-86823866D02*
X129964286Y-87014342D01*
X129964286Y-87014342D02*
X129916667Y-87109580D01*
X129916667Y-87109580D02*
X129869048Y-87157200D01*
X129869048Y-87157200D02*
X129773810Y-87204819D01*
X129773810Y-87204819D02*
X129678572Y-87204819D01*
X129678572Y-87204819D02*
X129583334Y-87157200D01*
X129583334Y-87157200D02*
X129535715Y-87109580D01*
X129535715Y-87109580D02*
X129488096Y-87014342D01*
X129488096Y-87014342D02*
X129440477Y-86823866D01*
X129440477Y-86823866D02*
X129440477Y-86585771D01*
X129440477Y-86585771D02*
X129488096Y-86395295D01*
X129488096Y-86395295D02*
X129535715Y-86300057D01*
X129535715Y-86300057D02*
X129583334Y-86252438D01*
X129583334Y-86252438D02*
X129678572Y-86204819D01*
X182444819Y-95988094D02*
X181444819Y-95988094D01*
X181444819Y-95988094D02*
X181444819Y-95749999D01*
X181444819Y-95749999D02*
X181492438Y-95607142D01*
X181492438Y-95607142D02*
X181587676Y-95511904D01*
X181587676Y-95511904D02*
X181682914Y-95464285D01*
X181682914Y-95464285D02*
X181873390Y-95416666D01*
X181873390Y-95416666D02*
X182016247Y-95416666D01*
X182016247Y-95416666D02*
X182206723Y-95464285D01*
X182206723Y-95464285D02*
X182301961Y-95511904D01*
X182301961Y-95511904D02*
X182397200Y-95607142D01*
X182397200Y-95607142D02*
X182444819Y-95749999D01*
X182444819Y-95749999D02*
X182444819Y-95988094D01*
X182444819Y-94940475D02*
X182444819Y-94749999D01*
X182444819Y-94749999D02*
X182397200Y-94654761D01*
X182397200Y-94654761D02*
X182349580Y-94607142D01*
X182349580Y-94607142D02*
X182206723Y-94511904D01*
X182206723Y-94511904D02*
X182016247Y-94464285D01*
X182016247Y-94464285D02*
X181635295Y-94464285D01*
X181635295Y-94464285D02*
X181540057Y-94511904D01*
X181540057Y-94511904D02*
X181492438Y-94559523D01*
X181492438Y-94559523D02*
X181444819Y-94654761D01*
X181444819Y-94654761D02*
X181444819Y-94845237D01*
X181444819Y-94845237D02*
X181492438Y-94940475D01*
X181492438Y-94940475D02*
X181540057Y-94988094D01*
X181540057Y-94988094D02*
X181635295Y-95035713D01*
X181635295Y-95035713D02*
X181873390Y-95035713D01*
X181873390Y-95035713D02*
X181968628Y-94988094D01*
X181968628Y-94988094D02*
X182016247Y-94940475D01*
X182016247Y-94940475D02*
X182063866Y-94845237D01*
X182063866Y-94845237D02*
X182063866Y-94654761D01*
X182063866Y-94654761D02*
X182016247Y-94559523D01*
X182016247Y-94559523D02*
X181968628Y-94511904D01*
X181968628Y-94511904D02*
X181873390Y-94464285D01*
X212511904Y-94252438D02*
X212416666Y-94204819D01*
X212416666Y-94204819D02*
X212273809Y-94204819D01*
X212273809Y-94204819D02*
X212130952Y-94252438D01*
X212130952Y-94252438D02*
X212035714Y-94347676D01*
X212035714Y-94347676D02*
X211988095Y-94442914D01*
X211988095Y-94442914D02*
X211940476Y-94633390D01*
X211940476Y-94633390D02*
X211940476Y-94776247D01*
X211940476Y-94776247D02*
X211988095Y-94966723D01*
X211988095Y-94966723D02*
X212035714Y-95061961D01*
X212035714Y-95061961D02*
X212130952Y-95157200D01*
X212130952Y-95157200D02*
X212273809Y-95204819D01*
X212273809Y-95204819D02*
X212369047Y-95204819D01*
X212369047Y-95204819D02*
X212511904Y-95157200D01*
X212511904Y-95157200D02*
X212559523Y-95109580D01*
X212559523Y-95109580D02*
X212559523Y-94776247D01*
X212559523Y-94776247D02*
X212369047Y-94776247D01*
X212988095Y-95204819D02*
X212988095Y-94204819D01*
X212988095Y-94204819D02*
X213559523Y-95204819D01*
X213559523Y-95204819D02*
X213559523Y-94204819D01*
X214035714Y-95204819D02*
X214035714Y-94204819D01*
X214035714Y-94204819D02*
X214273809Y-94204819D01*
X214273809Y-94204819D02*
X214416666Y-94252438D01*
X214416666Y-94252438D02*
X214511904Y-94347676D01*
X214511904Y-94347676D02*
X214559523Y-94442914D01*
X214559523Y-94442914D02*
X214607142Y-94633390D01*
X214607142Y-94633390D02*
X214607142Y-94776247D01*
X214607142Y-94776247D02*
X214559523Y-94966723D01*
X214559523Y-94966723D02*
X214511904Y-95061961D01*
X214511904Y-95061961D02*
X214416666Y-95157200D01*
X214416666Y-95157200D02*
X214273809Y-95204819D01*
X214273809Y-95204819D02*
X214035714Y-95204819D01*
X215559523Y-95204819D02*
X214988095Y-95204819D01*
X215273809Y-95204819D02*
X215273809Y-94204819D01*
X215273809Y-94204819D02*
X215178571Y-94347676D01*
X215178571Y-94347676D02*
X215083333Y-94442914D01*
X215083333Y-94442914D02*
X214988095Y-94490533D01*
X184583333Y-106054819D02*
X184250000Y-105578628D01*
X184011905Y-106054819D02*
X184011905Y-105054819D01*
X184011905Y-105054819D02*
X184392857Y-105054819D01*
X184392857Y-105054819D02*
X184488095Y-105102438D01*
X184488095Y-105102438D02*
X184535714Y-105150057D01*
X184535714Y-105150057D02*
X184583333Y-105245295D01*
X184583333Y-105245295D02*
X184583333Y-105388152D01*
X184583333Y-105388152D02*
X184535714Y-105483390D01*
X184535714Y-105483390D02*
X184488095Y-105531009D01*
X184488095Y-105531009D02*
X184392857Y-105578628D01*
X184392857Y-105578628D02*
X184011905Y-105578628D01*
X185535714Y-106054819D02*
X184964286Y-106054819D01*
X185250000Y-106054819D02*
X185250000Y-105054819D01*
X185250000Y-105054819D02*
X185154762Y-105197676D01*
X185154762Y-105197676D02*
X185059524Y-105292914D01*
X185059524Y-105292914D02*
X184964286Y-105340533D01*
X137785714Y-86681009D02*
X138119047Y-86681009D01*
X138261904Y-87204819D02*
X137785714Y-87204819D01*
X137785714Y-87204819D02*
X137785714Y-86204819D01*
X137785714Y-86204819D02*
X138261904Y-86204819D01*
X138690476Y-86538152D02*
X138690476Y-87204819D01*
X138690476Y-86633390D02*
X138738095Y-86585771D01*
X138738095Y-86585771D02*
X138833333Y-86538152D01*
X138833333Y-86538152D02*
X138976190Y-86538152D01*
X138976190Y-86538152D02*
X139071428Y-86585771D01*
X139071428Y-86585771D02*
X139119047Y-86681009D01*
X139119047Y-86681009D02*
X139119047Y-87204819D01*
X140023809Y-87157200D02*
X139928571Y-87204819D01*
X139928571Y-87204819D02*
X139738095Y-87204819D01*
X139738095Y-87204819D02*
X139642857Y-87157200D01*
X139642857Y-87157200D02*
X139595238Y-87109580D01*
X139595238Y-87109580D02*
X139547619Y-87014342D01*
X139547619Y-87014342D02*
X139547619Y-86728628D01*
X139547619Y-86728628D02*
X139595238Y-86633390D01*
X139595238Y-86633390D02*
X139642857Y-86585771D01*
X139642857Y-86585771D02*
X139738095Y-86538152D01*
X139738095Y-86538152D02*
X139928571Y-86538152D01*
X139928571Y-86538152D02*
X140023809Y-86585771D01*
X140595238Y-87204819D02*
X140500000Y-87157200D01*
X140500000Y-87157200D02*
X140452381Y-87109580D01*
X140452381Y-87109580D02*
X140404762Y-87014342D01*
X140404762Y-87014342D02*
X140404762Y-86728628D01*
X140404762Y-86728628D02*
X140452381Y-86633390D01*
X140452381Y-86633390D02*
X140500000Y-86585771D01*
X140500000Y-86585771D02*
X140595238Y-86538152D01*
X140595238Y-86538152D02*
X140738095Y-86538152D01*
X140738095Y-86538152D02*
X140833333Y-86585771D01*
X140833333Y-86585771D02*
X140880952Y-86633390D01*
X140880952Y-86633390D02*
X140928571Y-86728628D01*
X140928571Y-86728628D02*
X140928571Y-87014342D01*
X140928571Y-87014342D02*
X140880952Y-87109580D01*
X140880952Y-87109580D02*
X140833333Y-87157200D01*
X140833333Y-87157200D02*
X140738095Y-87204819D01*
X140738095Y-87204819D02*
X140595238Y-87204819D01*
X141785714Y-87204819D02*
X141785714Y-86204819D01*
X141785714Y-87157200D02*
X141690476Y-87204819D01*
X141690476Y-87204819D02*
X141500000Y-87204819D01*
X141500000Y-87204819D02*
X141404762Y-87157200D01*
X141404762Y-87157200D02*
X141357143Y-87109580D01*
X141357143Y-87109580D02*
X141309524Y-87014342D01*
X141309524Y-87014342D02*
X141309524Y-86728628D01*
X141309524Y-86728628D02*
X141357143Y-86633390D01*
X141357143Y-86633390D02*
X141404762Y-86585771D01*
X141404762Y-86585771D02*
X141500000Y-86538152D01*
X141500000Y-86538152D02*
X141690476Y-86538152D01*
X141690476Y-86538152D02*
X141785714Y-86585771D01*
X142642857Y-87157200D02*
X142547619Y-87204819D01*
X142547619Y-87204819D02*
X142357143Y-87204819D01*
X142357143Y-87204819D02*
X142261905Y-87157200D01*
X142261905Y-87157200D02*
X142214286Y-87061961D01*
X142214286Y-87061961D02*
X142214286Y-86681009D01*
X142214286Y-86681009D02*
X142261905Y-86585771D01*
X142261905Y-86585771D02*
X142357143Y-86538152D01*
X142357143Y-86538152D02*
X142547619Y-86538152D01*
X142547619Y-86538152D02*
X142642857Y-86585771D01*
X142642857Y-86585771D02*
X142690476Y-86681009D01*
X142690476Y-86681009D02*
X142690476Y-86776247D01*
X142690476Y-86776247D02*
X142214286Y-86871485D01*
X143119048Y-87204819D02*
X143119048Y-86538152D01*
X143119048Y-86728628D02*
X143166667Y-86633390D01*
X143166667Y-86633390D02*
X143214286Y-86585771D01*
X143214286Y-86585771D02*
X143309524Y-86538152D01*
X143309524Y-86538152D02*
X143404762Y-86538152D01*
X144261905Y-87204819D02*
X143690477Y-87204819D01*
X143976191Y-87204819D02*
X143976191Y-86204819D01*
X143976191Y-86204819D02*
X143880953Y-86347676D01*
X143880953Y-86347676D02*
X143785715Y-86442914D01*
X143785715Y-86442914D02*
X143690477Y-86490533D01*
X196633333Y-92309580D02*
X196585714Y-92357200D01*
X196585714Y-92357200D02*
X196442857Y-92404819D01*
X196442857Y-92404819D02*
X196347619Y-92404819D01*
X196347619Y-92404819D02*
X196204762Y-92357200D01*
X196204762Y-92357200D02*
X196109524Y-92261961D01*
X196109524Y-92261961D02*
X196061905Y-92166723D01*
X196061905Y-92166723D02*
X196014286Y-91976247D01*
X196014286Y-91976247D02*
X196014286Y-91833390D01*
X196014286Y-91833390D02*
X196061905Y-91642914D01*
X196061905Y-91642914D02*
X196109524Y-91547676D01*
X196109524Y-91547676D02*
X196204762Y-91452438D01*
X196204762Y-91452438D02*
X196347619Y-91404819D01*
X196347619Y-91404819D02*
X196442857Y-91404819D01*
X196442857Y-91404819D02*
X196585714Y-91452438D01*
X196585714Y-91452438D02*
X196633333Y-91500057D01*
X197014286Y-91500057D02*
X197061905Y-91452438D01*
X197061905Y-91452438D02*
X197157143Y-91404819D01*
X197157143Y-91404819D02*
X197395238Y-91404819D01*
X197395238Y-91404819D02*
X197490476Y-91452438D01*
X197490476Y-91452438D02*
X197538095Y-91500057D01*
X197538095Y-91500057D02*
X197585714Y-91595295D01*
X197585714Y-91595295D02*
X197585714Y-91690533D01*
X197585714Y-91690533D02*
X197538095Y-91833390D01*
X197538095Y-91833390D02*
X196966667Y-92404819D01*
X196966667Y-92404819D02*
X197585714Y-92404819D01*
X192504819Y-75488095D02*
X191504819Y-75488095D01*
X191504819Y-75488095D02*
X192219104Y-75154762D01*
X192219104Y-75154762D02*
X191504819Y-74821429D01*
X191504819Y-74821429D02*
X192504819Y-74821429D01*
X192504819Y-74202381D02*
X192457200Y-74297619D01*
X192457200Y-74297619D02*
X192409580Y-74345238D01*
X192409580Y-74345238D02*
X192314342Y-74392857D01*
X192314342Y-74392857D02*
X192028628Y-74392857D01*
X192028628Y-74392857D02*
X191933390Y-74345238D01*
X191933390Y-74345238D02*
X191885771Y-74297619D01*
X191885771Y-74297619D02*
X191838152Y-74202381D01*
X191838152Y-74202381D02*
X191838152Y-74059524D01*
X191838152Y-74059524D02*
X191885771Y-73964286D01*
X191885771Y-73964286D02*
X191933390Y-73916667D01*
X191933390Y-73916667D02*
X192028628Y-73869048D01*
X192028628Y-73869048D02*
X192314342Y-73869048D01*
X192314342Y-73869048D02*
X192409580Y-73916667D01*
X192409580Y-73916667D02*
X192457200Y-73964286D01*
X192457200Y-73964286D02*
X192504819Y-74059524D01*
X192504819Y-74059524D02*
X192504819Y-74202381D01*
X191838152Y-73583333D02*
X191838152Y-73202381D01*
X191504819Y-73440476D02*
X192361961Y-73440476D01*
X192361961Y-73440476D02*
X192457200Y-73392857D01*
X192457200Y-73392857D02*
X192504819Y-73297619D01*
X192504819Y-73297619D02*
X192504819Y-73202381D01*
X192504819Y-72726190D02*
X192457200Y-72821428D01*
X192457200Y-72821428D02*
X192409580Y-72869047D01*
X192409580Y-72869047D02*
X192314342Y-72916666D01*
X192314342Y-72916666D02*
X192028628Y-72916666D01*
X192028628Y-72916666D02*
X191933390Y-72869047D01*
X191933390Y-72869047D02*
X191885771Y-72821428D01*
X191885771Y-72821428D02*
X191838152Y-72726190D01*
X191838152Y-72726190D02*
X191838152Y-72583333D01*
X191838152Y-72583333D02*
X191885771Y-72488095D01*
X191885771Y-72488095D02*
X191933390Y-72440476D01*
X191933390Y-72440476D02*
X192028628Y-72392857D01*
X192028628Y-72392857D02*
X192314342Y-72392857D01*
X192314342Y-72392857D02*
X192409580Y-72440476D01*
X192409580Y-72440476D02*
X192457200Y-72488095D01*
X192457200Y-72488095D02*
X192504819Y-72583333D01*
X192504819Y-72583333D02*
X192504819Y-72726190D01*
X192504819Y-71964285D02*
X191838152Y-71964285D01*
X192028628Y-71964285D02*
X191933390Y-71916666D01*
X191933390Y-71916666D02*
X191885771Y-71869047D01*
X191885771Y-71869047D02*
X191838152Y-71773809D01*
X191838152Y-71773809D02*
X191838152Y-71678571D01*
X192219104Y-71392856D02*
X192219104Y-70916666D01*
X192504819Y-71488094D02*
X191504819Y-71154761D01*
X191504819Y-71154761D02*
X192504819Y-70821428D01*
X192504819Y-69964285D02*
X192504819Y-70535713D01*
X192504819Y-70249999D02*
X191504819Y-70249999D01*
X191504819Y-70249999D02*
X191647676Y-70345237D01*
X191647676Y-70345237D02*
X191742914Y-70440475D01*
X191742914Y-70440475D02*
X191790533Y-70535713D01*
X192504819Y-86059523D02*
X191504819Y-86059523D01*
X191504819Y-86059523D02*
X192219104Y-85726190D01*
X192219104Y-85726190D02*
X191504819Y-85392857D01*
X191504819Y-85392857D02*
X192504819Y-85392857D01*
X192504819Y-84773809D02*
X192457200Y-84869047D01*
X192457200Y-84869047D02*
X192409580Y-84916666D01*
X192409580Y-84916666D02*
X192314342Y-84964285D01*
X192314342Y-84964285D02*
X192028628Y-84964285D01*
X192028628Y-84964285D02*
X191933390Y-84916666D01*
X191933390Y-84916666D02*
X191885771Y-84869047D01*
X191885771Y-84869047D02*
X191838152Y-84773809D01*
X191838152Y-84773809D02*
X191838152Y-84630952D01*
X191838152Y-84630952D02*
X191885771Y-84535714D01*
X191885771Y-84535714D02*
X191933390Y-84488095D01*
X191933390Y-84488095D02*
X192028628Y-84440476D01*
X192028628Y-84440476D02*
X192314342Y-84440476D01*
X192314342Y-84440476D02*
X192409580Y-84488095D01*
X192409580Y-84488095D02*
X192457200Y-84535714D01*
X192457200Y-84535714D02*
X192504819Y-84630952D01*
X192504819Y-84630952D02*
X192504819Y-84773809D01*
X191838152Y-84154761D02*
X191838152Y-83773809D01*
X191504819Y-84011904D02*
X192361961Y-84011904D01*
X192361961Y-84011904D02*
X192457200Y-83964285D01*
X192457200Y-83964285D02*
X192504819Y-83869047D01*
X192504819Y-83869047D02*
X192504819Y-83773809D01*
X192504819Y-83297618D02*
X192457200Y-83392856D01*
X192457200Y-83392856D02*
X192409580Y-83440475D01*
X192409580Y-83440475D02*
X192314342Y-83488094D01*
X192314342Y-83488094D02*
X192028628Y-83488094D01*
X192028628Y-83488094D02*
X191933390Y-83440475D01*
X191933390Y-83440475D02*
X191885771Y-83392856D01*
X191885771Y-83392856D02*
X191838152Y-83297618D01*
X191838152Y-83297618D02*
X191838152Y-83154761D01*
X191838152Y-83154761D02*
X191885771Y-83059523D01*
X191885771Y-83059523D02*
X191933390Y-83011904D01*
X191933390Y-83011904D02*
X192028628Y-82964285D01*
X192028628Y-82964285D02*
X192314342Y-82964285D01*
X192314342Y-82964285D02*
X192409580Y-83011904D01*
X192409580Y-83011904D02*
X192457200Y-83059523D01*
X192457200Y-83059523D02*
X192504819Y-83154761D01*
X192504819Y-83154761D02*
X192504819Y-83297618D01*
X192504819Y-82535713D02*
X191838152Y-82535713D01*
X192028628Y-82535713D02*
X191933390Y-82488094D01*
X191933390Y-82488094D02*
X191885771Y-82440475D01*
X191885771Y-82440475D02*
X191838152Y-82345237D01*
X191838152Y-82345237D02*
X191838152Y-82249999D01*
X191981009Y-81583332D02*
X192028628Y-81440475D01*
X192028628Y-81440475D02*
X192076247Y-81392856D01*
X192076247Y-81392856D02*
X192171485Y-81345237D01*
X192171485Y-81345237D02*
X192314342Y-81345237D01*
X192314342Y-81345237D02*
X192409580Y-81392856D01*
X192409580Y-81392856D02*
X192457200Y-81440475D01*
X192457200Y-81440475D02*
X192504819Y-81535713D01*
X192504819Y-81535713D02*
X192504819Y-81916665D01*
X192504819Y-81916665D02*
X191504819Y-81916665D01*
X191504819Y-81916665D02*
X191504819Y-81583332D01*
X191504819Y-81583332D02*
X191552438Y-81488094D01*
X191552438Y-81488094D02*
X191600057Y-81440475D01*
X191600057Y-81440475D02*
X191695295Y-81392856D01*
X191695295Y-81392856D02*
X191790533Y-81392856D01*
X191790533Y-81392856D02*
X191885771Y-81440475D01*
X191885771Y-81440475D02*
X191933390Y-81488094D01*
X191933390Y-81488094D02*
X191981009Y-81583332D01*
X191981009Y-81583332D02*
X191981009Y-81916665D01*
X192504819Y-80392856D02*
X192504819Y-80964284D01*
X192504819Y-80678570D02*
X191504819Y-80678570D01*
X191504819Y-80678570D02*
X191647676Y-80773808D01*
X191647676Y-80773808D02*
X191742914Y-80869046D01*
X191742914Y-80869046D02*
X191790533Y-80964284D01*
X184011905Y-101554819D02*
X184011905Y-100554819D01*
X184011905Y-100554819D02*
X184250000Y-100554819D01*
X184250000Y-100554819D02*
X184392857Y-100602438D01*
X184392857Y-100602438D02*
X184488095Y-100697676D01*
X184488095Y-100697676D02*
X184535714Y-100792914D01*
X184535714Y-100792914D02*
X184583333Y-100983390D01*
X184583333Y-100983390D02*
X184583333Y-101126247D01*
X184583333Y-101126247D02*
X184535714Y-101316723D01*
X184535714Y-101316723D02*
X184488095Y-101411961D01*
X184488095Y-101411961D02*
X184392857Y-101507200D01*
X184392857Y-101507200D02*
X184250000Y-101554819D01*
X184250000Y-101554819D02*
X184011905Y-101554819D01*
X185535714Y-101554819D02*
X184964286Y-101554819D01*
X185250000Y-101554819D02*
X185250000Y-100554819D01*
X185250000Y-100554819D02*
X185154762Y-100697676D01*
X185154762Y-100697676D02*
X185059524Y-100792914D01*
X185059524Y-100792914D02*
X184964286Y-100840533D01*
X164644819Y-95988094D02*
X163644819Y-95988094D01*
X163644819Y-95988094D02*
X163644819Y-95749999D01*
X163644819Y-95749999D02*
X163692438Y-95607142D01*
X163692438Y-95607142D02*
X163787676Y-95511904D01*
X163787676Y-95511904D02*
X163882914Y-95464285D01*
X163882914Y-95464285D02*
X164073390Y-95416666D01*
X164073390Y-95416666D02*
X164216247Y-95416666D01*
X164216247Y-95416666D02*
X164406723Y-95464285D01*
X164406723Y-95464285D02*
X164501961Y-95511904D01*
X164501961Y-95511904D02*
X164597200Y-95607142D01*
X164597200Y-95607142D02*
X164644819Y-95749999D01*
X164644819Y-95749999D02*
X164644819Y-95988094D01*
X163644819Y-94559523D02*
X163644819Y-94749999D01*
X163644819Y-94749999D02*
X163692438Y-94845237D01*
X163692438Y-94845237D02*
X163740057Y-94892856D01*
X163740057Y-94892856D02*
X163882914Y-94988094D01*
X163882914Y-94988094D02*
X164073390Y-95035713D01*
X164073390Y-95035713D02*
X164454342Y-95035713D01*
X164454342Y-95035713D02*
X164549580Y-94988094D01*
X164549580Y-94988094D02*
X164597200Y-94940475D01*
X164597200Y-94940475D02*
X164644819Y-94845237D01*
X164644819Y-94845237D02*
X164644819Y-94654761D01*
X164644819Y-94654761D02*
X164597200Y-94559523D01*
X164597200Y-94559523D02*
X164549580Y-94511904D01*
X164549580Y-94511904D02*
X164454342Y-94464285D01*
X164454342Y-94464285D02*
X164216247Y-94464285D01*
X164216247Y-94464285D02*
X164121009Y-94511904D01*
X164121009Y-94511904D02*
X164073390Y-94559523D01*
X164073390Y-94559523D02*
X164025771Y-94654761D01*
X164025771Y-94654761D02*
X164025771Y-94845237D01*
X164025771Y-94845237D02*
X164073390Y-94940475D01*
X164073390Y-94940475D02*
X164121009Y-94988094D01*
X164121009Y-94988094D02*
X164216247Y-95035713D01*
X176144819Y-95988094D02*
X175144819Y-95988094D01*
X175144819Y-95988094D02*
X175144819Y-95749999D01*
X175144819Y-95749999D02*
X175192438Y-95607142D01*
X175192438Y-95607142D02*
X175287676Y-95511904D01*
X175287676Y-95511904D02*
X175382914Y-95464285D01*
X175382914Y-95464285D02*
X175573390Y-95416666D01*
X175573390Y-95416666D02*
X175716247Y-95416666D01*
X175716247Y-95416666D02*
X175906723Y-95464285D01*
X175906723Y-95464285D02*
X176001961Y-95511904D01*
X176001961Y-95511904D02*
X176097200Y-95607142D01*
X176097200Y-95607142D02*
X176144819Y-95749999D01*
X176144819Y-95749999D02*
X176144819Y-95988094D01*
X175573390Y-94845237D02*
X175525771Y-94940475D01*
X175525771Y-94940475D02*
X175478152Y-94988094D01*
X175478152Y-94988094D02*
X175382914Y-95035713D01*
X175382914Y-95035713D02*
X175335295Y-95035713D01*
X175335295Y-95035713D02*
X175240057Y-94988094D01*
X175240057Y-94988094D02*
X175192438Y-94940475D01*
X175192438Y-94940475D02*
X175144819Y-94845237D01*
X175144819Y-94845237D02*
X175144819Y-94654761D01*
X175144819Y-94654761D02*
X175192438Y-94559523D01*
X175192438Y-94559523D02*
X175240057Y-94511904D01*
X175240057Y-94511904D02*
X175335295Y-94464285D01*
X175335295Y-94464285D02*
X175382914Y-94464285D01*
X175382914Y-94464285D02*
X175478152Y-94511904D01*
X175478152Y-94511904D02*
X175525771Y-94559523D01*
X175525771Y-94559523D02*
X175573390Y-94654761D01*
X175573390Y-94654761D02*
X175573390Y-94845237D01*
X175573390Y-94845237D02*
X175621009Y-94940475D01*
X175621009Y-94940475D02*
X175668628Y-94988094D01*
X175668628Y-94988094D02*
X175763866Y-95035713D01*
X175763866Y-95035713D02*
X175954342Y-95035713D01*
X175954342Y-95035713D02*
X176049580Y-94988094D01*
X176049580Y-94988094D02*
X176097200Y-94940475D01*
X176097200Y-94940475D02*
X176144819Y-94845237D01*
X176144819Y-94845237D02*
X176144819Y-94654761D01*
X176144819Y-94654761D02*
X176097200Y-94559523D01*
X176097200Y-94559523D02*
X176049580Y-94511904D01*
X176049580Y-94511904D02*
X175954342Y-94464285D01*
X175954342Y-94464285D02*
X175763866Y-94464285D01*
X175763866Y-94464285D02*
X175668628Y-94511904D01*
X175668628Y-94511904D02*
X175621009Y-94559523D01*
X175621009Y-94559523D02*
X175573390Y-94654761D01*
D11*
%TO.C,D5*%
X182840000Y-118760000D02*
X186140000Y-118760000D01*
X182840000Y-118760000D02*
X182840000Y-113250000D01*
X186140000Y-118760000D02*
X186140000Y-113250000D01*
%TO.C,D7*%
X170790000Y-98760000D02*
X174090000Y-98760000D01*
X170790000Y-98760000D02*
X170790000Y-93250000D01*
X174090000Y-98760000D02*
X174090000Y-93250000D01*
%TO.C,D4*%
X176590000Y-118760000D02*
X179890000Y-118760000D01*
X176590000Y-118760000D02*
X176590000Y-113250000D01*
X179890000Y-118760000D02*
X179890000Y-113250000D01*
%TO.C,U3*%
X175970000Y-108450000D02*
X175970000Y-108180000D01*
X175970000Y-108180000D02*
X178800000Y-108180000D01*
X175970000Y-101820000D02*
X177070000Y-101820000D01*
X175970000Y-101550000D02*
X175970000Y-101820000D01*
X169550000Y-108450000D02*
X175970000Y-108450000D01*
X169550000Y-101550000D02*
X175970000Y-101550000D01*
%TO.C,D2*%
X165090000Y-118760000D02*
X168390000Y-118760000D01*
X165090000Y-118760000D02*
X165090000Y-113250000D01*
X168390000Y-118760000D02*
X168390000Y-113250000D01*
D12*
%TO.C,U1*%
X114960000Y-76400000D02*
X114960000Y-48500000D01*
X169360000Y-76400000D02*
X114960000Y-76400000D01*
X114960000Y-48500000D02*
X169360000Y-48500000D01*
X169360000Y-48500000D02*
X169360000Y-76400000D01*
D13*
X122450000Y-77050000D02*
G75*
G03*
X122450000Y-77050000I-100000J0D01*
G01*
D11*
%TO.C,U4*%
X221972000Y-110036000D02*
X221972000Y-106988000D01*
X221972000Y-110036000D02*
X221972000Y-113084000D01*
X225528000Y-110880000D02*
X225528000Y-113084000D01*
X225528000Y-110999000D02*
X225528000Y-106988000D01*
%TO.C,C1*%
X189900000Y-109740000D02*
X191150000Y-109740000D01*
X190525000Y-109115000D02*
X190525000Y-110365000D01*
X191390000Y-108204437D02*
X191390000Y-110990000D01*
X191390000Y-108204437D02*
X192454437Y-107140000D01*
X191390000Y-116795563D02*
X191390000Y-114010000D01*
X191390000Y-116795563D02*
X192454437Y-117860000D01*
X192454437Y-107140000D02*
X202110000Y-107140000D01*
X192454437Y-117860000D02*
X202110000Y-117860000D01*
X202110000Y-107140000D02*
X202110000Y-110990000D01*
X202110000Y-117860000D02*
X202110000Y-114010000D01*
%TO.C,U2*%
X151625000Y-113725000D02*
X156866000Y-113725000D01*
X151625000Y-113725000D02*
X151625000Y-93285000D01*
X153465000Y-113725000D02*
X153465000Y-93285000D01*
X156866000Y-113725000D02*
X156866000Y-112049000D01*
X156866000Y-112395000D02*
X160275000Y-112395000D01*
X156866000Y-110200000D02*
X156866000Y-109509000D01*
X156866000Y-109855000D02*
X160260000Y-109855000D01*
X156866000Y-107660000D02*
X156866000Y-106969000D01*
X156866000Y-107315000D02*
X160260000Y-107315000D01*
X151625000Y-105354000D02*
X153465000Y-105354000D01*
X156866000Y-105120000D02*
X156866000Y-104429000D01*
X156866000Y-104775000D02*
X160260000Y-104775000D01*
X156866000Y-102580000D02*
X156866000Y-101889000D01*
X156866000Y-102235000D02*
X160260000Y-102235000D01*
X151625000Y-101655000D02*
X153465000Y-101655000D01*
X156866000Y-100040000D02*
X156866000Y-99349000D01*
X156866000Y-99695000D02*
X160260000Y-99695000D01*
X156866000Y-97500000D02*
X156866000Y-96809000D01*
X156866000Y-97155000D02*
X160260000Y-97155000D01*
X156866000Y-94960000D02*
X156866000Y-93285000D01*
X156866000Y-94615000D02*
X160260000Y-94615000D01*
X151625000Y-93285000D02*
X156866000Y-93285000D01*
%TO.C,D3*%
X170840000Y-118760000D02*
X174140000Y-118760000D01*
X170840000Y-118760000D02*
X170840000Y-113250000D01*
X174140000Y-118760000D02*
X174140000Y-113250000D01*
%TO.C,Encoder0*%
X120400000Y-79250000D02*
X120400000Y-80500000D01*
X120690000Y-79540000D02*
X120690000Y-85510000D01*
X120690000Y-85510000D02*
X133310000Y-85510000D01*
X120700000Y-79550000D02*
X120700000Y-80300000D01*
X120700000Y-80300000D02*
X122500000Y-80300000D01*
X120700000Y-81800000D02*
X121450000Y-81800000D01*
X121450000Y-81800000D02*
X121450000Y-84750000D01*
X121450000Y-84750000D02*
X127000000Y-84750000D01*
X121650000Y-79250000D02*
X120400000Y-79250000D01*
X122500000Y-79550000D02*
X120700000Y-79550000D01*
X122500000Y-80300000D02*
X122500000Y-79550000D01*
X124000000Y-79550000D02*
X124000000Y-80300000D01*
X124000000Y-80300000D02*
X130000000Y-80300000D01*
X130000000Y-79550000D02*
X124000000Y-79550000D01*
X130000000Y-80300000D02*
X130000000Y-79550000D01*
X131500000Y-79550000D02*
X131500000Y-80300000D01*
X131500000Y-80300000D02*
X133300000Y-80300000D01*
X132550000Y-81800000D02*
X132550000Y-84750000D01*
X132550000Y-84750000D02*
X127000000Y-84750000D01*
X133300000Y-79550000D02*
X131500000Y-79550000D01*
X133300000Y-80300000D02*
X133300000Y-79550000D01*
X133300000Y-81800000D02*
X132550000Y-81800000D01*
X133310000Y-79540000D02*
X120690000Y-79540000D01*
X133310000Y-85510000D02*
X133310000Y-79540000D01*
%TO.C,D9*%
X182840000Y-98760000D02*
X186140000Y-98760000D01*
X182840000Y-98760000D02*
X182840000Y-93250000D01*
X186140000Y-98760000D02*
X186140000Y-93250000D01*
%TO.C,R1*%
X184522936Y-106515000D02*
X184977064Y-106515000D01*
X184522936Y-107985000D02*
X184977064Y-107985000D01*
%TO.C,Encoder1*%
X134900000Y-79250000D02*
X134900000Y-80500000D01*
X135190000Y-79540000D02*
X135190000Y-85510000D01*
X135190000Y-85510000D02*
X147810000Y-85510000D01*
X135200000Y-79550000D02*
X135200000Y-80300000D01*
X135200000Y-80300000D02*
X137000000Y-80300000D01*
X135200000Y-81800000D02*
X135950000Y-81800000D01*
X135950000Y-81800000D02*
X135950000Y-84750000D01*
X135950000Y-84750000D02*
X141500000Y-84750000D01*
X136150000Y-79250000D02*
X134900000Y-79250000D01*
X137000000Y-79550000D02*
X135200000Y-79550000D01*
X137000000Y-80300000D02*
X137000000Y-79550000D01*
X138500000Y-79550000D02*
X138500000Y-80300000D01*
X138500000Y-80300000D02*
X144500000Y-80300000D01*
X144500000Y-79550000D02*
X138500000Y-79550000D01*
X144500000Y-80300000D02*
X144500000Y-79550000D01*
X146000000Y-79550000D02*
X146000000Y-80300000D01*
X146000000Y-80300000D02*
X147800000Y-80300000D01*
X147050000Y-81800000D02*
X147050000Y-84750000D01*
X147050000Y-84750000D02*
X141500000Y-84750000D01*
X147800000Y-79550000D02*
X146000000Y-79550000D01*
X147800000Y-80300000D02*
X147800000Y-79550000D01*
X147800000Y-81800000D02*
X147050000Y-81800000D01*
X147810000Y-79540000D02*
X135190000Y-79540000D01*
X147810000Y-85510000D02*
X147810000Y-79540000D01*
%TO.C,C2*%
X189950000Y-95490000D02*
X191200000Y-95490000D01*
X190575000Y-94865000D02*
X190575000Y-96115000D01*
X191440000Y-93954437D02*
X191440000Y-96740000D01*
X191440000Y-93954437D02*
X192504437Y-92890000D01*
X191440000Y-102545563D02*
X191440000Y-99760000D01*
X191440000Y-102545563D02*
X192504437Y-103610000D01*
X192504437Y-92890000D02*
X202160000Y-92890000D01*
X192504437Y-103610000D02*
X202160000Y-103610000D01*
X202160000Y-92890000D02*
X202160000Y-96740000D01*
X202160000Y-103610000D02*
X202160000Y-99760000D01*
%TO.C,MotorA1*%
X191250000Y-68650000D02*
X190000000Y-68650000D01*
X190960000Y-68940000D02*
X184990000Y-68940000D01*
X184990000Y-68940000D02*
X184990000Y-76560000D01*
X190950000Y-68950000D02*
X190200000Y-68950000D01*
X190200000Y-68950000D02*
X190200000Y-70750000D01*
X188700000Y-68950000D02*
X188700000Y-69700000D01*
X188700000Y-69700000D02*
X185750000Y-69700000D01*
X185750000Y-69700000D02*
X185750000Y-72750000D01*
X191250000Y-69900000D02*
X191250000Y-68650000D01*
X190950000Y-70750000D02*
X190950000Y-68950000D01*
X190200000Y-70750000D02*
X190950000Y-70750000D01*
X190950000Y-72250000D02*
X190200000Y-72250000D01*
X190200000Y-72250000D02*
X190200000Y-73250000D01*
X190950000Y-73250000D02*
X190950000Y-72250000D01*
X190200000Y-73250000D02*
X190950000Y-73250000D01*
X190950000Y-74750000D02*
X190200000Y-74750000D01*
X190200000Y-74750000D02*
X190200000Y-76550000D01*
X188700000Y-75800000D02*
X185750000Y-75800000D01*
X185750000Y-75800000D02*
X185750000Y-72750000D01*
X190950000Y-76550000D02*
X190950000Y-74750000D01*
X190200000Y-76550000D02*
X190950000Y-76550000D01*
X188700000Y-76550000D02*
X188700000Y-75800000D01*
X190960000Y-76560000D02*
X190960000Y-68940000D01*
X184990000Y-76560000D02*
X190960000Y-76560000D01*
%TO.C,MotorB1*%
X191250000Y-79150000D02*
X190000000Y-79150000D01*
X190960000Y-79440000D02*
X184990000Y-79440000D01*
X184990000Y-79440000D02*
X184990000Y-87060000D01*
X190950000Y-79450000D02*
X190200000Y-79450000D01*
X190200000Y-79450000D02*
X190200000Y-81250000D01*
X188700000Y-79450000D02*
X188700000Y-80200000D01*
X188700000Y-80200000D02*
X185750000Y-80200000D01*
X185750000Y-80200000D02*
X185750000Y-83250000D01*
X191250000Y-80400000D02*
X191250000Y-79150000D01*
X190950000Y-81250000D02*
X190950000Y-79450000D01*
X190200000Y-81250000D02*
X190950000Y-81250000D01*
X190950000Y-82750000D02*
X190200000Y-82750000D01*
X190200000Y-82750000D02*
X190200000Y-83750000D01*
X190950000Y-83750000D02*
X190950000Y-82750000D01*
X190200000Y-83750000D02*
X190950000Y-83750000D01*
X190950000Y-85250000D02*
X190200000Y-85250000D01*
X190200000Y-85250000D02*
X190200000Y-87050000D01*
X188700000Y-86300000D02*
X185750000Y-86300000D01*
X185750000Y-86300000D02*
X185750000Y-83250000D01*
X190950000Y-87050000D02*
X190950000Y-85250000D01*
X190200000Y-87050000D02*
X190950000Y-87050000D01*
X188700000Y-87050000D02*
X188700000Y-86300000D01*
X190960000Y-87060000D02*
X190960000Y-79440000D01*
X184990000Y-87060000D02*
X190960000Y-87060000D01*
%TO.C,D1*%
X183065000Y-101790000D02*
X183065000Y-103710000D01*
X183065000Y-103710000D02*
X185750000Y-103710000D01*
X185750000Y-101790000D02*
X183065000Y-101790000D01*
%TO.C,D6*%
X165040000Y-98760000D02*
X168340000Y-98760000D01*
X165040000Y-98760000D02*
X165040000Y-93250000D01*
X168340000Y-98760000D02*
X168340000Y-93250000D01*
%TO.C,D8*%
X176540000Y-98760000D02*
X179840000Y-98760000D01*
X176540000Y-98760000D02*
X176540000Y-93250000D01*
X179840000Y-98760000D02*
X179840000Y-93250000D01*
%TD*%
M02*
