M48
; DRILL file {KiCad 7.0.8} date Sat Mar 30 18:50:28 2024
; FORMAT={-:-/ absolute / inch / decimal}
; #@! TF.CreationDate,2024-03-30T18:50:28+07:00
; #@! TF.GenerationSoftware,Kicad,Pcbnew,7.0.8
; #@! TF.FileFunction,Plated,1,2,PTH
FMAT,2
INCH
; #@! TA.AperFunction,Plated,PTH,ViaDrill
T1C0.0197
; #@! TA.AperFunction,Plated,PTH,ComponentDrill
T2C0.0374
; #@! TA.AperFunction,Plated,PTH,ComponentDrill
T3C0.0394
; #@! TA.AperFunction,Plated,PTH,ComponentDrill
T4C0.0409
; #@! TA.AperFunction,Plated,PTH,ComponentDrill
T5C0.1181
%
G90
G05
T1
X5.8563Y-4.0354
X5.8563Y-4.0945
X5.8563Y-4.1535
X5.8563Y-4.2126
X5.9843Y-3.5827
X6.0138Y-4.0354
X6.0138Y-4.0945
X6.0138Y-4.1535
X6.0138Y-4.2028
X6.0335Y-3.5925
X6.0531Y-3.435
X6.1024Y-3.435
X6.3681Y-3.4055
X6.5157Y-4.0551
X6.5453Y-3.4843
X6.5453Y-3.5433
X6.565Y-4.0256
X6.6142Y-3.4843
X6.6142Y-3.5433
X6.624Y-4.3701
X6.6339Y-3.8287
X6.6634Y-4.0551
X6.6634Y-4.1339
X6.6634Y-4.2126
X6.6831Y-3.4843
X6.6831Y-3.5433
X6.7421Y-4.0551
X6.7421Y-4.1339
X6.7421Y-4.2126
X6.8209Y-4.0551
X6.8209Y-4.1339
X6.8209Y-4.2126
X6.8504Y-3.8287
X7.0768Y-3.8287
X7.0768Y-3.8287
X7.1752Y-4.0453
X7.3228Y-3.8287
T2
X4.8524Y-3.2283
X4.9508Y-3.2283
X5.0492Y-3.2283
X5.1476Y-3.2283
X5.4232Y-3.2283
X5.5217Y-3.2283
X5.6201Y-3.2283
X5.7185Y-3.2283
T3
X6.1514Y-3.775
X6.1514Y-3.875
X6.1514Y-3.975
X6.1514Y-4.075
X6.1514Y-4.175
X6.1514Y-4.275
X6.1514Y-4.375
X6.3514Y-3.725
X6.3514Y-3.825
X6.3514Y-3.925
X6.3514Y-4.025
X6.3514Y-4.125
X6.3514Y-4.225
X6.3514Y-4.325
X6.3514Y-4.425
X7.4213Y-2.815
X7.4213Y-2.9134
X7.4213Y-3.2283
X7.4213Y-3.3268
T4
X4.8169Y-1.9587
X4.8169Y-2.9587
X4.9169Y-1.9587
X4.9169Y-2.9587
X5.0169Y-1.9587
X5.0169Y-2.9587
X5.1169Y-1.9587
X5.1169Y-2.9587
X5.2169Y-1.9587
X5.2169Y-2.9587
X5.3169Y-1.9587
X5.3169Y-2.9587
X5.4169Y-1.9587
X5.4169Y-2.9587
X5.5169Y-1.9587
X5.5169Y-2.9587
X5.6169Y-1.9587
X5.6169Y-2.9587
X5.7169Y-1.9587
X5.7169Y-2.9587
X5.8169Y-1.9587
X5.8169Y-2.9587
X5.9169Y-1.9587
X5.9169Y-2.9587
X6.0169Y-1.9587
X6.0169Y-2.9587
X6.1169Y-1.9587
X6.1169Y-2.9587
X6.2169Y-1.9587
X6.2169Y-2.9587
X6.3169Y-1.9587
X6.3169Y-2.9587
X6.4169Y-1.9587
X6.4169Y-2.9587
X6.5169Y-1.9587
X6.5169Y-2.9587
X6.6169Y-1.9587
X6.6169Y-2.9587
T5
X8.4154Y-3.9075
X8.7795Y-3.9075
T0
M30
