M48
; DRILL file {KiCad 7.0.8} date Sat Mar 30 19:43:31 2024
; FORMAT={-:-/ absolute / inch / decimal}
; #@! TF.CreationDate,2024-03-30T19:43:31+07:00
; #@! TF.GenerationSoftware,Kicad,Pcbnew,7.0.8
; #@! TF.FileFunction,Plated,1,2,PTH
FMAT,2
INCH
; #@! TA.AperFunction,Plated,PTH,ViaDrill
T1C0.0197
; #@! TA.AperFunction,Plated,PTH,ComponentDrill
T2C0.0374
; #@! TA.AperFunction,Plated,PTH,ComponentDrill
T3C0.0394
; #@! TA.AperFunction,Plated,PTH,ComponentDrill
T4C0.0409
; #@! TA.AperFunction,Plated,PTH,ComponentDrill
T5C0.1181
%
G90
G05
T1
X5.8563Y-4.0354
X5.8563Y-4.0945
X5.8563Y-4.1535
X5.8563Y-4.2126
X5.9843Y-3.5827
X6.0138Y-4.0354
X6.0138Y-4.0945
X6.0138Y-4.1535
X6.0138Y-4.2028
X6.0335Y-3.5925
X6.0531Y-3.435
X6.1024Y-3.435
X6.3681Y-3.4055
X6.5157Y-4.0551
X6.5453Y-3.4843
X6.5453Y-3.5433
X6.565Y-4.0256
X6.6142Y-3.4843
X6.6142Y-3.5433
X6.624Y-4.3701
X6.6339Y-3.8287
X6.6634Y-4.0551
X6.6634Y-4.1339
X6.6634Y-4.2126
X6.6831Y-3.4843
X6.6831Y-3.5433
X6.7421Y-4.0551
X6.7421Y-4.1339
X6.7421Y-4.2126
X6.8209Y-4.0551
X6.8209Y-4.1339
X6.8209Y-4.2126
X6.8504Y-3.8287
X7.0768Y-3.8287
X7.0768Y-3.8287
X7.1752Y-4.0453
X7.3228Y-3.8287
T2
X4.8524Y-3.2283
X4.9508Y-3.2283
X5.0492Y-3.2283
X5.1476Y-3.2283
X5.4232Y-3.2283
X5.5217Y-3.2283
X5.6201Y-3.2283
X5.7185Y-3.2283
T3
X6.1514Y-3.775
X6.1514Y-3.875
X6.1514Y-3.975
X6.1514Y-4.075
X6.1514Y-4.175
X6.1514Y-4.275
X6.1514Y-4.375
X6.3514Y-3.725
X6.3514Y-3.825
X6.3514Y-3.925
X6.3514Y-4.025
X6.3514Y-4.125
X6.3514Y-4.225
X6.3514Y-4.325
X6.3514Y-4.425
X7.4213Y-2.815
X7.4213Y-2.9134
X7.4213Y-3.2283
X7.4213Y-3.3268
T4
X4.8535Y-1.9488
X4.8535Y-2.9488
X4.9535Y-1.9488
X4.9535Y-2.9488
X5.0535Y-1.9488
X5.0535Y-2.9488
X5.1535Y-1.9488
X5.1535Y-2.9488
X5.2535Y-1.9488
X5.2535Y-2.9488
X5.3535Y-1.9488
X5.3535Y-2.9488
X5.4535Y-1.9488
X5.4535Y-2.9488
X5.5535Y-1.9488
X5.5535Y-2.9488
X5.6535Y-1.9488
X5.6535Y-2.9488
X5.7535Y-1.9488
X5.7535Y-2.9488
X5.8535Y-1.9488
X5.8535Y-2.9488
X5.9535Y-1.9488
X5.9535Y-2.9488
X6.0535Y-1.9488
X6.0535Y-2.9488
X6.1535Y-1.9488
X6.1535Y-2.9488
X6.2535Y-1.9488
X6.2535Y-2.9488
X6.3535Y-1.9488
X6.3535Y-2.9488
X6.4535Y-1.9488
X6.4535Y-2.9488
X6.5535Y-1.9488
X6.5535Y-2.9488
X6.6535Y-1.9488
X6.6535Y-2.9488
T5
X8.189Y-4.1634
X8.189Y-4.498
T0
M30
