%TF.GenerationSoftware,KiCad,Pcbnew,7.0.8*%
%TF.CreationDate,2024-03-30T19:43:29+07:00*%
%TF.ProjectId,2wd_control_pcbway,3277645f-636f-46e7-9472-6f6c5f706362,rev?*%
%TF.SameCoordinates,Original*%
%TF.FileFunction,Soldermask,Bot*%
%TF.FilePolarity,Negative*%
%FSLAX46Y46*%
G04 Gerber Fmt 4.6, Leading zero omitted, Abs format (unit mm)*
G04 Created by KiCad (PCBNEW 7.0.8) date 2024-03-30 19:43:29*
%MOMM*%
%LPD*%
G01*
G04 APERTURE LIST*
G04 Aperture macros list*
%AMRoundRect*
0 Rectangle with rounded corners*
0 $1 Rounding radius*
0 $2 $3 $4 $5 $6 $7 $8 $9 X,Y pos of 4 corners*
0 Add a 4 corners polygon primitive as box body*
4,1,4,$2,$3,$4,$5,$6,$7,$8,$9,$2,$3,0*
0 Add four circle primitives for the rounded corners*
1,1,$1+$1,$2,$3*
1,1,$1+$1,$4,$5*
1,1,$1+$1,$6,$7*
1,1,$1+$1,$8,$9*
0 Add four rect primitives between the rounded corners*
20,1,$1+$1,$2,$3,$4,$5,0*
20,1,$1+$1,$4,$5,$6,$7,0*
20,1,$1+$1,$6,$7,$8,$9,0*
20,1,$1+$1,$8,$9,$2,$3,0*%
G04 Aperture macros list end*
%ADD10C,6.000000*%
%ADD11RoundRect,0.102000X0.780000X-0.780000X0.780000X0.780000X-0.780000X0.780000X-0.780000X-0.780000X0*%
%ADD12C,1.764000*%
%ADD13R,1.800000X1.800000*%
%ADD14O,1.800000X1.800000*%
%ADD15RoundRect,0.250000X-0.600000X-0.725000X0.600000X-0.725000X0.600000X0.725000X-0.600000X0.725000X0*%
%ADD16O,1.700000X1.950000*%
%ADD17RoundRect,0.250000X-0.750000X0.600000X-0.750000X-0.600000X0.750000X-0.600000X0.750000X0.600000X0*%
%ADD18O,2.000000X1.700000*%
G04 APERTURE END LIST*
D10*
%TO.C,12V1*%
X208000000Y-114250000D03*
%TD*%
D11*
%TO.C,U1*%
X123280000Y-74900000D03*
D12*
X125820000Y-74900000D03*
X128360000Y-74900000D03*
X130900000Y-74900000D03*
X133440000Y-74900000D03*
X135980000Y-74900000D03*
X138520000Y-74900000D03*
X141060000Y-74900000D03*
X143600000Y-74900000D03*
X146140000Y-74900000D03*
X148680000Y-74900000D03*
X151220000Y-74900000D03*
X153760000Y-74900000D03*
X156300000Y-74900000D03*
X158840000Y-74900000D03*
X161380000Y-74900000D03*
X163920000Y-74900000D03*
X166460000Y-74900000D03*
X169000000Y-74900000D03*
X123280000Y-49500000D03*
X125820000Y-49500000D03*
X128360000Y-49500000D03*
X130900000Y-49500000D03*
X133440000Y-49500000D03*
X135980000Y-49500000D03*
X138520000Y-49500000D03*
X141060000Y-49500000D03*
X143600000Y-49500000D03*
X146140000Y-49500000D03*
X148680000Y-49500000D03*
X151220000Y-49500000D03*
X153760000Y-49500000D03*
X156300000Y-49500000D03*
X158840000Y-49500000D03*
X161380000Y-49500000D03*
X163920000Y-49500000D03*
X166460000Y-49500000D03*
X169000000Y-49500000D03*
%TD*%
D13*
%TO.C,U2*%
X161325000Y-112395000D03*
D14*
X156245000Y-111125000D03*
X161325000Y-109855000D03*
X156245000Y-108585000D03*
X161325000Y-107315000D03*
X156245000Y-106045000D03*
X161325000Y-104775000D03*
X156245000Y-103505000D03*
X161325000Y-102235000D03*
X156245000Y-100965000D03*
X161325000Y-99695000D03*
X156245000Y-98425000D03*
X161325000Y-97155000D03*
X156245000Y-95885000D03*
X161325000Y-94615000D03*
%TD*%
D15*
%TO.C,Encoder0*%
X123250000Y-82000000D03*
D16*
X125750000Y-82000000D03*
X128250000Y-82000000D03*
X130750000Y-82000000D03*
%TD*%
D10*
%TO.C,GND1*%
X208000000Y-105750000D03*
%TD*%
D15*
%TO.C,Encoder1*%
X137750000Y-82000000D03*
D16*
X140250000Y-82000000D03*
X142750000Y-82000000D03*
X145250000Y-82000000D03*
%TD*%
D17*
%TO.C,MotorA1*%
X188500000Y-71500000D03*
D18*
X188500000Y-74000000D03*
%TD*%
D17*
%TO.C,MotorB1*%
X188500000Y-82000000D03*
D18*
X188500000Y-84500000D03*
%TD*%
M02*
