%TF.GenerationSoftware,KiCad,Pcbnew,7.0.8*%
%TF.CreationDate,2024-03-30T19:43:29+07:00*%
%TF.ProjectId,2wd_control_pcbway,3277645f-636f-46e7-9472-6f6c5f706362,rev?*%
%TF.SameCoordinates,Original*%
%TF.FileFunction,Copper,L2,Bot*%
%TF.FilePolarity,Positive*%
%FSLAX46Y46*%
G04 Gerber Fmt 4.6, Leading zero omitted, Abs format (unit mm)*
G04 Created by KiCad (PCBNEW 7.0.8) date 2024-03-30 19:43:29*
%MOMM*%
%LPD*%
G01*
G04 APERTURE LIST*
G04 Aperture macros list*
%AMRoundRect*
0 Rectangle with rounded corners*
0 $1 Rounding radius*
0 $2 $3 $4 $5 $6 $7 $8 $9 X,Y pos of 4 corners*
0 Add a 4 corners polygon primitive as box body*
4,1,4,$2,$3,$4,$5,$6,$7,$8,$9,$2,$3,0*
0 Add four circle primitives for the rounded corners*
1,1,$1+$1,$2,$3*
1,1,$1+$1,$4,$5*
1,1,$1+$1,$6,$7*
1,1,$1+$1,$8,$9*
0 Add four rect primitives between the rounded corners*
20,1,$1+$1,$2,$3,$4,$5,0*
20,1,$1+$1,$4,$5,$6,$7,0*
20,1,$1+$1,$6,$7,$8,$9,0*
20,1,$1+$1,$8,$9,$2,$3,0*%
G04 Aperture macros list end*
%TA.AperFunction,ComponentPad*%
%ADD10C,6.000000*%
%TD*%
%TA.AperFunction,ComponentPad*%
%ADD11R,1.560000X1.560000*%
%TD*%
%TA.AperFunction,ComponentPad*%
%ADD12C,1.560000*%
%TD*%
%TA.AperFunction,ComponentPad*%
%ADD13R,1.800000X1.800000*%
%TD*%
%TA.AperFunction,ComponentPad*%
%ADD14O,1.800000X1.800000*%
%TD*%
%TA.AperFunction,ComponentPad*%
%ADD15RoundRect,0.250000X-0.600000X-0.725000X0.600000X-0.725000X0.600000X0.725000X-0.600000X0.725000X0*%
%TD*%
%TA.AperFunction,ComponentPad*%
%ADD16O,1.700000X1.950000*%
%TD*%
%TA.AperFunction,ComponentPad*%
%ADD17RoundRect,0.250000X-0.750000X0.600000X-0.750000X-0.600000X0.750000X-0.600000X0.750000X0.600000X0*%
%TD*%
%TA.AperFunction,ComponentPad*%
%ADD18O,2.000000X1.700000*%
%TD*%
%TA.AperFunction,ViaPad*%
%ADD19C,1.000000*%
%TD*%
%TA.AperFunction,Conductor*%
%ADD20C,0.500000*%
%TD*%
%TA.AperFunction,Conductor*%
%ADD21C,0.800000*%
%TD*%
G04 APERTURE END LIST*
D10*
%TO.P,12V1,1,Pin_1*%
%TO.N,Net-(12V1-Pin_1)*%
X208000000Y-114250000D03*
%TD*%
D11*
%TO.P,U1,J2-1,3V3*%
%TO.N,unconnected-(U1-3V3-PadJ2-1)*%
X123280000Y-74900000D03*
D12*
%TO.P,U1,J2-2,EN*%
%TO.N,unconnected-(U1-EN-PadJ2-2)*%
X125820000Y-74900000D03*
%TO.P,U1,J2-3,SENSOR_VP*%
%TO.N,unconnected-(U1-SENSOR_VP-PadJ2-3)*%
X128360000Y-74900000D03*
%TO.P,U1,J2-4,SENSOR_VN*%
%TO.N,unconnected-(U1-SENSOR_VN-PadJ2-4)*%
X130900000Y-74900000D03*
%TO.P,U1,J2-5,IO34*%
%TO.N,ENCOD_0_A*%
X133440000Y-74900000D03*
%TO.P,U1,J2-6,IO35*%
%TO.N,ENCOD_0_B*%
X135980000Y-74900000D03*
%TO.P,U1,J2-7,IO32*%
%TO.N,ENCOD_1_A*%
X138520000Y-74900000D03*
%TO.P,U1,J2-8,IO33*%
%TO.N,ENCOD_1_B*%
X141060000Y-74900000D03*
%TO.P,U1,J2-9,IO25*%
%TO.N,IN 1*%
X143600000Y-74900000D03*
%TO.P,U1,J2-10,IO26*%
%TO.N,IN 2*%
X146140000Y-74900000D03*
%TO.P,U1,J2-11,IO27*%
%TO.N,IN 3*%
X148680000Y-74900000D03*
%TO.P,U1,J2-12,IO14*%
%TO.N,IN 4*%
X151220000Y-74900000D03*
%TO.P,U1,J2-13,IO12*%
%TO.N,unconnected-(U1-IO12-PadJ2-13)*%
X153760000Y-74900000D03*
%TO.P,U1,J2-14,GND1*%
%TO.N,GND*%
X156300000Y-74900000D03*
%TO.P,U1,J2-15,IO13*%
%TO.N,unconnected-(U1-IO13-PadJ2-15)*%
X158840000Y-74900000D03*
%TO.P,U1,J2-16,SD2*%
%TO.N,unconnected-(U1-SD2-PadJ2-16)*%
X161380000Y-74900000D03*
%TO.P,U1,J2-17,SD3*%
%TO.N,unconnected-(U1-SD3-PadJ2-17)*%
X163920000Y-74900000D03*
%TO.P,U1,J2-18,CMD*%
%TO.N,unconnected-(U1-CMD-PadJ2-18)*%
X166460000Y-74900000D03*
%TO.P,U1,J2-19,EXT_5V*%
%TO.N,EN*%
X169000000Y-74900000D03*
%TO.P,U1,J3-1,GND3*%
%TO.N,GND*%
X123280000Y-49500000D03*
%TO.P,U1,J3-2,IO23*%
%TO.N,unconnected-(U1-IO23-PadJ3-2)*%
X125820000Y-49500000D03*
%TO.P,U1,J3-3,IO22*%
%TO.N,unconnected-(U1-IO22-PadJ3-3)*%
X128360000Y-49500000D03*
%TO.P,U1,J3-4,TXD0*%
%TO.N,unconnected-(U1-TXD0-PadJ3-4)*%
X130900000Y-49500000D03*
%TO.P,U1,J3-5,RXD0*%
%TO.N,unconnected-(U1-RXD0-PadJ3-5)*%
X133440000Y-49500000D03*
%TO.P,U1,J3-6,IO21*%
%TO.N,unconnected-(U1-IO21-PadJ3-6)*%
X135980000Y-49500000D03*
%TO.P,U1,J3-7,GND2*%
%TO.N,GND*%
X138520000Y-49500000D03*
%TO.P,U1,J3-8,IO19*%
%TO.N,unconnected-(U1-IO19-PadJ3-8)*%
X141060000Y-49500000D03*
%TO.P,U1,J3-9,IO18*%
%TO.N,unconnected-(U1-IO18-PadJ3-9)*%
X143600000Y-49500000D03*
%TO.P,U1,J3-10,IO5*%
%TO.N,unconnected-(U1-IO5-PadJ3-10)*%
X146140000Y-49500000D03*
%TO.P,U1,J3-11,IO17*%
%TO.N,unconnected-(U1-IO17-PadJ3-11)*%
X148680000Y-49500000D03*
%TO.P,U1,J3-12,IO16*%
%TO.N,unconnected-(U1-IO16-PadJ3-12)*%
X151220000Y-49500000D03*
%TO.P,U1,J3-13,IO4*%
%TO.N,unconnected-(U1-IO4-PadJ3-13)*%
X153760000Y-49500000D03*
%TO.P,U1,J3-14,IO0*%
%TO.N,unconnected-(U1-IO0-PadJ3-14)*%
X156300000Y-49500000D03*
%TO.P,U1,J3-15,IO2*%
%TO.N,unconnected-(U1-IO2-PadJ3-15)*%
X158840000Y-49500000D03*
%TO.P,U1,J3-16,IO15*%
%TO.N,unconnected-(U1-IO15-PadJ3-16)*%
X161380000Y-49500000D03*
%TO.P,U1,J3-17,SD1*%
%TO.N,unconnected-(U1-SD1-PadJ3-17)*%
X163920000Y-49500000D03*
%TO.P,U1,J3-18,SD0*%
%TO.N,unconnected-(U1-SD0-PadJ3-18)*%
X166460000Y-49500000D03*
%TO.P,U1,J3-19,CLK*%
%TO.N,unconnected-(U1-CLK-PadJ3-19)*%
X169000000Y-49500000D03*
%TD*%
D13*
%TO.P,U2,1,SENSE_A*%
%TO.N,GND*%
X161325000Y-112395000D03*
D14*
%TO.P,U2,2,OUT1*%
%TO.N,Net-(D2-A)*%
X156245000Y-111125000D03*
%TO.P,U2,3,OUT2*%
%TO.N,Net-(D3-A)*%
X161325000Y-109855000D03*
%TO.P,U2,4,Vs*%
%TO.N,+12V*%
X156245000Y-108585000D03*
%TO.P,U2,5,IN1*%
%TO.N,IN 1*%
X161325000Y-107315000D03*
%TO.P,U2,6,EnA*%
%TO.N,EN*%
X156245000Y-106045000D03*
%TO.P,U2,7,IN2*%
%TO.N,IN 2*%
X161325000Y-104775000D03*
%TO.P,U2,8,GND*%
%TO.N,GND*%
X156245000Y-103505000D03*
%TO.P,U2,9,Vss*%
%TO.N,EN*%
X161325000Y-102235000D03*
%TO.P,U2,10,IN3*%
%TO.N,IN 3*%
X156245000Y-100965000D03*
%TO.P,U2,11,EnB*%
%TO.N,EN*%
X161325000Y-99695000D03*
%TO.P,U2,12,IN4*%
%TO.N,IN 4*%
X156245000Y-98425000D03*
%TO.P,U2,13,OUT3*%
%TO.N,Net-(D4-A)*%
X161325000Y-97155000D03*
%TO.P,U2,14,OUT4*%
%TO.N,Net-(D5-A)*%
X156245000Y-95885000D03*
%TO.P,U2,15,SENSE_B*%
%TO.N,GND*%
X161325000Y-94615000D03*
%TD*%
D15*
%TO.P,Encoder0,1,Pin_1*%
%TO.N,EN*%
X123250000Y-82000000D03*
D16*
%TO.P,Encoder0,2,Pin_2*%
%TO.N,GND*%
X125750000Y-82000000D03*
%TO.P,Encoder0,3,Pin_3*%
%TO.N,ENCOD_0_A*%
X128250000Y-82000000D03*
%TO.P,Encoder0,4,Pin_4*%
%TO.N,ENCOD_0_B*%
X130750000Y-82000000D03*
%TD*%
D10*
%TO.P,GND1,1,Pin_1*%
%TO.N,GND*%
X208000000Y-105750000D03*
%TD*%
D15*
%TO.P,Encoder1,1,Pin_1*%
%TO.N,EN*%
X137750000Y-82000000D03*
D16*
%TO.P,Encoder1,2,Pin_2*%
%TO.N,GND*%
X140250000Y-82000000D03*
%TO.P,Encoder1,3,Pin_3*%
%TO.N,ENCOD_1_A*%
X142750000Y-82000000D03*
%TO.P,Encoder1,4,Pin_4*%
%TO.N,ENCOD_1_B*%
X145250000Y-82000000D03*
%TD*%
D17*
%TO.P,MotorA1,1,Pin_1*%
%TO.N,Net-(D2-A)*%
X188500000Y-71500000D03*
D18*
%TO.P,MotorA1,2,Pin_2*%
%TO.N,Net-(D3-A)*%
X188500000Y-74000000D03*
%TD*%
D17*
%TO.P,MotorB1,1,Pin_1*%
%TO.N,Net-(D4-A)*%
X188500000Y-82000000D03*
D18*
%TO.P,MotorB1,2,Pin_2*%
%TO.N,Net-(D5-A)*%
X188500000Y-84500000D03*
%TD*%
D19*
%TO.N,GND*%
X152750000Y-105500000D03*
X152750000Y-102500000D03*
X169250000Y-107000000D03*
X171250000Y-107000000D03*
X168000000Y-90000000D03*
X169250000Y-105000000D03*
X173250000Y-105000000D03*
X152750000Y-104000000D03*
X169750000Y-88500000D03*
X148750000Y-107000000D03*
X173250000Y-107000000D03*
X171250000Y-105000000D03*
X169250000Y-103000000D03*
X148750000Y-102500000D03*
X148750000Y-104000000D03*
X166250000Y-88500000D03*
X168000000Y-88500000D03*
X182250000Y-102750000D03*
X169750000Y-90000000D03*
X152750000Y-106750000D03*
X171250000Y-103000000D03*
X173250000Y-103000000D03*
X148750000Y-105500000D03*
X166250000Y-90000000D03*
%TO.N,Net-(D2-A)*%
X168500000Y-97250000D03*
%TO.N,Net-(D3-A)*%
X168250000Y-111000000D03*
X174000000Y-97250000D03*
%TO.N,Net-(D4-A)*%
X179750000Y-97250000D03*
X165500000Y-103000000D03*
X179750000Y-97250000D03*
%TO.N,Net-(D5-A)*%
X166750000Y-102250000D03*
X186000000Y-97250000D03*
X161750000Y-86500000D03*
%TO.N,IN 3*%
X153750000Y-87250000D03*
X152000000Y-91000000D03*
%TO.N,IN 4*%
X155000000Y-87250000D03*
X153250000Y-91250000D03*
%TD*%
D20*
%TO.N,GND*%
X182250000Y-102750000D02*
X182750000Y-102750000D01*
D21*
%TO.N,EN*%
X118750000Y-79000000D02*
X118750000Y-72500000D01*
X120500000Y-70750000D02*
X167180000Y-70750000D01*
X121750000Y-82000000D02*
X118750000Y-79000000D01*
X118750000Y-72500000D02*
X120500000Y-70750000D01*
X169000000Y-72570000D02*
X169000000Y-75150000D01*
X167180000Y-70750000D02*
X169000000Y-72570000D01*
X123250000Y-82000000D02*
X121750000Y-82000000D01*
D20*
%TO.N,Net-(D2-A)*%
X191250000Y-71500000D02*
X188500000Y-71500000D01*
X187750000Y-100750000D02*
X191500000Y-97000000D01*
X193250000Y-86500000D02*
X193250000Y-73500000D01*
X191500000Y-97000000D02*
X191500000Y-88250000D01*
X193250000Y-73500000D02*
X191250000Y-71500000D01*
X191500000Y-88250000D02*
X193250000Y-86500000D01*
X172000000Y-100750000D02*
X187750000Y-100750000D01*
X168500000Y-97250000D02*
X172000000Y-100750000D01*
%TO.N,Net-(D3-A)*%
X174000000Y-97250000D02*
X176500000Y-99750000D01*
X163855000Y-109855000D02*
X161325000Y-109855000D01*
X168250000Y-111000000D02*
X165000000Y-111000000D01*
X190250000Y-74000000D02*
X188500000Y-74000000D01*
X190500000Y-88000000D02*
X192250000Y-86250000D01*
X187500000Y-99750000D02*
X190500000Y-96750000D01*
X176500000Y-99750000D02*
X187500000Y-99750000D01*
X192250000Y-86250000D02*
X192250000Y-76000000D01*
X192250000Y-76000000D02*
X190250000Y-74000000D01*
X165000000Y-111000000D02*
X163855000Y-109855000D01*
X190500000Y-96750000D02*
X190500000Y-88000000D01*
%TO.N,Net-(D4-A)*%
X163250000Y-98000000D02*
X162405000Y-97155000D01*
X165500000Y-103000000D02*
X163250000Y-100750000D01*
X187250000Y-98750000D02*
X189500000Y-96500000D01*
X189500000Y-96500000D02*
X189500000Y-87750000D01*
X191250000Y-83250000D02*
X190000000Y-82000000D01*
X190000000Y-82000000D02*
X188500000Y-82000000D01*
X162405000Y-97155000D02*
X161325000Y-97155000D01*
X181250000Y-98750000D02*
X187250000Y-98750000D01*
X189500000Y-87750000D02*
X191250000Y-86000000D01*
X163250000Y-100750000D02*
X163250000Y-98000000D01*
X179750000Y-97250000D02*
X181250000Y-98750000D01*
X191250000Y-86000000D02*
X191250000Y-83250000D01*
%TO.N,Net-(D5-A)*%
X186000000Y-97250000D02*
X187250000Y-97250000D01*
X164250000Y-99750000D02*
X166750000Y-102250000D01*
X163750000Y-88500000D02*
X163750000Y-92750000D01*
X164250000Y-93250000D02*
X164250000Y-99750000D01*
X161750000Y-86500000D02*
X163750000Y-88500000D01*
X187250000Y-97250000D02*
X188500000Y-96000000D01*
X163750000Y-92750000D02*
X164250000Y-93250000D01*
X188500000Y-96000000D02*
X188500000Y-84500000D01*
%TO.N,ENCOD_0_A*%
X128250000Y-82000000D02*
X128250000Y-79500000D01*
X128250000Y-79500000D02*
X129750000Y-78000000D01*
X131500000Y-78000000D02*
X133440000Y-76060000D01*
X133440000Y-76060000D02*
X133440000Y-74900000D01*
X129750000Y-78000000D02*
X131500000Y-78000000D01*
%TO.N,ENCOD_0_B*%
X131750000Y-79000000D02*
X132750000Y-79000000D01*
X130750000Y-82000000D02*
X130750000Y-80000000D01*
X132750000Y-79000000D02*
X136000000Y-75750000D01*
X130750000Y-80000000D02*
X131750000Y-79000000D01*
X136000000Y-75750000D02*
X136000000Y-74920000D01*
X136000000Y-74920000D02*
X135980000Y-74900000D01*
%TO.N,ENCOD_1_A*%
X138500000Y-76250000D02*
X138500000Y-74920000D01*
X142750000Y-82000000D02*
X142750000Y-80500000D01*
X138500000Y-74920000D02*
X138520000Y-74900000D01*
X142750000Y-80500000D02*
X138500000Y-76250000D01*
%TO.N,ENCOD_1_B*%
X145250000Y-80750000D02*
X145250000Y-82000000D01*
X141060000Y-74900000D02*
X141060000Y-76560000D01*
X141060000Y-76560000D02*
X145250000Y-80750000D01*
%TO.N,IN 1*%
X150750000Y-111750000D02*
X153750000Y-114750000D01*
X158750000Y-113750000D02*
X158750000Y-108750000D01*
X158750000Y-108750000D02*
X160185000Y-107315000D01*
X157750000Y-114750000D02*
X158750000Y-113750000D01*
X153750000Y-114750000D02*
X157750000Y-114750000D01*
X160185000Y-107315000D02*
X161325000Y-107315000D01*
X150750000Y-83250000D02*
X150750000Y-111750000D01*
X143600000Y-76100000D02*
X150750000Y-83250000D01*
X143600000Y-74900000D02*
X143600000Y-76100000D01*
%TO.N,IN 2*%
X146140000Y-76890000D02*
X152000000Y-82750000D01*
X152000000Y-88500000D02*
X153250000Y-89750000D01*
X152000000Y-82750000D02*
X152000000Y-88500000D01*
X159000000Y-91750000D02*
X159000000Y-103750000D01*
X146140000Y-74900000D02*
X146140000Y-76890000D01*
X159000000Y-103750000D02*
X160025000Y-104775000D01*
X160025000Y-104775000D02*
X161325000Y-104775000D01*
X157000000Y-89750000D02*
X159000000Y-91750000D01*
X153250000Y-89750000D02*
X157000000Y-89750000D01*
%TO.N,IN 3*%
X148680000Y-77680000D02*
X153750000Y-82750000D01*
X153750000Y-82750000D02*
X153750000Y-87250000D01*
X152000000Y-91000000D02*
X152000000Y-99250000D01*
X152000000Y-99250000D02*
X153715000Y-100965000D01*
X148680000Y-74900000D02*
X148680000Y-77680000D01*
X153715000Y-100965000D02*
X156245000Y-100965000D01*
%TO.N,IN 4*%
X151250000Y-78000000D02*
X155000000Y-81750000D01*
X153250000Y-91250000D02*
X153250000Y-97250000D01*
X151250000Y-74930000D02*
X151250000Y-78000000D01*
X155000000Y-81750000D02*
X155000000Y-87250000D01*
X154425000Y-98425000D02*
X156245000Y-98425000D01*
X151220000Y-74900000D02*
X151250000Y-74930000D01*
X153250000Y-97250000D02*
X154425000Y-98425000D01*
%TD*%
%TA.AperFunction,Conductor*%
%TO.N,EN*%
G36*
X124250676Y-80519685D02*
G01*
X124286811Y-80555217D01*
X124600075Y-81025113D01*
X124620883Y-81091812D01*
X124602328Y-81159173D01*
X124598478Y-81165017D01*
X124575966Y-81197169D01*
X124476097Y-81411335D01*
X124476094Y-81411344D01*
X124414938Y-81639586D01*
X124414936Y-81639596D01*
X124399500Y-81816034D01*
X124399500Y-82183966D01*
X124414936Y-82360403D01*
X124414938Y-82360413D01*
X124476094Y-82588655D01*
X124476096Y-82588659D01*
X124476097Y-82588663D01*
X124500000Y-82639922D01*
X124575964Y-82802828D01*
X124575965Y-82802830D01*
X124711505Y-82996402D01*
X124878596Y-83163493D01*
X124878599Y-83163495D01*
X124986115Y-83238778D01*
X125002670Y-83252670D01*
X125500000Y-83750000D01*
X135000000Y-83750000D01*
X135750000Y-83000000D01*
X135750000Y-81287544D01*
X135769685Y-81220505D01*
X135770826Y-81218761D01*
X136213189Y-80555217D01*
X136266754Y-80510356D01*
X136316363Y-80500000D01*
X138683637Y-80500000D01*
X138750676Y-80519685D01*
X138786811Y-80555217D01*
X139100075Y-81025113D01*
X139120883Y-81091812D01*
X139102328Y-81159173D01*
X139098478Y-81165017D01*
X139075966Y-81197169D01*
X138976097Y-81411335D01*
X138976094Y-81411344D01*
X138914938Y-81639586D01*
X138914936Y-81639596D01*
X138899500Y-81816034D01*
X138899500Y-82183966D01*
X138914936Y-82360403D01*
X138914938Y-82360413D01*
X138976094Y-82588655D01*
X138976096Y-82588659D01*
X138976097Y-82588663D01*
X139000000Y-82639922D01*
X139075964Y-82802828D01*
X139075965Y-82802830D01*
X139161787Y-82925396D01*
X139211505Y-82996401D01*
X139213675Y-82998571D01*
X139214328Y-82999767D01*
X139214986Y-83000551D01*
X139214828Y-83000683D01*
X139247164Y-83059890D01*
X139250000Y-83086258D01*
X139250000Y-84962456D01*
X139230315Y-85029495D01*
X139229174Y-85031239D01*
X138786811Y-85694783D01*
X138733246Y-85739644D01*
X138683637Y-85750000D01*
X122066363Y-85750000D01*
X121999324Y-85730315D01*
X121963189Y-85694783D01*
X121520826Y-85031239D01*
X121500018Y-84964540D01*
X121500000Y-84962456D01*
X121500000Y-81287544D01*
X121519685Y-81220505D01*
X121520826Y-81218761D01*
X121963189Y-80555217D01*
X122016754Y-80510356D01*
X122066363Y-80500000D01*
X124183637Y-80500000D01*
X124250676Y-80519685D01*
G37*
%TD.AperFunction*%
%TD*%
%TA.AperFunction,Conductor*%
%TO.N,GND*%
G36*
X156704809Y-90520185D02*
G01*
X156725451Y-90536819D01*
X158213181Y-92024548D01*
X158246666Y-92085871D01*
X158249500Y-92112229D01*
X158249500Y-103686294D01*
X158248191Y-103704263D01*
X158244710Y-103728025D01*
X158249264Y-103780064D01*
X158249500Y-103785470D01*
X158249500Y-103793709D01*
X158253306Y-103826274D01*
X158260000Y-103902791D01*
X158261461Y-103909867D01*
X158261403Y-103909878D01*
X158263034Y-103917237D01*
X158263092Y-103917224D01*
X158264757Y-103924250D01*
X158291025Y-103996424D01*
X158315185Y-104069331D01*
X158318236Y-104075874D01*
X158318182Y-104075898D01*
X158321470Y-104082688D01*
X158321521Y-104082663D01*
X158324761Y-104089113D01*
X158324762Y-104089114D01*
X158324763Y-104089117D01*
X158366965Y-104153283D01*
X158407287Y-104218655D01*
X158411766Y-104224319D01*
X158411719Y-104224356D01*
X158416482Y-104230202D01*
X158416528Y-104230164D01*
X158421173Y-104235700D01*
X158477017Y-104288385D01*
X159449270Y-105260638D01*
X159461051Y-105274270D01*
X159475388Y-105293528D01*
X159515409Y-105327111D01*
X159519397Y-105330766D01*
X159525216Y-105336585D01*
X159525220Y-105336588D01*
X159525223Y-105336591D01*
X159550959Y-105356940D01*
X159609786Y-105406302D01*
X159609787Y-105406302D01*
X159609789Y-105406304D01*
X159615818Y-105410270D01*
X159615785Y-105410319D01*
X159622147Y-105414372D01*
X159622179Y-105414321D01*
X159628319Y-105418108D01*
X159628323Y-105418111D01*
X159663132Y-105434343D01*
X159697941Y-105450575D01*
X159766565Y-105485039D01*
X159766567Y-105485040D01*
X159766569Y-105485040D01*
X159773357Y-105487511D01*
X159773336Y-105487567D01*
X159780457Y-105490043D01*
X159780476Y-105489986D01*
X159787322Y-105492254D01*
X159787327Y-105492257D01*
X159787332Y-105492258D01*
X159787335Y-105492259D01*
X159862565Y-105507792D01*
X159937279Y-105525500D01*
X159937282Y-105525500D01*
X159937286Y-105525501D01*
X159944453Y-105526339D01*
X159944446Y-105526398D01*
X159951944Y-105527164D01*
X159951950Y-105527105D01*
X159959139Y-105527734D01*
X159959143Y-105527733D01*
X159959144Y-105527734D01*
X160035917Y-105525500D01*
X160075315Y-105525500D01*
X160142354Y-105545185D01*
X160179123Y-105581678D01*
X160216015Y-105638145D01*
X160216017Y-105638147D01*
X160216021Y-105638153D01*
X160373216Y-105808913D01*
X160373219Y-105808915D01*
X160373222Y-105808918D01*
X160550818Y-105947147D01*
X160591631Y-106003857D01*
X160595306Y-106073630D01*
X160560674Y-106134313D01*
X160550818Y-106142853D01*
X160373222Y-106281081D01*
X160373219Y-106281084D01*
X160373216Y-106281086D01*
X160373216Y-106281087D01*
X160217839Y-106449873D01*
X160216015Y-106451854D01*
X160174788Y-106514957D01*
X160121642Y-106560314D01*
X160081788Y-106570663D01*
X160032200Y-106575001D01*
X160025133Y-106576461D01*
X160025121Y-106576404D01*
X160017752Y-106578038D01*
X160017766Y-106578095D01*
X160010741Y-106579759D01*
X159938556Y-106606033D01*
X159865670Y-106630185D01*
X159865667Y-106630186D01*
X159865665Y-106630187D01*
X159865662Y-106630188D01*
X159859128Y-106633236D01*
X159859102Y-106633182D01*
X159852306Y-106636472D01*
X159852332Y-106636524D01*
X159845884Y-106639762D01*
X159781699Y-106681977D01*
X159716350Y-106722284D01*
X159710682Y-106726766D01*
X159710646Y-106726720D01*
X159704798Y-106731484D01*
X159704835Y-106731528D01*
X159699310Y-106736164D01*
X159646598Y-106792034D01*
X158264358Y-108174272D01*
X158250729Y-108186051D01*
X158231468Y-108200390D01*
X158197898Y-108240397D01*
X158194253Y-108244376D01*
X158188409Y-108250222D01*
X158168059Y-108275959D01*
X158118695Y-108334789D01*
X158114729Y-108340819D01*
X158114682Y-108340788D01*
X158110630Y-108347147D01*
X158110679Y-108347177D01*
X158106889Y-108353321D01*
X158074424Y-108422941D01*
X158039960Y-108491566D01*
X158037488Y-108498357D01*
X158037432Y-108498336D01*
X158034960Y-108505450D01*
X158035015Y-108505469D01*
X158032742Y-108512327D01*
X158024975Y-108549946D01*
X158017207Y-108587565D01*
X158011030Y-108613629D01*
X157999498Y-108662286D01*
X157998661Y-108669454D01*
X157998601Y-108669447D01*
X157997835Y-108676945D01*
X157997895Y-108676951D01*
X157997265Y-108684140D01*
X157999500Y-108760916D01*
X157999500Y-113387770D01*
X157979815Y-113454809D01*
X157963181Y-113475451D01*
X157475451Y-113963181D01*
X157414128Y-113996666D01*
X157387770Y-113999500D01*
X154112229Y-113999500D01*
X154045190Y-113979815D01*
X154024548Y-113963181D01*
X151536819Y-111475451D01*
X151503334Y-111414128D01*
X151500500Y-111387770D01*
X151500500Y-111125006D01*
X154839700Y-111125006D01*
X154858864Y-111356297D01*
X154858866Y-111356308D01*
X154915842Y-111581300D01*
X155009075Y-111793848D01*
X155136016Y-111988147D01*
X155136019Y-111988151D01*
X155136021Y-111988153D01*
X155293216Y-112158913D01*
X155293219Y-112158915D01*
X155293222Y-112158918D01*
X155476365Y-112301464D01*
X155476371Y-112301468D01*
X155476374Y-112301470D01*
X155680497Y-112411936D01*
X155794487Y-112451068D01*
X155900015Y-112487297D01*
X155900017Y-112487297D01*
X155900019Y-112487298D01*
X156128951Y-112525500D01*
X156128952Y-112525500D01*
X156361048Y-112525500D01*
X156361049Y-112525500D01*
X156589981Y-112487298D01*
X156809503Y-112411936D01*
X157013626Y-112301470D01*
X157030437Y-112288386D01*
X157098133Y-112235696D01*
X157196784Y-112158913D01*
X157353979Y-111988153D01*
X157480924Y-111793849D01*
X157574157Y-111581300D01*
X157631134Y-111356305D01*
X157640337Y-111245244D01*
X157650300Y-111125006D01*
X157650300Y-111124993D01*
X157631135Y-110893702D01*
X157631133Y-110893691D01*
X157574157Y-110668699D01*
X157480924Y-110456151D01*
X157353983Y-110261852D01*
X157353980Y-110261849D01*
X157353979Y-110261847D01*
X157196784Y-110091087D01*
X157019180Y-109952853D01*
X156978368Y-109896143D01*
X156974693Y-109826370D01*
X157009324Y-109765687D01*
X157019181Y-109757146D01*
X157196784Y-109618913D01*
X157353979Y-109448153D01*
X157480924Y-109253849D01*
X157574157Y-109041300D01*
X157631134Y-108816305D01*
X157631135Y-108816297D01*
X157650300Y-108585006D01*
X157650300Y-108584993D01*
X157631135Y-108353702D01*
X157631133Y-108353691D01*
X157574157Y-108128699D01*
X157480924Y-107916151D01*
X157353983Y-107721852D01*
X157353980Y-107721849D01*
X157353979Y-107721847D01*
X157196784Y-107551087D01*
X157019180Y-107412853D01*
X156978368Y-107356143D01*
X156974693Y-107286370D01*
X157009324Y-107225687D01*
X157019181Y-107217146D01*
X157196784Y-107078913D01*
X157353979Y-106908153D01*
X157480924Y-106713849D01*
X157574157Y-106501300D01*
X157631134Y-106276305D01*
X157642192Y-106142853D01*
X157650300Y-106045006D01*
X157650300Y-106044993D01*
X157631135Y-105813702D01*
X157631133Y-105813691D01*
X157574157Y-105588699D01*
X157480924Y-105376151D01*
X157353983Y-105181852D01*
X157353980Y-105181849D01*
X157353979Y-105181847D01*
X157196784Y-105011087D01*
X157196779Y-105011083D01*
X157196777Y-105011081D01*
X157013634Y-104868535D01*
X157013628Y-104868531D01*
X156809504Y-104758064D01*
X156809495Y-104758061D01*
X156589984Y-104682702D01*
X156418282Y-104654050D01*
X156361049Y-104644500D01*
X156128951Y-104644500D01*
X156083164Y-104652140D01*
X155900015Y-104682702D01*
X155680504Y-104758061D01*
X155680495Y-104758064D01*
X155476371Y-104868531D01*
X155476365Y-104868535D01*
X155293222Y-105011081D01*
X155293219Y-105011084D01*
X155136016Y-105181852D01*
X155009075Y-105376151D01*
X154915842Y-105588699D01*
X154858866Y-105813691D01*
X154858864Y-105813702D01*
X154839700Y-106044993D01*
X154839700Y-106045006D01*
X154858864Y-106276297D01*
X154858866Y-106276308D01*
X154915842Y-106501300D01*
X155009075Y-106713848D01*
X155136016Y-106908147D01*
X155136019Y-106908151D01*
X155136021Y-106908153D01*
X155293216Y-107078913D01*
X155293219Y-107078915D01*
X155293222Y-107078918D01*
X155470818Y-107217147D01*
X155511631Y-107273857D01*
X155515306Y-107343630D01*
X155480674Y-107404313D01*
X155470818Y-107412853D01*
X155293222Y-107551081D01*
X155293219Y-107551084D01*
X155136016Y-107721852D01*
X155009075Y-107916151D01*
X154915842Y-108128699D01*
X154858866Y-108353691D01*
X154858864Y-108353702D01*
X154839700Y-108584993D01*
X154839700Y-108585006D01*
X154858864Y-108816297D01*
X154858866Y-108816308D01*
X154915842Y-109041300D01*
X155009075Y-109253848D01*
X155136016Y-109448147D01*
X155136019Y-109448151D01*
X155136021Y-109448153D01*
X155293216Y-109618913D01*
X155293219Y-109618915D01*
X155293222Y-109618918D01*
X155470818Y-109757147D01*
X155511631Y-109813857D01*
X155515306Y-109883630D01*
X155480674Y-109944313D01*
X155470818Y-109952853D01*
X155293222Y-110091081D01*
X155293219Y-110091084D01*
X155136016Y-110261852D01*
X155009075Y-110456151D01*
X154915842Y-110668699D01*
X154858866Y-110893691D01*
X154858864Y-110893702D01*
X154839700Y-111124993D01*
X154839700Y-111125006D01*
X151500500Y-111125006D01*
X151500500Y-100111229D01*
X151520185Y-100044190D01*
X151572989Y-99998435D01*
X151642147Y-99988491D01*
X151705703Y-100017516D01*
X151712181Y-100023548D01*
X153139267Y-101450634D01*
X153151048Y-101464266D01*
X153153274Y-101467256D01*
X153165390Y-101483530D01*
X153205420Y-101517119D01*
X153209392Y-101520759D01*
X153215223Y-101526590D01*
X153215222Y-101526590D01*
X153231065Y-101539116D01*
X153240944Y-101546927D01*
X153299786Y-101596302D01*
X153299794Y-101596306D01*
X153305824Y-101600273D01*
X153305790Y-101600323D01*
X153312137Y-101604366D01*
X153312169Y-101604316D01*
X153318318Y-101608108D01*
X153318320Y-101608109D01*
X153318323Y-101608111D01*
X153387930Y-101640569D01*
X153456567Y-101675040D01*
X153456576Y-101675042D01*
X153463355Y-101677510D01*
X153463334Y-101677567D01*
X153470451Y-101680040D01*
X153470470Y-101679984D01*
X153477330Y-101682257D01*
X153552532Y-101697784D01*
X153627279Y-101715500D01*
X153627288Y-101715500D01*
X153634452Y-101716338D01*
X153634445Y-101716397D01*
X153641946Y-101717163D01*
X153641952Y-101717104D01*
X153649140Y-101717733D01*
X153649143Y-101717732D01*
X153649144Y-101717733D01*
X153725898Y-101715500D01*
X154995315Y-101715500D01*
X155062354Y-101735185D01*
X155099123Y-101771678D01*
X155136015Y-101828145D01*
X155136017Y-101828147D01*
X155136021Y-101828153D01*
X155293216Y-101998913D01*
X155293219Y-101998915D01*
X155293222Y-101998918D01*
X155476365Y-102141464D01*
X155476371Y-102141468D01*
X155476374Y-102141470D01*
X155643860Y-102232109D01*
X155676919Y-102250000D01*
X155680497Y-102251936D01*
X155794487Y-102291068D01*
X155900015Y-102327297D01*
X155900017Y-102327297D01*
X155900019Y-102327298D01*
X156128951Y-102365500D01*
X156128952Y-102365500D01*
X156361048Y-102365500D01*
X156361049Y-102365500D01*
X156589981Y-102327298D01*
X156809503Y-102251936D01*
X157013626Y-102141470D01*
X157196784Y-101998913D01*
X157353979Y-101828153D01*
X157480924Y-101633849D01*
X157574157Y-101421300D01*
X157631134Y-101196305D01*
X157631135Y-101196297D01*
X157650300Y-100965006D01*
X157650300Y-100964993D01*
X157631135Y-100733702D01*
X157631133Y-100733691D01*
X157574157Y-100508699D01*
X157480924Y-100296151D01*
X157353983Y-100101852D01*
X157353980Y-100101849D01*
X157353979Y-100101847D01*
X157196784Y-99931087D01*
X157019180Y-99792853D01*
X156978368Y-99736143D01*
X156974693Y-99666370D01*
X157009324Y-99605687D01*
X157019181Y-99597146D01*
X157196784Y-99458913D01*
X157353979Y-99288153D01*
X157480924Y-99093849D01*
X157574157Y-98881300D01*
X157631134Y-98656305D01*
X157642192Y-98522853D01*
X157650300Y-98425006D01*
X157650300Y-98424993D01*
X157631135Y-98193702D01*
X157631133Y-98193691D01*
X157574157Y-97968699D01*
X157480924Y-97756151D01*
X157353983Y-97561852D01*
X157353980Y-97561849D01*
X157353979Y-97561847D01*
X157196784Y-97391087D01*
X157019180Y-97252853D01*
X156978368Y-97196143D01*
X156974693Y-97126370D01*
X157009324Y-97065687D01*
X157019181Y-97057146D01*
X157023389Y-97053871D01*
X157196784Y-96918913D01*
X157353979Y-96748153D01*
X157480924Y-96553849D01*
X157574157Y-96341300D01*
X157631134Y-96116305D01*
X157642550Y-95978531D01*
X157650300Y-95885006D01*
X157650300Y-95884993D01*
X157631135Y-95653702D01*
X157631133Y-95653691D01*
X157574157Y-95428699D01*
X157480924Y-95216151D01*
X157353983Y-95021852D01*
X157353980Y-95021849D01*
X157353979Y-95021847D01*
X157196784Y-94851087D01*
X157196779Y-94851083D01*
X157196777Y-94851081D01*
X157013634Y-94708535D01*
X157013628Y-94708531D01*
X156809504Y-94598064D01*
X156809495Y-94598061D01*
X156589984Y-94522702D01*
X156418282Y-94494050D01*
X156361049Y-94484500D01*
X156128951Y-94484500D01*
X156083164Y-94492140D01*
X155900015Y-94522702D01*
X155680504Y-94598061D01*
X155680495Y-94598064D01*
X155476371Y-94708531D01*
X155476365Y-94708535D01*
X155293222Y-94851081D01*
X155293219Y-94851084D01*
X155136016Y-95021852D01*
X155009075Y-95216151D01*
X154915842Y-95428699D01*
X154858866Y-95653691D01*
X154858864Y-95653702D01*
X154839700Y-95884993D01*
X154839700Y-95885006D01*
X154858864Y-96116297D01*
X154858866Y-96116308D01*
X154915842Y-96341300D01*
X155009075Y-96553848D01*
X155136016Y-96748147D01*
X155136019Y-96748151D01*
X155136021Y-96748153D01*
X155293216Y-96918913D01*
X155293219Y-96918915D01*
X155293222Y-96918918D01*
X155470818Y-97057147D01*
X155511631Y-97113857D01*
X155515306Y-97183630D01*
X155480674Y-97244313D01*
X155470818Y-97252853D01*
X155293222Y-97391081D01*
X155293219Y-97391084D01*
X155293216Y-97391086D01*
X155293216Y-97391087D01*
X155152877Y-97543537D01*
X155136015Y-97561854D01*
X155099123Y-97618322D01*
X155045977Y-97663678D01*
X154995315Y-97674500D01*
X154787229Y-97674500D01*
X154720190Y-97654815D01*
X154699548Y-97638181D01*
X154036819Y-96975451D01*
X154003334Y-96914128D01*
X154000500Y-96887770D01*
X154000500Y-91956976D01*
X154020185Y-91889937D01*
X154028632Y-91878329D01*
X154085910Y-91808538D01*
X154091675Y-91797752D01*
X154178811Y-91634733D01*
X154178811Y-91634732D01*
X154178814Y-91634727D01*
X154236024Y-91446132D01*
X154255341Y-91250000D01*
X154236024Y-91053868D01*
X154178814Y-90865273D01*
X154178811Y-90865269D01*
X154178811Y-90865266D01*
X154083039Y-90686089D01*
X154084647Y-90685229D01*
X154066321Y-90626729D01*
X154084797Y-90559347D01*
X154136770Y-90512650D01*
X154190301Y-90500500D01*
X156637770Y-90500500D01*
X156704809Y-90520185D01*
G37*
%TD.AperFunction*%
%TA.AperFunction,Conductor*%
G36*
X214192539Y-30520185D02*
G01*
X214238294Y-30572989D01*
X214249500Y-30624500D01*
X214249500Y-120375500D01*
X214229815Y-120442539D01*
X214177011Y-120488294D01*
X214125500Y-120499500D01*
X136792542Y-120499500D01*
X136725503Y-120479815D01*
X136716663Y-120473573D01*
X135572339Y-119588208D01*
X134501696Y-118713634D01*
X134417088Y-118644439D01*
X133552171Y-117898932D01*
X133281144Y-117664871D01*
X132514798Y-116968173D01*
X132171721Y-116655436D01*
X131466490Y-115979390D01*
X131089578Y-115616827D01*
X130950131Y-115475889D01*
X131749416Y-115475889D01*
X131749459Y-115500001D01*
X131749500Y-115500099D01*
X131749616Y-115500382D01*
X131749618Y-115500384D01*
X131749808Y-115500462D01*
X131750000Y-115500541D01*
X131750002Y-115500539D01*
X131774616Y-115500524D01*
X131774616Y-115500528D01*
X131774760Y-115500500D01*
X141725240Y-115500500D01*
X141725383Y-115500528D01*
X141725384Y-115500524D01*
X141749997Y-115500539D01*
X141750000Y-115500541D01*
X141750383Y-115500383D01*
X141750500Y-115500099D01*
X141750541Y-115500000D01*
X141750540Y-115499997D01*
X141750583Y-115475889D01*
X141750500Y-115475467D01*
X141750500Y-105524759D01*
X141750528Y-105524616D01*
X141750524Y-105524616D01*
X141750539Y-105500002D01*
X141750541Y-105500000D01*
X141750462Y-105499808D01*
X141750384Y-105499618D01*
X141750382Y-105499616D01*
X141750099Y-105499500D01*
X141750000Y-105499459D01*
X141725446Y-105499459D01*
X141725240Y-105499500D01*
X131774760Y-105499500D01*
X131774554Y-105499459D01*
X131750000Y-105499459D01*
X131749901Y-105499500D01*
X131749617Y-105499616D01*
X131749615Y-105499618D01*
X131749459Y-105499999D01*
X131749476Y-105524616D01*
X131749471Y-105524616D01*
X131749500Y-105524759D01*
X131749500Y-115475467D01*
X131749416Y-115475889D01*
X130950131Y-115475889D01*
X130597333Y-115119320D01*
X130428890Y-114949076D01*
X130228939Y-114746134D01*
X130035452Y-114549752D01*
X129500615Y-113979815D01*
X129410322Y-113883596D01*
X129010127Y-113455002D01*
X128558218Y-112947169D01*
X128415234Y-112786491D01*
X128014359Y-112333391D01*
X127446665Y-111660427D01*
X127363841Y-111561594D01*
X127048750Y-111185595D01*
X126506214Y-110506821D01*
X126114096Y-110012559D01*
X125649504Y-109398700D01*
X125595115Y-109326836D01*
X125413471Y-109084815D01*
X125211038Y-108815096D01*
X124714676Y-108121907D01*
X124340136Y-107593947D01*
X124311125Y-107551081D01*
X123865762Y-106893028D01*
X123502076Y-106350069D01*
X123458001Y-106281084D01*
X123049278Y-105641356D01*
X122697453Y-105084353D01*
X122265868Y-104367761D01*
X122184035Y-104230164D01*
X121926813Y-103797658D01*
X121585870Y-103196132D01*
X121516216Y-103073241D01*
X121190726Y-102490941D01*
X121004679Y-102141468D01*
X120800968Y-101758816D01*
X120797787Y-101752749D01*
X120489690Y-101165088D01*
X120120779Y-100425625D01*
X119824189Y-99821009D01*
X119476025Y-99074338D01*
X119308345Y-98707974D01*
X119194758Y-98459797D01*
X118867273Y-97706059D01*
X118601763Y-97082243D01*
X118295113Y-96322070D01*
X118071326Y-95754500D01*
X118045662Y-95689409D01*
X118032340Y-95653691D01*
X117759829Y-94923030D01*
X117733668Y-94851081D01*
X117526879Y-94282371D01*
X117261865Y-93510032D01*
X117187941Y-93288385D01*
X117045729Y-92861992D01*
X116801631Y-92084195D01*
X116602553Y-91429263D01*
X116379451Y-90646499D01*
X116201735Y-90000007D01*
X134494671Y-90000007D01*
X134513964Y-90294363D01*
X134513965Y-90294373D01*
X134513966Y-90294380D01*
X134554973Y-90500541D01*
X134571518Y-90583716D01*
X134571521Y-90583730D01*
X134666349Y-90863080D01*
X134796825Y-91127660D01*
X134796829Y-91127667D01*
X134960725Y-91372955D01*
X135155241Y-91594758D01*
X135377044Y-91789274D01*
X135622332Y-91953170D01*
X135622339Y-91953174D01*
X135886920Y-92083651D01*
X135886928Y-92083654D01*
X135888705Y-92084257D01*
X135936273Y-92100404D01*
X135940415Y-92102000D01*
X135940428Y-92102006D01*
X135940441Y-92102010D01*
X135946973Y-92104037D01*
X136054199Y-92140435D01*
X136166278Y-92178481D01*
X136166280Y-92178481D01*
X136166282Y-92178482D01*
X136174090Y-92180034D01*
X136220773Y-92189320D01*
X136227030Y-92190910D01*
X136227821Y-92191156D01*
X136227828Y-92191157D01*
X136227831Y-92191158D01*
X136233246Y-92192071D01*
X136242147Y-92193572D01*
X136455620Y-92236034D01*
X136515060Y-92239930D01*
X136521286Y-92240657D01*
X136524533Y-92241205D01*
X136544898Y-92241885D01*
X136621734Y-92246921D01*
X136749993Y-92255329D01*
X136750000Y-92255329D01*
X136750004Y-92255329D01*
X136761781Y-92254556D01*
X136813489Y-92251167D01*
X136819589Y-92251070D01*
X136825268Y-92251260D01*
X136849923Y-92248779D01*
X137044380Y-92236034D01*
X137110815Y-92222819D01*
X137116673Y-92221944D01*
X137124660Y-92221141D01*
X137151935Y-92214640D01*
X137333722Y-92178481D01*
X137401804Y-92155369D01*
X137407316Y-92153780D01*
X137417366Y-92151386D01*
X137445775Y-92140443D01*
X137613077Y-92083652D01*
X137681359Y-92049978D01*
X137686443Y-92047752D01*
X137698163Y-92043239D01*
X137726327Y-92027803D01*
X137877665Y-91953172D01*
X137944527Y-91908495D01*
X137949137Y-91905701D01*
X137962040Y-91898630D01*
X137987698Y-91879724D01*
X137989912Y-91878170D01*
X138122957Y-91789273D01*
X138186689Y-91733380D01*
X138190735Y-91730125D01*
X138204288Y-91720140D01*
X138227587Y-91697606D01*
X138229689Y-91695670D01*
X138344758Y-91594758D01*
X138403556Y-91527711D01*
X138407028Y-91524066D01*
X138420585Y-91510955D01*
X138440723Y-91485453D01*
X138442727Y-91483045D01*
X138539273Y-91372957D01*
X138591316Y-91295068D01*
X138594206Y-91291096D01*
X138602137Y-91281050D01*
X138607069Y-91274806D01*
X138623507Y-91247052D01*
X138625265Y-91244260D01*
X138703172Y-91127665D01*
X138746661Y-91039476D01*
X138748877Y-91035387D01*
X138760415Y-91015908D01*
X138772811Y-90986672D01*
X138774266Y-90983499D01*
X138833652Y-90863077D01*
X138866763Y-90765535D01*
X138868370Y-90761317D01*
X138877884Y-90738882D01*
X138886072Y-90708990D01*
X138887138Y-90705511D01*
X138928481Y-90583722D01*
X138949515Y-90477974D01*
X138950525Y-90473697D01*
X138957381Y-90448670D01*
X138961378Y-90418949D01*
X138962009Y-90415159D01*
X138986034Y-90294380D01*
X138988306Y-90259715D01*
X138993409Y-90181865D01*
X138993829Y-90177655D01*
X138997488Y-90150452D01*
X138998154Y-90110530D01*
X138998274Y-90107628D01*
X139004413Y-90013975D01*
X139005329Y-90000005D01*
X139005329Y-89999994D01*
X139003699Y-89975142D01*
X138998274Y-89892374D01*
X138998154Y-89889466D01*
X138997488Y-89849548D01*
X138993826Y-89822321D01*
X138993408Y-89818136D01*
X138986034Y-89705620D01*
X138962011Y-89584850D01*
X138961375Y-89581031D01*
X138960205Y-89572328D01*
X138957381Y-89551330D01*
X138950526Y-89526307D01*
X138949515Y-89522023D01*
X138928483Y-89416286D01*
X138928481Y-89416280D01*
X138928481Y-89416278D01*
X138887142Y-89294500D01*
X138886058Y-89290959D01*
X138877885Y-89261123D01*
X138877884Y-89261118D01*
X138868377Y-89238699D01*
X138866761Y-89234458D01*
X138833652Y-89136923D01*
X138833644Y-89136906D01*
X138774272Y-89016511D01*
X138772797Y-89013293D01*
X138766948Y-88999500D01*
X138760415Y-88984092D01*
X138748888Y-88964632D01*
X138746645Y-88960490D01*
X138711466Y-88889154D01*
X138703172Y-88872335D01*
X138703170Y-88872332D01*
X138625284Y-88755768D01*
X138623491Y-88752919D01*
X138607071Y-88725197D01*
X138594205Y-88708904D01*
X138591312Y-88704925D01*
X138587279Y-88698890D01*
X138539273Y-88627043D01*
X138526281Y-88612229D01*
X138475804Y-88554671D01*
X138442743Y-88516973D01*
X138440720Y-88514542D01*
X138420585Y-88489045D01*
X138407050Y-88475955D01*
X138403544Y-88472274D01*
X138344758Y-88405242D01*
X138229736Y-88304370D01*
X138227526Y-88302334D01*
X138204289Y-88279861D01*
X138204284Y-88279857D01*
X138190766Y-88269897D01*
X138186663Y-88266596D01*
X138122958Y-88210727D01*
X137989963Y-88121863D01*
X137987661Y-88120248D01*
X137962040Y-88101370D01*
X137962037Y-88101368D01*
X137962034Y-88101366D01*
X137949146Y-88094303D01*
X137944497Y-88091483D01*
X137877658Y-88046823D01*
X137877656Y-88046822D01*
X137771056Y-87994254D01*
X137726347Y-87972206D01*
X137698163Y-87956761D01*
X137698158Y-87956759D01*
X137698154Y-87956757D01*
X137686460Y-87952253D01*
X137681320Y-87950001D01*
X137613082Y-87916350D01*
X137613078Y-87916348D01*
X137613077Y-87916348D01*
X137580737Y-87905370D01*
X137445790Y-87859560D01*
X137417366Y-87848614D01*
X137417362Y-87848612D01*
X137407339Y-87846224D01*
X137401782Y-87844622D01*
X137350310Y-87827150D01*
X137333722Y-87821519D01*
X137333717Y-87821518D01*
X137151957Y-87785363D01*
X137131990Y-87780606D01*
X137124660Y-87778859D01*
X137124656Y-87778858D01*
X137124654Y-87778858D01*
X137116679Y-87778055D01*
X137110795Y-87777175D01*
X137057429Y-87766561D01*
X137044380Y-87763966D01*
X137044377Y-87763965D01*
X137044373Y-87763965D01*
X136849924Y-87751220D01*
X136825278Y-87748740D01*
X136825259Y-87748740D01*
X136819593Y-87748928D01*
X136813478Y-87748830D01*
X136750002Y-87744671D01*
X136750000Y-87744671D01*
X136725962Y-87746246D01*
X136544903Y-87758113D01*
X136524524Y-87758795D01*
X136521283Y-87759342D01*
X136515036Y-87760071D01*
X136455629Y-87763964D01*
X136242162Y-87806425D01*
X136227815Y-87808845D01*
X136227801Y-87808848D01*
X136226994Y-87809099D01*
X136220739Y-87810685D01*
X136166280Y-87821518D01*
X136166265Y-87821522D01*
X135946970Y-87895964D01*
X135940425Y-87897994D01*
X135936250Y-87899602D01*
X135886933Y-87916343D01*
X135886921Y-87916348D01*
X135622334Y-88046828D01*
X135377041Y-88210728D01*
X135155241Y-88405241D01*
X134960728Y-88627041D01*
X134796828Y-88872334D01*
X134666349Y-89136919D01*
X134571521Y-89416269D01*
X134571518Y-89416283D01*
X134513968Y-89705609D01*
X134513964Y-89705636D01*
X134494671Y-89999992D01*
X134494671Y-90000007D01*
X116201735Y-90000007D01*
X116197695Y-89985311D01*
X116190570Y-89957549D01*
X115995617Y-89197893D01*
X115831431Y-88531129D01*
X115650450Y-87739550D01*
X115504014Y-87067735D01*
X115344153Y-86272278D01*
X115215678Y-85596179D01*
X115077024Y-84797459D01*
X115066950Y-84735413D01*
X114966623Y-84117507D01*
X114849210Y-83315898D01*
X114757020Y-82632724D01*
X114660899Y-81828774D01*
X114654780Y-81771973D01*
X114587021Y-81142956D01*
X114512216Y-80337009D01*
X114456741Y-79649199D01*
X114410623Y-78952612D01*
X117845781Y-78952612D01*
X117846282Y-78962181D01*
X117849415Y-79021956D01*
X117849500Y-79025201D01*
X117849500Y-79047189D01*
X117851797Y-79069059D01*
X117852051Y-79072290D01*
X117855686Y-79141643D01*
X117855688Y-79141653D01*
X117859315Y-79155189D01*
X117862860Y-79174314D01*
X117864325Y-79188249D01*
X117864326Y-79188256D01*
X117883853Y-79248357D01*
X117885784Y-79254298D01*
X117886705Y-79257409D01*
X117904679Y-79324486D01*
X117904684Y-79324498D01*
X117911043Y-79336978D01*
X117918488Y-79354949D01*
X117922820Y-79368282D01*
X117957537Y-79428414D01*
X117959085Y-79431266D01*
X117968830Y-79450390D01*
X117990617Y-79493149D01*
X117990619Y-79493151D01*
X117990620Y-79493153D01*
X117999438Y-79504043D01*
X118010454Y-79520070D01*
X118017465Y-79532213D01*
X118017470Y-79532220D01*
X118063939Y-79583831D01*
X118066043Y-79586295D01*
X118079882Y-79603382D01*
X118095423Y-79618922D01*
X118097657Y-79621277D01*
X118144128Y-79672887D01*
X118144129Y-79672888D01*
X118152564Y-79679016D01*
X118155468Y-79681126D01*
X118170265Y-79693764D01*
X120958181Y-82481680D01*
X120991666Y-82543003D01*
X120994500Y-82569361D01*
X120994500Y-84964637D01*
X120994537Y-84968907D01*
X120994588Y-84973030D01*
X120994589Y-84973035D01*
X121017454Y-85115080D01*
X121017454Y-85115081D01*
X121017455Y-85115084D01*
X121037029Y-85177829D01*
X121038264Y-85181785D01*
X121100223Y-85311638D01*
X121520110Y-85941467D01*
X121542588Y-85975184D01*
X121608767Y-86055220D01*
X121608776Y-86055229D01*
X121608778Y-86055231D01*
X121644895Y-86090746D01*
X121644899Y-86090749D01*
X121644902Y-86090752D01*
X121726027Y-86155567D01*
X121856904Y-86215338D01*
X121899676Y-86227897D01*
X121923938Y-86235022D01*
X121923943Y-86235023D01*
X121923947Y-86235024D01*
X122066363Y-86255500D01*
X122066366Y-86255500D01*
X138683638Y-86255500D01*
X138700853Y-86253722D01*
X138786935Y-86244833D01*
X138836544Y-86234477D01*
X138935483Y-86202926D01*
X139011971Y-86155567D01*
X139057809Y-86127186D01*
X139057815Y-86127181D01*
X139072034Y-86115273D01*
X139111378Y-86082322D01*
X139207412Y-85975184D01*
X139229894Y-85941462D01*
X139498539Y-85538494D01*
X139650988Y-85309821D01*
X139653326Y-85306247D01*
X139655567Y-85302792D01*
X139715338Y-85171915D01*
X139732026Y-85115084D01*
X139735022Y-85104881D01*
X139735023Y-85104875D01*
X139735024Y-85104872D01*
X139755500Y-84962456D01*
X139755500Y-83072715D01*
X139754050Y-83045667D01*
X139749765Y-83005833D01*
X139741103Y-82952396D01*
X139690810Y-82817592D01*
X139662154Y-82765123D01*
X139657459Y-82756523D01*
X139657422Y-82756457D01*
X139657352Y-82756329D01*
X139657342Y-82756311D01*
X139657336Y-82756304D01*
X139647534Y-82738354D01*
X139647312Y-82737335D01*
X139644513Y-82732824D01*
X139643969Y-82731829D01*
X139637911Y-82724060D01*
X139521634Y-82557999D01*
X139510827Y-82539280D01*
X139457512Y-82424945D01*
X139450119Y-82404635D01*
X139438270Y-82360413D01*
X139417464Y-82282766D01*
X139413713Y-82261486D01*
X139405236Y-82164594D01*
X139405000Y-82159188D01*
X139405000Y-81840814D01*
X139405236Y-81835408D01*
X139413712Y-81738511D01*
X139417465Y-81717229D01*
X139420395Y-81706297D01*
X139450116Y-81595368D01*
X139457509Y-81575059D01*
X139511398Y-81459493D01*
X139520234Y-81443679D01*
X139524460Y-81437265D01*
X139532112Y-81425286D01*
X139532112Y-81425284D01*
X139532115Y-81425281D01*
X139532635Y-81424091D01*
X139558547Y-81364729D01*
X139589677Y-81293416D01*
X139603368Y-81243714D01*
X139608232Y-81226057D01*
X139608232Y-81226055D01*
X139626312Y-81083322D01*
X139626312Y-81083319D01*
X139603446Y-80941268D01*
X139582638Y-80874569D01*
X139582637Y-80874567D01*
X139525159Y-80754107D01*
X139520677Y-80744713D01*
X139207414Y-80274819D01*
X139207410Y-80274814D01*
X139206351Y-80273533D01*
X139141233Y-80194780D01*
X139141221Y-80194768D01*
X139105104Y-80159253D01*
X139105098Y-80159248D01*
X139023973Y-80094433D01*
X139023971Y-80094432D01*
X138893099Y-80034663D01*
X138826062Y-80014978D01*
X138826056Y-80014976D01*
X138740603Y-80002690D01*
X138683637Y-79994500D01*
X136316363Y-79994500D01*
X136316362Y-79994500D01*
X136213069Y-80005166D01*
X136213053Y-80005169D01*
X136163456Y-80015522D01*
X136163444Y-80015526D01*
X136064520Y-80047073D01*
X136064517Y-80047074D01*
X136064516Y-80047074D01*
X136064510Y-80047077D01*
X135942190Y-80122813D01*
X135942184Y-80122818D01*
X135888632Y-80167668D01*
X135888626Y-80167674D01*
X135792584Y-80274819D01*
X135473060Y-80754107D01*
X135349012Y-80940179D01*
X135346674Y-80943753D01*
X135346673Y-80943755D01*
X135344432Y-80947208D01*
X135284663Y-81078081D01*
X135264978Y-81145119D01*
X135264976Y-81145124D01*
X135253340Y-81226057D01*
X135245191Y-81282742D01*
X135244500Y-81287545D01*
X135244500Y-82739254D01*
X135224815Y-82806293D01*
X135208181Y-82826935D01*
X134826935Y-83208181D01*
X134765612Y-83241666D01*
X134739254Y-83244500D01*
X131839759Y-83244500D01*
X131772720Y-83224815D01*
X131726965Y-83172011D01*
X131717021Y-83102853D01*
X131746046Y-83039297D01*
X131752078Y-83032819D01*
X131788494Y-82996402D01*
X131819308Y-82952396D01*
X131924035Y-82802829D01*
X132023903Y-82588663D01*
X132085063Y-82360408D01*
X132100500Y-82183966D01*
X132100500Y-81816034D01*
X132085063Y-81639592D01*
X132034498Y-81450879D01*
X132023905Y-81411344D01*
X132023904Y-81411343D01*
X132023903Y-81411337D01*
X131924035Y-81197171D01*
X131911936Y-81179891D01*
X131788494Y-81003597D01*
X131621404Y-80836507D01*
X131553375Y-80788872D01*
X131509751Y-80734294D01*
X131500500Y-80687298D01*
X131500500Y-80362229D01*
X131520185Y-80295190D01*
X131536819Y-80274548D01*
X132024548Y-79786819D01*
X132085871Y-79753334D01*
X132112229Y-79750500D01*
X132686295Y-79750500D01*
X132704265Y-79751809D01*
X132728023Y-79755289D01*
X132780068Y-79750735D01*
X132785470Y-79750500D01*
X132793704Y-79750500D01*
X132793709Y-79750500D01*
X132812041Y-79748357D01*
X132826276Y-79746693D01*
X132839028Y-79745577D01*
X132902797Y-79739999D01*
X132902805Y-79739996D01*
X132909866Y-79738539D01*
X132909878Y-79738598D01*
X132917243Y-79736965D01*
X132917229Y-79736906D01*
X132924246Y-79735241D01*
X132924255Y-79735241D01*
X132996423Y-79708974D01*
X133069334Y-79684814D01*
X133069343Y-79684807D01*
X133075882Y-79681760D01*
X133075908Y-79681816D01*
X133082690Y-79678532D01*
X133082663Y-79678478D01*
X133089106Y-79675240D01*
X133089117Y-79675237D01*
X133153283Y-79633034D01*
X133218656Y-79592712D01*
X133218662Y-79592705D01*
X133224325Y-79588229D01*
X133224363Y-79588277D01*
X133230200Y-79583522D01*
X133230161Y-79583475D01*
X133235696Y-79578830D01*
X133288385Y-79522983D01*
X135598186Y-77213181D01*
X136485642Y-76325724D01*
X136499271Y-76313947D01*
X136518530Y-76299610D01*
X136545694Y-76267237D01*
X136552101Y-76259601D01*
X136555761Y-76255606D01*
X136558571Y-76252797D01*
X136561591Y-76249777D01*
X136578791Y-76228023D01*
X136581941Y-76224039D01*
X136598535Y-76204263D01*
X136631302Y-76165214D01*
X136631306Y-76165205D01*
X136635274Y-76159175D01*
X136635325Y-76159208D01*
X136639372Y-76152856D01*
X136639320Y-76152824D01*
X136643112Y-76146675D01*
X136675575Y-76077058D01*
X136710036Y-76008440D01*
X136710040Y-76008433D01*
X136710042Y-76008421D01*
X136712509Y-76001646D01*
X136712567Y-76001667D01*
X136715042Y-75994548D01*
X136714985Y-75994529D01*
X136719531Y-75980812D01*
X136720886Y-75981261D01*
X136749950Y-75926663D01*
X136767438Y-75911831D01*
X136782730Y-75901124D01*
X136806233Y-75884667D01*
X136964667Y-75726233D01*
X137093181Y-75542696D01*
X137137618Y-75447399D01*
X137183790Y-75394960D01*
X137250983Y-75375808D01*
X137317865Y-75396023D01*
X137362382Y-75447400D01*
X137406817Y-75542692D01*
X137406821Y-75542700D01*
X137535329Y-75726228D01*
X137535333Y-75726233D01*
X137637508Y-75828408D01*
X137693769Y-75884669D01*
X137696621Y-75886666D01*
X137697584Y-75887870D01*
X137697912Y-75888146D01*
X137697856Y-75888211D01*
X137740247Y-75941242D01*
X137749500Y-75988242D01*
X137749500Y-76186294D01*
X137748191Y-76204263D01*
X137744710Y-76228025D01*
X137749264Y-76280064D01*
X137749500Y-76285470D01*
X137749500Y-76293709D01*
X137753242Y-76325731D01*
X137753306Y-76326274D01*
X137760000Y-76402791D01*
X137761461Y-76409867D01*
X137761403Y-76409878D01*
X137763034Y-76417237D01*
X137763092Y-76417224D01*
X137764757Y-76424250D01*
X137791025Y-76496424D01*
X137815185Y-76569331D01*
X137818236Y-76575874D01*
X137818182Y-76575898D01*
X137821470Y-76582688D01*
X137821521Y-76582663D01*
X137824761Y-76589113D01*
X137824762Y-76589114D01*
X137824763Y-76589117D01*
X137865798Y-76651508D01*
X137866965Y-76653283D01*
X137907287Y-76718655D01*
X137911766Y-76724319D01*
X137911719Y-76724356D01*
X137916482Y-76730202D01*
X137916528Y-76730164D01*
X137921173Y-76735700D01*
X137977018Y-76788386D01*
X141864186Y-80675554D01*
X141897671Y-80736877D01*
X141892687Y-80806569D01*
X141864187Y-80850916D01*
X141711503Y-81003600D01*
X141575965Y-81197169D01*
X141575964Y-81197171D01*
X141476098Y-81411335D01*
X141476094Y-81411344D01*
X141414938Y-81639586D01*
X141414936Y-81639596D01*
X141399500Y-81816034D01*
X141399500Y-82183966D01*
X141414936Y-82360403D01*
X141414938Y-82360413D01*
X141476094Y-82588655D01*
X141476096Y-82588659D01*
X141476097Y-82588663D01*
X141514133Y-82670231D01*
X141575964Y-82802828D01*
X141575965Y-82802830D01*
X141711505Y-82996402D01*
X141800976Y-83085872D01*
X141878599Y-83163495D01*
X141942417Y-83208181D01*
X142072165Y-83299032D01*
X142072167Y-83299033D01*
X142072170Y-83299035D01*
X142286337Y-83398903D01*
X142514592Y-83460063D01*
X142702918Y-83476539D01*
X142749999Y-83480659D01*
X142750000Y-83480659D01*
X142750001Y-83480659D01*
X142789234Y-83477226D01*
X142985408Y-83460063D01*
X143213663Y-83398903D01*
X143427829Y-83299035D01*
X143621401Y-83163495D01*
X143788495Y-82996401D01*
X143898426Y-82839401D01*
X143953001Y-82795778D01*
X144022500Y-82788584D01*
X144084855Y-82820106D01*
X144101571Y-82839398D01*
X144105114Y-82844458D01*
X144211506Y-82996403D01*
X144300976Y-83085872D01*
X144378599Y-83163495D01*
X144442417Y-83208181D01*
X144572165Y-83299032D01*
X144572167Y-83299033D01*
X144572170Y-83299035D01*
X144786337Y-83398903D01*
X145014592Y-83460063D01*
X145202918Y-83476539D01*
X145249999Y-83480659D01*
X145250000Y-83480659D01*
X145250001Y-83480659D01*
X145289234Y-83477226D01*
X145485408Y-83460063D01*
X145713663Y-83398903D01*
X145927829Y-83299035D01*
X146121401Y-83163495D01*
X146288495Y-82996401D01*
X146424035Y-82802829D01*
X146523903Y-82588663D01*
X146585063Y-82360408D01*
X146600500Y-82183966D01*
X146600500Y-81816034D01*
X146585063Y-81639592D01*
X146534498Y-81450879D01*
X146523905Y-81411344D01*
X146523904Y-81411343D01*
X146523903Y-81411337D01*
X146424035Y-81197171D01*
X146411936Y-81179891D01*
X146288494Y-81003597D01*
X146121401Y-80836505D01*
X146051877Y-80787823D01*
X146008252Y-80733246D01*
X145999840Y-80700650D01*
X145996693Y-80673724D01*
X145995493Y-80660001D01*
X145989999Y-80597201D01*
X145988539Y-80590129D01*
X145988597Y-80590116D01*
X145986965Y-80582757D01*
X145986906Y-80582772D01*
X145985242Y-80575753D01*
X145985241Y-80575745D01*
X145958974Y-80503576D01*
X145934814Y-80430666D01*
X145934809Y-80430659D01*
X145931760Y-80424118D01*
X145931815Y-80424091D01*
X145928533Y-80417313D01*
X145928480Y-80417340D01*
X145925235Y-80410880D01*
X145883028Y-80346708D01*
X145851461Y-80295529D01*
X145842712Y-80281345D01*
X145842711Y-80281344D01*
X145842710Y-80281342D01*
X145838234Y-80275682D01*
X145838281Y-80275644D01*
X145833519Y-80269799D01*
X145833474Y-80269838D01*
X145828834Y-80264308D01*
X145772964Y-80211596D01*
X141846819Y-76285451D01*
X141813334Y-76224128D01*
X141810500Y-76197770D01*
X141810500Y-76002245D01*
X141830185Y-75935206D01*
X141863378Y-75900669D01*
X141886233Y-75884667D01*
X142044667Y-75726233D01*
X142173181Y-75542696D01*
X142217618Y-75447399D01*
X142263790Y-75394960D01*
X142330983Y-75375808D01*
X142397865Y-75396023D01*
X142442382Y-75447400D01*
X142486817Y-75542692D01*
X142486821Y-75542700D01*
X142615329Y-75726228D01*
X142615333Y-75726233D01*
X142717508Y-75828408D01*
X142773768Y-75884668D01*
X142778828Y-75888211D01*
X142796621Y-75900669D01*
X142840247Y-75955243D01*
X142849500Y-76002245D01*
X142849500Y-76036294D01*
X142848191Y-76054263D01*
X142844710Y-76078025D01*
X142849264Y-76130064D01*
X142849500Y-76135470D01*
X142849500Y-76143709D01*
X142853306Y-76176275D01*
X142853676Y-76180499D01*
X142860000Y-76252791D01*
X142861461Y-76259867D01*
X142861403Y-76259878D01*
X142863034Y-76267237D01*
X142863092Y-76267224D01*
X142864757Y-76274250D01*
X142891025Y-76346424D01*
X142915185Y-76419331D01*
X142918236Y-76425874D01*
X142918182Y-76425898D01*
X142921470Y-76432688D01*
X142921521Y-76432663D01*
X142924761Y-76439113D01*
X142924762Y-76439114D01*
X142924763Y-76439117D01*
X142942011Y-76465341D01*
X142966965Y-76503283D01*
X143007287Y-76568655D01*
X143011766Y-76574319D01*
X143011719Y-76574356D01*
X143016482Y-76580202D01*
X143016528Y-76580164D01*
X143021173Y-76585700D01*
X143077017Y-76638385D01*
X149963181Y-83524549D01*
X149996666Y-83585872D01*
X149999500Y-83612230D01*
X149999500Y-111686294D01*
X149998191Y-111704263D01*
X149994710Y-111728025D01*
X149999264Y-111780064D01*
X149999500Y-111785470D01*
X149999500Y-111793709D01*
X150003306Y-111826274D01*
X150010000Y-111902791D01*
X150011461Y-111909867D01*
X150011403Y-111909878D01*
X150013034Y-111917237D01*
X150013092Y-111917224D01*
X150014757Y-111924250D01*
X150041025Y-111996424D01*
X150065185Y-112069331D01*
X150068236Y-112075874D01*
X150068182Y-112075898D01*
X150071470Y-112082688D01*
X150071521Y-112082663D01*
X150074761Y-112089113D01*
X150074762Y-112089114D01*
X150074763Y-112089117D01*
X150116965Y-112153283D01*
X150157287Y-112218655D01*
X150161766Y-112224319D01*
X150161719Y-112224356D01*
X150166482Y-112230202D01*
X150166528Y-112230164D01*
X150171173Y-112235700D01*
X150227018Y-112288386D01*
X153174267Y-115235634D01*
X153186048Y-115249266D01*
X153200390Y-115268530D01*
X153240420Y-115302119D01*
X153244392Y-115305759D01*
X153250224Y-115311591D01*
X153250227Y-115311594D01*
X153275947Y-115331931D01*
X153334788Y-115381304D01*
X153340818Y-115385270D01*
X153340785Y-115385319D01*
X153347147Y-115389372D01*
X153347179Y-115389321D01*
X153353319Y-115393108D01*
X153353323Y-115393111D01*
X153388132Y-115409343D01*
X153422941Y-115425575D01*
X153441336Y-115434813D01*
X153491567Y-115460040D01*
X153491569Y-115460040D01*
X153498357Y-115462511D01*
X153498336Y-115462567D01*
X153505455Y-115465042D01*
X153505474Y-115464986D01*
X153512329Y-115467258D01*
X153587562Y-115482791D01*
X153662279Y-115500500D01*
X153662289Y-115500500D01*
X153669452Y-115501338D01*
X153669444Y-115501397D01*
X153676945Y-115502164D01*
X153676951Y-115502105D01*
X153684140Y-115502734D01*
X153684144Y-115502733D01*
X153684145Y-115502734D01*
X153760918Y-115500500D01*
X157686295Y-115500500D01*
X157704265Y-115501809D01*
X157728023Y-115505289D01*
X157780068Y-115500735D01*
X157785470Y-115500500D01*
X157793704Y-115500500D01*
X157793709Y-115500500D01*
X157805327Y-115499141D01*
X157826276Y-115496693D01*
X157839028Y-115495577D01*
X157902797Y-115489999D01*
X157902805Y-115489996D01*
X157909866Y-115488539D01*
X157909878Y-115488598D01*
X157917243Y-115486965D01*
X157917229Y-115486906D01*
X157924246Y-115485241D01*
X157924255Y-115485241D01*
X157996423Y-115458974D01*
X158069334Y-115434814D01*
X158069343Y-115434807D01*
X158075882Y-115431760D01*
X158075908Y-115431816D01*
X158082690Y-115428532D01*
X158082663Y-115428478D01*
X158089106Y-115425240D01*
X158089117Y-115425237D01*
X158153283Y-115383034D01*
X158218656Y-115342712D01*
X158218662Y-115342705D01*
X158224325Y-115338229D01*
X158224363Y-115338277D01*
X158230195Y-115333526D01*
X158230156Y-115333479D01*
X158235694Y-115328831D01*
X158235693Y-115328831D01*
X158235696Y-115328830D01*
X158288386Y-115272980D01*
X159235642Y-114325724D01*
X159249257Y-114313958D01*
X159268530Y-114299610D01*
X159302123Y-114259574D01*
X159305757Y-114255608D01*
X159311367Y-114250000D01*
X204494696Y-114250000D01*
X204513898Y-114616404D01*
X204571295Y-114978794D01*
X204658908Y-115305770D01*
X204666260Y-115333206D01*
X204797746Y-115675739D01*
X204964320Y-116002656D01*
X205164147Y-116310364D01*
X205164149Y-116310366D01*
X205395051Y-116595506D01*
X205654494Y-116854949D01*
X205654498Y-116854952D01*
X205939635Y-117085852D01*
X206085658Y-117180680D01*
X206247348Y-117285682D01*
X206574264Y-117452255D01*
X206916801Y-117583742D01*
X207271206Y-117678705D01*
X207633596Y-117736102D01*
X207979734Y-117754241D01*
X207999999Y-117755304D01*
X208000000Y-117755304D01*
X208000001Y-117755304D01*
X208019203Y-117754297D01*
X208366404Y-117736102D01*
X208728794Y-117678705D01*
X209083199Y-117583742D01*
X209425736Y-117452255D01*
X209752652Y-117285682D01*
X210060366Y-117085851D01*
X210345506Y-116854949D01*
X210604949Y-116595506D01*
X210835851Y-116310366D01*
X211035682Y-116002652D01*
X211202255Y-115675736D01*
X211333742Y-115333199D01*
X211428705Y-114978794D01*
X211486102Y-114616404D01*
X211505304Y-114250000D01*
X211486102Y-113883596D01*
X211428705Y-113521206D01*
X211333742Y-113166801D01*
X211202255Y-112824264D01*
X211035682Y-112497348D01*
X211035679Y-112497343D01*
X210835852Y-112189635D01*
X210686613Y-112005341D01*
X210604949Y-111904494D01*
X210345506Y-111645051D01*
X210238673Y-111558539D01*
X210060364Y-111414147D01*
X209752656Y-111214320D01*
X209425739Y-111047746D01*
X209083206Y-110916260D01*
X208999019Y-110893702D01*
X208728794Y-110821295D01*
X208728790Y-110821294D01*
X208728789Y-110821294D01*
X208366405Y-110763898D01*
X208000001Y-110744696D01*
X207999999Y-110744696D01*
X207633594Y-110763898D01*
X207271211Y-110821294D01*
X207271209Y-110821294D01*
X206916793Y-110916260D01*
X206574260Y-111047746D01*
X206247343Y-111214320D01*
X205939635Y-111414147D01*
X205654498Y-111645047D01*
X205654490Y-111645054D01*
X205395054Y-111904490D01*
X205395047Y-111904498D01*
X205164147Y-112189635D01*
X204964320Y-112497343D01*
X204797746Y-112824260D01*
X204666260Y-113166793D01*
X204571294Y-113521209D01*
X204571294Y-113521211D01*
X204513898Y-113883594D01*
X204507972Y-113996666D01*
X204494696Y-114250000D01*
X159311367Y-114250000D01*
X159311591Y-114249776D01*
X159331930Y-114224052D01*
X159381302Y-114165214D01*
X159381306Y-114165205D01*
X159385274Y-114159175D01*
X159385325Y-114159208D01*
X159389369Y-114152860D01*
X159389317Y-114152828D01*
X159393104Y-114146685D01*
X159393111Y-114146677D01*
X159425572Y-114077063D01*
X159460040Y-114008433D01*
X159460041Y-114008427D01*
X159462508Y-114001650D01*
X159462566Y-114001671D01*
X159465043Y-113994544D01*
X159464986Y-113994526D01*
X159467255Y-113987679D01*
X159467256Y-113987674D01*
X159467257Y-113987672D01*
X159482790Y-113912441D01*
X159500500Y-113837721D01*
X159500500Y-113837719D01*
X159501339Y-113830548D01*
X159501398Y-113830554D01*
X159502164Y-113823054D01*
X159502105Y-113823049D01*
X159502734Y-113815859D01*
X159500500Y-113739082D01*
X159500500Y-109112228D01*
X159520185Y-109045189D01*
X159536815Y-109024551D01*
X160205385Y-108355980D01*
X160266708Y-108322496D01*
X160336400Y-108327480D01*
X160369228Y-108345809D01*
X160550818Y-108487146D01*
X160591631Y-108543856D01*
X160595306Y-108613629D01*
X160560674Y-108674312D01*
X160550819Y-108682852D01*
X160373218Y-108821085D01*
X160216016Y-108991852D01*
X160089075Y-109186151D01*
X159995842Y-109398699D01*
X159938866Y-109623691D01*
X159938864Y-109623702D01*
X159919700Y-109854993D01*
X159919700Y-109855006D01*
X159938864Y-110086297D01*
X159938866Y-110086308D01*
X159995842Y-110311300D01*
X160089075Y-110523848D01*
X160216016Y-110718147D01*
X160216019Y-110718151D01*
X160216021Y-110718153D01*
X160373216Y-110888913D01*
X160373219Y-110888915D01*
X160373222Y-110888918D01*
X160556365Y-111031464D01*
X160556371Y-111031468D01*
X160556374Y-111031470D01*
X160760497Y-111141936D01*
X160874487Y-111181068D01*
X160980015Y-111217297D01*
X160980017Y-111217297D01*
X160980019Y-111217298D01*
X161208951Y-111255500D01*
X161208952Y-111255500D01*
X161441048Y-111255500D01*
X161441049Y-111255500D01*
X161669981Y-111217298D01*
X161889503Y-111141936D01*
X162093626Y-111031470D01*
X162276784Y-110888913D01*
X162433979Y-110718153D01*
X162465242Y-110670302D01*
X162470877Y-110661678D01*
X162524023Y-110616322D01*
X162574685Y-110605500D01*
X163492770Y-110605500D01*
X163559809Y-110625185D01*
X163580451Y-110641819D01*
X164424267Y-111485634D01*
X164436048Y-111499266D01*
X164450390Y-111518530D01*
X164490420Y-111552119D01*
X164494392Y-111555759D01*
X164500224Y-111561591D01*
X164500227Y-111561594D01*
X164525947Y-111581931D01*
X164584788Y-111631304D01*
X164590818Y-111635270D01*
X164590785Y-111635319D01*
X164597143Y-111639369D01*
X164597175Y-111639319D01*
X164603320Y-111643109D01*
X164603323Y-111643111D01*
X164672936Y-111675572D01*
X164741567Y-111710040D01*
X164741572Y-111710041D01*
X164748361Y-111712513D01*
X164748340Y-111712570D01*
X164755455Y-111715043D01*
X164755475Y-111714986D01*
X164762330Y-111717258D01*
X164837558Y-111732790D01*
X164912279Y-111750500D01*
X164912289Y-111750500D01*
X164919452Y-111751338D01*
X164919444Y-111751397D01*
X164926945Y-111752164D01*
X164926951Y-111752105D01*
X164934140Y-111752734D01*
X164934144Y-111752733D01*
X164934145Y-111752734D01*
X165010918Y-111750500D01*
X167543022Y-111750500D01*
X167610061Y-111770185D01*
X167621687Y-111778647D01*
X167691460Y-111835909D01*
X167691467Y-111835913D01*
X167865266Y-111928811D01*
X167865269Y-111928811D01*
X167865273Y-111928814D01*
X168053868Y-111986024D01*
X168250000Y-112005341D01*
X168446132Y-111986024D01*
X168634727Y-111928814D01*
X168643257Y-111924255D01*
X168808532Y-111835913D01*
X168808538Y-111835910D01*
X168960883Y-111710883D01*
X169085910Y-111558538D01*
X169163099Y-111414128D01*
X169178811Y-111384733D01*
X169178811Y-111384732D01*
X169178814Y-111384727D01*
X169236024Y-111196132D01*
X169255341Y-111000000D01*
X169236024Y-110803868D01*
X169178814Y-110615273D01*
X169178811Y-110615269D01*
X169178811Y-110615266D01*
X169085913Y-110441467D01*
X169085909Y-110441460D01*
X168960883Y-110289116D01*
X168808539Y-110164090D01*
X168808532Y-110164086D01*
X168634733Y-110071188D01*
X168634727Y-110071186D01*
X168446132Y-110013976D01*
X168446129Y-110013975D01*
X168250000Y-109994659D01*
X168053870Y-110013975D01*
X167865266Y-110071188D01*
X167691467Y-110164086D01*
X167691460Y-110164090D01*
X167621687Y-110221353D01*
X167557377Y-110248666D01*
X167543022Y-110249500D01*
X165362229Y-110249500D01*
X165295190Y-110229815D01*
X165274548Y-110213181D01*
X164430729Y-109369361D01*
X164418949Y-109355730D01*
X164411482Y-109345701D01*
X164404612Y-109336472D01*
X164404610Y-109336470D01*
X164364587Y-109302886D01*
X164360612Y-109299244D01*
X164357690Y-109296322D01*
X164354780Y-109293411D01*
X164329040Y-109273059D01*
X164270209Y-109223694D01*
X164264180Y-109219729D01*
X164264212Y-109219680D01*
X164257853Y-109215628D01*
X164257822Y-109215679D01*
X164251680Y-109211891D01*
X164251678Y-109211890D01*
X164251677Y-109211889D01*
X164196483Y-109186151D01*
X164182058Y-109179424D01*
X164147894Y-109162267D01*
X164113433Y-109144960D01*
X164113431Y-109144959D01*
X164113430Y-109144959D01*
X164106645Y-109142489D01*
X164106665Y-109142433D01*
X164099549Y-109139959D01*
X164099531Y-109140015D01*
X164092671Y-109137742D01*
X164064841Y-109131996D01*
X164017434Y-109122207D01*
X163968472Y-109110603D01*
X163942719Y-109104499D01*
X163935547Y-109103661D01*
X163935553Y-109103601D01*
X163928055Y-109102835D01*
X163928050Y-109102895D01*
X163920860Y-109102265D01*
X163844083Y-109104500D01*
X162574685Y-109104500D01*
X162507646Y-109084815D01*
X162470877Y-109048322D01*
X162433984Y-108991854D01*
X162433982Y-108991852D01*
X162433979Y-108991847D01*
X162276784Y-108821087D01*
X162099180Y-108682853D01*
X162058368Y-108626143D01*
X162054693Y-108556370D01*
X162089324Y-108495687D01*
X162099181Y-108487146D01*
X162276784Y-108348913D01*
X162433979Y-108178153D01*
X162560924Y-107983849D01*
X162654157Y-107771300D01*
X162711134Y-107546305D01*
X162722192Y-107412853D01*
X162730300Y-107315006D01*
X162730300Y-107314993D01*
X162711135Y-107083702D01*
X162711133Y-107083691D01*
X162654157Y-106858699D01*
X162560924Y-106646151D01*
X162433983Y-106451852D01*
X162433980Y-106451849D01*
X162433979Y-106451847D01*
X162276784Y-106281087D01*
X162099180Y-106142853D01*
X162058368Y-106086143D01*
X162054693Y-106016370D01*
X162089324Y-105955687D01*
X162099181Y-105947146D01*
X162276784Y-105808913D01*
X162433979Y-105638153D01*
X162560924Y-105443849D01*
X162654157Y-105231300D01*
X162711134Y-105006305D01*
X162722550Y-104868531D01*
X162730300Y-104775006D01*
X162730300Y-104774993D01*
X162711135Y-104543702D01*
X162711133Y-104543691D01*
X162654157Y-104318699D01*
X162560924Y-104106151D01*
X162433983Y-103911852D01*
X162433980Y-103911849D01*
X162433979Y-103911847D01*
X162276784Y-103741087D01*
X162099180Y-103602853D01*
X162058368Y-103546143D01*
X162054693Y-103476370D01*
X162089324Y-103415687D01*
X162099181Y-103407146D01*
X162276784Y-103268913D01*
X162433979Y-103098153D01*
X162560924Y-102903849D01*
X162654157Y-102691300D01*
X162711134Y-102466305D01*
X162719487Y-102365500D01*
X162730300Y-102235006D01*
X162730300Y-102234993D01*
X162711135Y-102003702D01*
X162711133Y-102003691D01*
X162654157Y-101778699D01*
X162560924Y-101566151D01*
X162433983Y-101371852D01*
X162433980Y-101371849D01*
X162433979Y-101371847D01*
X162276784Y-101201087D01*
X162099180Y-101062853D01*
X162058368Y-101006143D01*
X162054693Y-100936370D01*
X162089324Y-100875687D01*
X162099181Y-100867146D01*
X162276784Y-100728913D01*
X162284677Y-100720338D01*
X162344559Y-100684348D01*
X162414397Y-100686445D01*
X162472015Y-100725966D01*
X162499020Y-100790131D01*
X162499081Y-100790124D01*
X162499105Y-100790332D01*
X162499119Y-100790365D01*
X162499147Y-100790689D01*
X162503306Y-100826274D01*
X162510000Y-100902791D01*
X162511461Y-100909867D01*
X162511403Y-100909878D01*
X162513034Y-100917237D01*
X162513092Y-100917224D01*
X162514757Y-100924250D01*
X162541025Y-100996424D01*
X162565185Y-101069331D01*
X162568236Y-101075874D01*
X162568182Y-101075898D01*
X162571470Y-101082688D01*
X162571521Y-101082663D01*
X162574761Y-101089113D01*
X162574762Y-101089114D01*
X162574763Y-101089117D01*
X162616965Y-101153283D01*
X162657287Y-101218655D01*
X162661766Y-101224319D01*
X162661719Y-101224356D01*
X162666482Y-101230202D01*
X162666528Y-101230164D01*
X162671173Y-101235700D01*
X162727018Y-101288386D01*
X164469405Y-103030773D01*
X164502890Y-103092096D01*
X164505127Y-103106298D01*
X164513975Y-103196129D01*
X164571188Y-103384733D01*
X164664086Y-103558532D01*
X164664090Y-103558539D01*
X164789116Y-103710883D01*
X164941460Y-103835909D01*
X164941467Y-103835913D01*
X165115266Y-103928811D01*
X165115269Y-103928811D01*
X165115273Y-103928814D01*
X165303868Y-103986024D01*
X165500000Y-104005341D01*
X165696132Y-103986024D01*
X165884727Y-103928814D01*
X165893257Y-103924255D01*
X165971632Y-103882362D01*
X166058538Y-103835910D01*
X166210883Y-103710883D01*
X166335910Y-103558538D01*
X166428814Y-103384727D01*
X166446701Y-103325759D01*
X166484997Y-103267323D01*
X166548809Y-103238866D01*
X166577515Y-103238353D01*
X166750000Y-103255341D01*
X166946132Y-103236024D01*
X167134727Y-103178814D01*
X167308538Y-103085910D01*
X167460883Y-102960883D01*
X167585910Y-102808538D01*
X167632362Y-102721632D01*
X167678811Y-102634733D01*
X167678811Y-102634732D01*
X167678814Y-102634727D01*
X167736024Y-102446132D01*
X167755341Y-102250000D01*
X167736024Y-102053868D01*
X167678814Y-101865273D01*
X167678811Y-101865269D01*
X167678811Y-101865266D01*
X167585913Y-101691467D01*
X167585909Y-101691460D01*
X167460883Y-101539116D01*
X167308539Y-101414090D01*
X167308532Y-101414086D01*
X167134733Y-101321188D01*
X167134727Y-101321186D01*
X166975821Y-101272982D01*
X166946129Y-101263975D01*
X166856298Y-101255127D01*
X166791511Y-101228965D01*
X166780773Y-101219405D01*
X165036819Y-99475451D01*
X165003334Y-99414128D01*
X165000500Y-99387770D01*
X165000500Y-97250000D01*
X167494659Y-97250000D01*
X167513975Y-97446129D01*
X167522442Y-97474040D01*
X167564079Y-97611300D01*
X167571188Y-97634733D01*
X167664086Y-97808532D01*
X167664090Y-97808539D01*
X167789116Y-97960883D01*
X167941460Y-98085909D01*
X167941467Y-98085913D01*
X168115266Y-98178811D01*
X168115269Y-98178811D01*
X168115273Y-98178814D01*
X168303868Y-98236024D01*
X168393697Y-98244871D01*
X168458485Y-98271031D01*
X168469225Y-98280593D01*
X171424267Y-101235634D01*
X171436048Y-101249266D01*
X171440412Y-101255127D01*
X171450390Y-101268530D01*
X171490420Y-101302119D01*
X171494392Y-101305759D01*
X171500223Y-101311590D01*
X171525939Y-101331923D01*
X171584786Y-101381302D01*
X171584788Y-101381303D01*
X171590823Y-101385272D01*
X171590789Y-101385322D01*
X171597144Y-101389370D01*
X171597177Y-101389318D01*
X171603319Y-101393107D01*
X171603323Y-101393110D01*
X171648306Y-101414086D01*
X171672914Y-101425561D01*
X171741558Y-101460036D01*
X171741561Y-101460037D01*
X171741567Y-101460040D01*
X171741572Y-101460041D01*
X171748355Y-101462510D01*
X171748334Y-101462567D01*
X171755451Y-101465040D01*
X171755470Y-101464984D01*
X171762330Y-101467257D01*
X171837532Y-101482784D01*
X171912279Y-101500500D01*
X171912288Y-101500500D01*
X171919452Y-101501338D01*
X171919445Y-101501397D01*
X171926946Y-101502163D01*
X171926952Y-101502104D01*
X171934140Y-101502733D01*
X171934143Y-101502732D01*
X171934144Y-101502733D01*
X172010898Y-101500500D01*
X187686295Y-101500500D01*
X187704265Y-101501809D01*
X187728023Y-101505289D01*
X187780068Y-101500735D01*
X187785470Y-101500500D01*
X187793704Y-101500500D01*
X187793709Y-101500500D01*
X187805327Y-101499141D01*
X187826276Y-101496693D01*
X187839028Y-101495577D01*
X187902797Y-101489999D01*
X187902805Y-101489996D01*
X187909866Y-101488539D01*
X187909878Y-101488598D01*
X187917243Y-101486965D01*
X187917229Y-101486906D01*
X187924246Y-101485241D01*
X187924255Y-101485241D01*
X187996423Y-101458974D01*
X188069334Y-101434814D01*
X188069343Y-101434807D01*
X188075882Y-101431760D01*
X188075908Y-101431816D01*
X188082690Y-101428532D01*
X188082663Y-101428478D01*
X188089106Y-101425240D01*
X188089117Y-101425237D01*
X188153283Y-101383034D01*
X188218656Y-101342712D01*
X188218662Y-101342705D01*
X188224325Y-101338229D01*
X188224363Y-101338277D01*
X188230200Y-101333522D01*
X188230161Y-101333475D01*
X188235696Y-101328830D01*
X188288385Y-101272983D01*
X191047054Y-98514313D01*
X191985642Y-97575724D01*
X191999271Y-97563947D01*
X192018530Y-97549610D01*
X192052101Y-97509601D01*
X192055761Y-97505606D01*
X192061590Y-97499778D01*
X192081941Y-97474039D01*
X192105358Y-97446132D01*
X192131302Y-97415214D01*
X192131306Y-97415205D01*
X192135274Y-97409175D01*
X192135325Y-97409208D01*
X192139372Y-97402856D01*
X192139320Y-97402824D01*
X192143112Y-97396675D01*
X192175575Y-97327058D01*
X192210036Y-97258440D01*
X192210040Y-97258433D01*
X192210042Y-97258421D01*
X192212509Y-97251646D01*
X192212567Y-97251667D01*
X192215043Y-97244546D01*
X192214986Y-97244528D01*
X192217257Y-97237673D01*
X192232792Y-97162434D01*
X192237233Y-97143697D01*
X192250500Y-97087721D01*
X192250500Y-97087710D01*
X192251338Y-97080548D01*
X192251398Y-97080555D01*
X192252164Y-97073055D01*
X192252105Y-97073050D01*
X192252734Y-97065860D01*
X192252480Y-97057147D01*
X192250500Y-96989082D01*
X192250500Y-89750007D01*
X205994671Y-89750007D01*
X206013964Y-90044363D01*
X206013965Y-90044373D01*
X206013966Y-90044380D01*
X206065576Y-90303846D01*
X206071518Y-90333716D01*
X206071521Y-90333730D01*
X206166349Y-90613080D01*
X206296825Y-90877660D01*
X206296829Y-90877667D01*
X206460725Y-91122955D01*
X206655241Y-91344758D01*
X206877044Y-91539274D01*
X207122332Y-91703170D01*
X207122339Y-91703174D01*
X207386920Y-91833651D01*
X207386928Y-91833654D01*
X207395923Y-91836707D01*
X207436273Y-91850404D01*
X207440415Y-91852000D01*
X207440428Y-91852006D01*
X207440441Y-91852010D01*
X207446973Y-91854037D01*
X207554199Y-91890435D01*
X207666278Y-91928481D01*
X207666280Y-91928481D01*
X207666282Y-91928482D01*
X207674090Y-91930034D01*
X207720773Y-91939320D01*
X207727030Y-91940910D01*
X207727821Y-91941156D01*
X207727828Y-91941157D01*
X207727831Y-91941158D01*
X207733246Y-91942071D01*
X207742147Y-91943572D01*
X207955620Y-91986034D01*
X208015060Y-91989930D01*
X208021286Y-91990657D01*
X208024533Y-91991205D01*
X208044898Y-91991885D01*
X208121734Y-91996921D01*
X208249993Y-92005329D01*
X208250000Y-92005329D01*
X208250004Y-92005329D01*
X208261781Y-92004556D01*
X208313489Y-92001167D01*
X208319589Y-92001070D01*
X208325268Y-92001260D01*
X208349923Y-91998779D01*
X208544380Y-91986034D01*
X208610815Y-91972819D01*
X208616673Y-91971944D01*
X208624660Y-91971141D01*
X208651935Y-91964640D01*
X208833722Y-91928481D01*
X208901804Y-91905369D01*
X208907316Y-91903780D01*
X208917366Y-91901386D01*
X208945775Y-91890443D01*
X209113077Y-91833652D01*
X209181359Y-91799978D01*
X209186443Y-91797752D01*
X209198163Y-91793239D01*
X209226327Y-91777803D01*
X209377665Y-91703172D01*
X209444527Y-91658495D01*
X209449137Y-91655701D01*
X209462040Y-91648630D01*
X209487698Y-91629724D01*
X209489912Y-91628170D01*
X209622957Y-91539273D01*
X209686689Y-91483380D01*
X209690735Y-91480125D01*
X209704288Y-91470140D01*
X209727587Y-91447606D01*
X209729689Y-91445670D01*
X209844758Y-91344758D01*
X209903556Y-91277711D01*
X209907028Y-91274066D01*
X209920585Y-91260955D01*
X209940723Y-91235453D01*
X209942727Y-91233045D01*
X210039273Y-91122957D01*
X210091316Y-91045068D01*
X210094206Y-91041096D01*
X210102137Y-91031050D01*
X210107069Y-91024806D01*
X210123507Y-90997052D01*
X210125265Y-90994260D01*
X210203172Y-90877665D01*
X210246661Y-90789476D01*
X210248877Y-90785387D01*
X210260415Y-90765908D01*
X210272811Y-90736672D01*
X210274266Y-90733499D01*
X210333652Y-90613077D01*
X210366763Y-90515535D01*
X210368370Y-90511317D01*
X210377884Y-90488882D01*
X210386072Y-90458990D01*
X210387138Y-90455511D01*
X210428481Y-90333722D01*
X210449515Y-90227974D01*
X210450525Y-90223697D01*
X210457381Y-90198670D01*
X210461378Y-90168949D01*
X210462009Y-90165159D01*
X210486034Y-90044380D01*
X210493409Y-89931865D01*
X210493829Y-89927655D01*
X210497488Y-89900452D01*
X210498154Y-89860530D01*
X210498274Y-89857628D01*
X210505329Y-89750000D01*
X210505328Y-89749992D01*
X210502419Y-89705609D01*
X210498274Y-89642374D01*
X210498154Y-89639466D01*
X210497488Y-89599548D01*
X210493826Y-89572321D01*
X210493408Y-89568136D01*
X210486034Y-89455620D01*
X210462011Y-89334850D01*
X210461375Y-89331031D01*
X210457380Y-89301326D01*
X210457379Y-89301324D01*
X210450527Y-89276309D01*
X210449515Y-89272023D01*
X210428483Y-89166286D01*
X210428481Y-89166280D01*
X210428481Y-89166278D01*
X210387142Y-89044500D01*
X210386058Y-89040959D01*
X210385784Y-89039959D01*
X210377884Y-89011118D01*
X210368377Y-88988699D01*
X210366761Y-88984458D01*
X210333652Y-88886923D01*
X210327896Y-88875250D01*
X210274272Y-88766511D01*
X210272797Y-88763293D01*
X210260417Y-88734097D01*
X210260415Y-88734092D01*
X210248888Y-88714632D01*
X210246645Y-88710490D01*
X210207243Y-88630591D01*
X210203172Y-88622335D01*
X210203170Y-88622332D01*
X210125284Y-88505768D01*
X210123491Y-88502919D01*
X210107071Y-88475197D01*
X210104757Y-88472267D01*
X210094205Y-88458904D01*
X210091312Y-88454925D01*
X210060868Y-88409363D01*
X210039273Y-88377043D01*
X209942743Y-88266973D01*
X209940720Y-88264542D01*
X209920585Y-88239045D01*
X209907050Y-88225955D01*
X209903544Y-88222274D01*
X209844758Y-88155242D01*
X209729736Y-88054370D01*
X209727526Y-88052334D01*
X209704289Y-88029861D01*
X209704284Y-88029857D01*
X209690766Y-88019897D01*
X209686663Y-88016596D01*
X209622958Y-87960727D01*
X209489963Y-87871863D01*
X209487661Y-87870248D01*
X209462040Y-87851370D01*
X209462037Y-87851368D01*
X209462034Y-87851366D01*
X209449146Y-87844303D01*
X209444497Y-87841483D01*
X209377658Y-87796823D01*
X209377656Y-87796822D01*
X209271056Y-87744254D01*
X209226347Y-87722206D01*
X209198163Y-87706761D01*
X209198158Y-87706759D01*
X209198154Y-87706757D01*
X209186460Y-87702253D01*
X209181320Y-87700001D01*
X209113082Y-87666350D01*
X209113078Y-87666348D01*
X209113077Y-87666348D01*
X209080737Y-87655370D01*
X208945790Y-87609560D01*
X208917366Y-87598614D01*
X208917362Y-87598612D01*
X208907339Y-87596224D01*
X208901782Y-87594622D01*
X208850310Y-87577150D01*
X208833722Y-87571519D01*
X208833717Y-87571518D01*
X208651957Y-87535363D01*
X208631936Y-87530593D01*
X208624660Y-87528859D01*
X208624656Y-87528858D01*
X208624654Y-87528858D01*
X208616679Y-87528055D01*
X208610795Y-87527175D01*
X208557429Y-87516561D01*
X208544380Y-87513966D01*
X208544377Y-87513965D01*
X208544373Y-87513965D01*
X208349924Y-87501220D01*
X208325278Y-87498740D01*
X208325259Y-87498740D01*
X208319593Y-87498928D01*
X208313478Y-87498830D01*
X208250002Y-87494671D01*
X208250000Y-87494671D01*
X208225962Y-87496246D01*
X208044903Y-87508113D01*
X208024524Y-87508795D01*
X208021283Y-87509342D01*
X208015036Y-87510071D01*
X207955629Y-87513964D01*
X207742162Y-87556425D01*
X207727815Y-87558845D01*
X207727801Y-87558848D01*
X207726994Y-87559099D01*
X207720739Y-87560685D01*
X207666280Y-87571518D01*
X207666265Y-87571522D01*
X207446970Y-87645964D01*
X207440425Y-87647994D01*
X207436250Y-87649602D01*
X207386933Y-87666343D01*
X207386921Y-87666348D01*
X207122334Y-87796828D01*
X206877041Y-87960728D01*
X206655241Y-88155241D01*
X206460728Y-88377041D01*
X206296828Y-88622334D01*
X206166349Y-88886919D01*
X206071521Y-89166269D01*
X206071518Y-89166283D01*
X206013968Y-89455609D01*
X206013964Y-89455636D01*
X205994671Y-89749992D01*
X205994671Y-89750007D01*
X192250500Y-89750007D01*
X192250500Y-88612229D01*
X192270185Y-88545190D01*
X192286814Y-88524553D01*
X193735642Y-87075724D01*
X193749271Y-87063947D01*
X193768530Y-87049610D01*
X193802101Y-87009601D01*
X193805761Y-87005606D01*
X193811590Y-86999778D01*
X193831941Y-86974039D01*
X193837948Y-86966879D01*
X193881302Y-86915214D01*
X193881306Y-86915205D01*
X193885274Y-86909175D01*
X193885325Y-86909208D01*
X193889372Y-86902856D01*
X193889320Y-86902824D01*
X193893112Y-86896675D01*
X193925575Y-86827058D01*
X193960036Y-86758440D01*
X193960040Y-86758433D01*
X193960042Y-86758421D01*
X193962509Y-86751646D01*
X193962567Y-86751667D01*
X193965043Y-86744546D01*
X193964986Y-86744527D01*
X193967255Y-86737680D01*
X193967256Y-86737675D01*
X193967257Y-86737673D01*
X193982791Y-86662437D01*
X194000500Y-86587721D01*
X194000500Y-86587719D01*
X194001339Y-86580548D01*
X194001398Y-86580554D01*
X194002164Y-86573054D01*
X194002105Y-86573049D01*
X194002734Y-86565859D01*
X194002069Y-86543021D01*
X194000500Y-86489082D01*
X194000500Y-75794646D01*
X196749501Y-75794646D01*
X196788042Y-76382672D01*
X196788041Y-76382671D01*
X196864960Y-76966927D01*
X196979924Y-77544891D01*
X197132444Y-78114106D01*
X197132444Y-78114105D01*
X197321869Y-78672131D01*
X197547379Y-79216560D01*
X197808016Y-79745080D01*
X197808016Y-79745079D01*
X198048080Y-80160883D01*
X198102665Y-80255426D01*
X198102665Y-80255427D01*
X198430055Y-80745399D01*
X198430055Y-80745400D01*
X198788789Y-81212910D01*
X198788793Y-81212915D01*
X199177340Y-81655968D01*
X199594032Y-82072660D01*
X199995741Y-82424949D01*
X200037090Y-82461211D01*
X200504600Y-82819945D01*
X200504601Y-82819945D01*
X200994573Y-83147335D01*
X200994574Y-83147335D01*
X200994577Y-83147337D01*
X200994579Y-83147338D01*
X201504921Y-83441984D01*
X201504920Y-83441984D01*
X202033440Y-83702621D01*
X202577869Y-83928131D01*
X203135895Y-84117556D01*
X203135894Y-84117556D01*
X203705109Y-84270076D01*
X204283073Y-84385040D01*
X204867329Y-84461959D01*
X204867328Y-84461958D01*
X205455354Y-84500499D01*
X205725240Y-84500499D01*
X205725446Y-84500540D01*
X205750000Y-84500540D01*
X205750459Y-84500540D01*
X205750500Y-84500499D01*
X205750500Y-66499501D01*
X205750459Y-66499460D01*
X205725446Y-66499460D01*
X205725240Y-66499501D01*
X205455354Y-66499501D01*
X204867328Y-66538041D01*
X204867329Y-66538041D01*
X204283073Y-66614960D01*
X203705109Y-66729924D01*
X203135894Y-66882444D01*
X203135895Y-66882444D01*
X202577869Y-67071869D01*
X202033440Y-67297379D01*
X201504920Y-67558016D01*
X201504921Y-67558016D01*
X200994574Y-67852665D01*
X200994573Y-67852665D01*
X200504601Y-68180055D01*
X200504600Y-68180055D01*
X200260611Y-68367275D01*
X200037085Y-68538793D01*
X199594032Y-68927340D01*
X199177340Y-69344032D01*
X198788793Y-69787085D01*
X198788789Y-69787090D01*
X198430055Y-70254600D01*
X198430055Y-70254601D01*
X198102665Y-70744573D01*
X198102665Y-70744574D01*
X198102662Y-70744579D01*
X197808016Y-71254921D01*
X197808016Y-71254920D01*
X197547379Y-71783440D01*
X197321869Y-72327869D01*
X197132444Y-72885895D01*
X197132444Y-72885894D01*
X197024176Y-73289959D01*
X196981858Y-73447893D01*
X196979924Y-73455109D01*
X196864960Y-74033073D01*
X196788041Y-74617329D01*
X196788042Y-74617328D01*
X196749501Y-75205354D01*
X196749501Y-75794646D01*
X194000500Y-75794646D01*
X194000500Y-73563705D01*
X194001809Y-73545735D01*
X194002223Y-73542905D01*
X194005289Y-73521977D01*
X194000735Y-73469933D01*
X194000500Y-73464532D01*
X194000500Y-73456296D01*
X194000500Y-73456291D01*
X193996691Y-73423705D01*
X193989998Y-73347203D01*
X193989995Y-73347194D01*
X193988538Y-73340135D01*
X193988598Y-73340122D01*
X193986966Y-73332764D01*
X193986908Y-73332778D01*
X193985241Y-73325747D01*
X193985241Y-73325745D01*
X193958969Y-73253563D01*
X193951100Y-73229815D01*
X193934815Y-73180668D01*
X193931762Y-73174121D01*
X193931815Y-73174095D01*
X193928531Y-73167311D01*
X193928479Y-73167338D01*
X193925236Y-73160882D01*
X193904003Y-73128599D01*
X193883034Y-73096716D01*
X193842712Y-73031344D01*
X193842710Y-73031342D01*
X193838234Y-73025681D01*
X193838280Y-73025643D01*
X193833519Y-73019799D01*
X193833474Y-73019838D01*
X193828834Y-73014308D01*
X193772982Y-72961613D01*
X191825729Y-71014361D01*
X191813949Y-71000730D01*
X191806482Y-70990701D01*
X191799612Y-70981472D01*
X191799610Y-70981470D01*
X191759587Y-70947886D01*
X191755612Y-70944244D01*
X191752690Y-70941322D01*
X191749780Y-70938411D01*
X191724040Y-70918059D01*
X191665209Y-70868694D01*
X191659180Y-70864729D01*
X191659212Y-70864680D01*
X191652853Y-70860628D01*
X191652822Y-70860679D01*
X191646680Y-70856891D01*
X191646678Y-70856890D01*
X191646677Y-70856889D01*
X191607474Y-70838608D01*
X191577058Y-70824424D01*
X191542894Y-70807267D01*
X191508433Y-70789960D01*
X191508431Y-70789959D01*
X191508430Y-70789959D01*
X191501645Y-70787489D01*
X191501665Y-70787433D01*
X191494549Y-70784959D01*
X191494531Y-70785015D01*
X191487671Y-70782742D01*
X191459841Y-70776996D01*
X191412434Y-70767207D01*
X191363472Y-70755603D01*
X191337719Y-70749499D01*
X191330547Y-70748661D01*
X191330553Y-70748601D01*
X191323055Y-70747835D01*
X191323050Y-70747895D01*
X191315860Y-70747265D01*
X191239083Y-70749500D01*
X190080301Y-70749500D01*
X190013262Y-70729815D01*
X189967507Y-70677011D01*
X189962595Y-70664504D01*
X189962052Y-70662864D01*
X189934814Y-70580666D01*
X189842712Y-70431344D01*
X189718656Y-70307288D01*
X189569334Y-70215186D01*
X189402797Y-70160001D01*
X189402795Y-70160000D01*
X189300010Y-70149500D01*
X187699998Y-70149500D01*
X187699981Y-70149501D01*
X187597203Y-70160000D01*
X187597200Y-70160001D01*
X187430668Y-70215185D01*
X187430663Y-70215187D01*
X187281342Y-70307289D01*
X187157289Y-70431342D01*
X187065187Y-70580663D01*
X187065186Y-70580666D01*
X187010001Y-70747203D01*
X187010001Y-70747204D01*
X187010000Y-70747204D01*
X186999500Y-70849983D01*
X186999500Y-72150001D01*
X186999501Y-72150018D01*
X187010000Y-72252796D01*
X187010001Y-72252799D01*
X187044979Y-72358354D01*
X187065186Y-72419334D01*
X187144573Y-72548042D01*
X187157289Y-72568657D01*
X187281344Y-72692712D01*
X187436120Y-72788178D01*
X187482845Y-72840126D01*
X187494068Y-72909088D01*
X187466224Y-72973171D01*
X187458706Y-72981398D01*
X187311501Y-73128603D01*
X187311501Y-73128604D01*
X187175967Y-73322165D01*
X187175965Y-73322169D01*
X187076098Y-73536335D01*
X187076094Y-73536344D01*
X187014938Y-73764586D01*
X187014936Y-73764596D01*
X186994341Y-73999999D01*
X186994341Y-74000000D01*
X187014936Y-74235403D01*
X187014938Y-74235413D01*
X187076094Y-74463655D01*
X187076096Y-74463659D01*
X187076097Y-74463663D01*
X187126031Y-74570746D01*
X187175964Y-74677828D01*
X187175965Y-74677830D01*
X187311505Y-74871402D01*
X187478597Y-75038494D01*
X187672169Y-75174034D01*
X187672171Y-75174035D01*
X187886337Y-75273903D01*
X188114592Y-75335063D01*
X188291034Y-75350500D01*
X188708966Y-75350500D01*
X188885408Y-75335063D01*
X189113663Y-75273903D01*
X189327829Y-75174035D01*
X189521401Y-75038495D01*
X189688495Y-74871401D01*
X189736127Y-74803376D01*
X189790704Y-74759751D01*
X189837701Y-74750500D01*
X189887770Y-74750500D01*
X189954809Y-74770185D01*
X189975451Y-74786819D01*
X191463181Y-76274548D01*
X191496666Y-76335871D01*
X191499500Y-76362229D01*
X191499500Y-82138770D01*
X191479815Y-82205809D01*
X191427011Y-82251564D01*
X191357853Y-82261508D01*
X191294297Y-82232483D01*
X191287819Y-82226451D01*
X190575729Y-81514361D01*
X190563949Y-81500730D01*
X190556482Y-81490701D01*
X190549612Y-81481472D01*
X190549610Y-81481470D01*
X190509587Y-81447886D01*
X190505612Y-81444244D01*
X190502690Y-81441322D01*
X190499780Y-81438411D01*
X190474040Y-81418059D01*
X190415209Y-81368694D01*
X190409180Y-81364729D01*
X190409212Y-81364680D01*
X190402853Y-81360628D01*
X190402822Y-81360679D01*
X190396680Y-81356891D01*
X190396678Y-81356890D01*
X190396677Y-81356889D01*
X190357474Y-81338608D01*
X190327058Y-81324424D01*
X190292894Y-81307267D01*
X190258433Y-81289960D01*
X190258431Y-81289959D01*
X190258430Y-81289959D01*
X190251645Y-81287489D01*
X190251665Y-81287433D01*
X190244549Y-81284959D01*
X190244531Y-81285015D01*
X190237671Y-81282742D01*
X190203293Y-81275644D01*
X190162434Y-81267207D01*
X190113472Y-81255603D01*
X190087719Y-81249499D01*
X190080547Y-81248661D01*
X190080553Y-81248601D01*
X190073042Y-81247833D01*
X190073037Y-81247894D01*
X190068985Y-81247539D01*
X190068571Y-81247377D01*
X190064265Y-81246937D01*
X190058779Y-81245804D01*
X190059210Y-81243714D01*
X190003919Y-81222078D01*
X189962947Y-81165483D01*
X189962125Y-81163085D01*
X189934814Y-81080666D01*
X189842712Y-80931344D01*
X189718656Y-80807288D01*
X189569334Y-80715186D01*
X189402797Y-80660001D01*
X189402795Y-80660000D01*
X189300010Y-80649500D01*
X187699998Y-80649500D01*
X187699981Y-80649501D01*
X187597203Y-80660000D01*
X187597200Y-80660001D01*
X187430668Y-80715185D01*
X187430663Y-80715187D01*
X187281342Y-80807289D01*
X187157289Y-80931342D01*
X187065187Y-81080663D01*
X187065185Y-81080668D01*
X187064307Y-81083319D01*
X187010001Y-81247203D01*
X187010001Y-81247204D01*
X187010000Y-81247204D01*
X186999500Y-81349983D01*
X186999500Y-82650001D01*
X186999501Y-82650018D01*
X187010000Y-82752796D01*
X187010001Y-82752799D01*
X187040375Y-82844459D01*
X187065186Y-82919334D01*
X187152484Y-83060868D01*
X187157289Y-83068657D01*
X187281344Y-83192712D01*
X187436120Y-83288178D01*
X187482845Y-83340126D01*
X187494068Y-83409088D01*
X187466224Y-83473171D01*
X187458706Y-83481398D01*
X187311501Y-83628603D01*
X187311501Y-83628604D01*
X187175967Y-83822165D01*
X187175965Y-83822169D01*
X187076098Y-84036335D01*
X187076094Y-84036344D01*
X187014938Y-84264586D01*
X187014936Y-84264596D01*
X186994341Y-84499999D01*
X186994341Y-84500000D01*
X187014936Y-84735403D01*
X187014938Y-84735413D01*
X187076094Y-84963655D01*
X187076096Y-84963659D01*
X187076097Y-84963663D01*
X187126031Y-85070746D01*
X187175964Y-85177828D01*
X187175965Y-85177830D01*
X187311505Y-85371402D01*
X187478596Y-85538493D01*
X187478599Y-85538495D01*
X187672171Y-85674035D01*
X187677901Y-85676706D01*
X187730341Y-85722876D01*
X187749500Y-85789090D01*
X187749500Y-95637770D01*
X187729815Y-95704809D01*
X187713181Y-95725451D01*
X186975451Y-96463181D01*
X186914128Y-96496666D01*
X186887770Y-96499500D01*
X186706978Y-96499500D01*
X186639939Y-96479815D01*
X186628313Y-96471353D01*
X186558539Y-96414090D01*
X186558532Y-96414086D01*
X186384733Y-96321188D01*
X186384727Y-96321186D01*
X186196132Y-96263976D01*
X186196129Y-96263975D01*
X186000000Y-96244659D01*
X185803870Y-96263975D01*
X185615266Y-96321188D01*
X185441467Y-96414086D01*
X185441460Y-96414090D01*
X185289116Y-96539116D01*
X185164090Y-96691460D01*
X185164086Y-96691467D01*
X185071188Y-96865266D01*
X185013975Y-97053870D01*
X184994659Y-97250000D01*
X185013975Y-97446129D01*
X185022442Y-97474040D01*
X185064079Y-97611300D01*
X185071188Y-97634733D01*
X185166961Y-97813911D01*
X185165352Y-97814770D01*
X185183679Y-97873271D01*
X185165203Y-97940653D01*
X185113230Y-97987350D01*
X185059699Y-97999500D01*
X181612230Y-97999500D01*
X181545191Y-97979815D01*
X181524549Y-97963181D01*
X180780593Y-97219225D01*
X180747108Y-97157902D01*
X180744871Y-97143697D01*
X180736024Y-97053868D01*
X180678814Y-96865273D01*
X180678811Y-96865269D01*
X180678811Y-96865266D01*
X180585913Y-96691467D01*
X180585909Y-96691460D01*
X180460883Y-96539116D01*
X180308539Y-96414090D01*
X180308532Y-96414086D01*
X180134733Y-96321188D01*
X180134727Y-96321186D01*
X179946132Y-96263976D01*
X179946129Y-96263975D01*
X179750000Y-96244659D01*
X179553870Y-96263975D01*
X179365266Y-96321188D01*
X179191467Y-96414086D01*
X179191460Y-96414090D01*
X179039116Y-96539116D01*
X178914090Y-96691460D01*
X178914086Y-96691467D01*
X178821188Y-96865266D01*
X178763975Y-97053870D01*
X178744659Y-97250000D01*
X178763975Y-97446129D01*
X178772442Y-97474040D01*
X178814079Y-97611300D01*
X178821188Y-97634733D01*
X178914086Y-97808532D01*
X178914090Y-97808539D01*
X179039116Y-97960883D01*
X179191460Y-98085909D01*
X179191467Y-98085913D01*
X179365266Y-98178811D01*
X179365269Y-98178811D01*
X179365273Y-98178814D01*
X179553868Y-98236024D01*
X179643697Y-98244871D01*
X179708485Y-98271031D01*
X179719225Y-98280593D01*
X180023868Y-98585236D01*
X180226452Y-98787819D01*
X180259937Y-98849142D01*
X180254953Y-98918833D01*
X180213082Y-98974767D01*
X180147617Y-98999184D01*
X180138771Y-98999500D01*
X176862229Y-98999500D01*
X176795190Y-98979815D01*
X176774548Y-98963181D01*
X175030593Y-97219225D01*
X174997108Y-97157902D01*
X174994871Y-97143697D01*
X174986024Y-97053868D01*
X174928814Y-96865273D01*
X174928811Y-96865269D01*
X174928811Y-96865266D01*
X174835913Y-96691467D01*
X174835909Y-96691460D01*
X174710883Y-96539116D01*
X174558539Y-96414090D01*
X174558532Y-96414086D01*
X174384733Y-96321188D01*
X174384727Y-96321186D01*
X174196132Y-96263976D01*
X174196129Y-96263975D01*
X174000000Y-96244659D01*
X173803870Y-96263975D01*
X173615266Y-96321188D01*
X173441467Y-96414086D01*
X173441460Y-96414090D01*
X173289116Y-96539116D01*
X173164090Y-96691460D01*
X173164086Y-96691467D01*
X173071188Y-96865266D01*
X173013975Y-97053870D01*
X172994659Y-97250000D01*
X173013975Y-97446129D01*
X173022442Y-97474040D01*
X173064079Y-97611300D01*
X173071188Y-97634733D01*
X173164086Y-97808532D01*
X173164090Y-97808539D01*
X173289116Y-97960883D01*
X173441460Y-98085909D01*
X173441467Y-98085913D01*
X173615266Y-98178811D01*
X173615269Y-98178811D01*
X173615273Y-98178814D01*
X173803868Y-98236024D01*
X173893697Y-98244871D01*
X173958485Y-98271031D01*
X173969225Y-98280593D01*
X175476451Y-99787819D01*
X175509936Y-99849142D01*
X175504952Y-99918834D01*
X175463080Y-99974767D01*
X175397616Y-99999184D01*
X175388770Y-99999500D01*
X172362229Y-99999500D01*
X172295190Y-99979815D01*
X172274548Y-99963181D01*
X169530593Y-97219225D01*
X169497108Y-97157902D01*
X169494871Y-97143697D01*
X169486024Y-97053868D01*
X169428814Y-96865273D01*
X169428811Y-96865269D01*
X169428811Y-96865266D01*
X169335913Y-96691467D01*
X169335909Y-96691460D01*
X169210883Y-96539116D01*
X169058539Y-96414090D01*
X169058532Y-96414086D01*
X168884733Y-96321188D01*
X168884727Y-96321186D01*
X168696132Y-96263976D01*
X168696129Y-96263975D01*
X168500000Y-96244659D01*
X168303870Y-96263975D01*
X168115266Y-96321188D01*
X167941467Y-96414086D01*
X167941460Y-96414090D01*
X167789116Y-96539116D01*
X167664090Y-96691460D01*
X167664086Y-96691467D01*
X167571188Y-96865266D01*
X167513975Y-97053870D01*
X167494659Y-97250000D01*
X165000500Y-97250000D01*
X165000500Y-93313705D01*
X165001809Y-93295735D01*
X165002129Y-93293547D01*
X165005289Y-93271977D01*
X165000735Y-93219931D01*
X165000500Y-93214528D01*
X165000500Y-93206297D01*
X165000500Y-93206291D01*
X164996693Y-93173724D01*
X164989999Y-93097203D01*
X164989999Y-93097201D01*
X164988539Y-93090129D01*
X164988597Y-93090116D01*
X164986965Y-93082757D01*
X164986906Y-93082772D01*
X164985242Y-93075753D01*
X164985241Y-93075745D01*
X164958974Y-93003576D01*
X164934814Y-92930666D01*
X164934809Y-92930659D01*
X164931760Y-92924118D01*
X164931815Y-92924091D01*
X164928533Y-92917313D01*
X164928480Y-92917340D01*
X164925235Y-92910880D01*
X164883028Y-92846708D01*
X164842710Y-92781342D01*
X164838234Y-92775682D01*
X164838281Y-92775644D01*
X164833519Y-92769799D01*
X164833474Y-92769838D01*
X164828834Y-92764309D01*
X164828832Y-92764307D01*
X164828830Y-92764304D01*
X164790377Y-92728025D01*
X164772966Y-92711598D01*
X164536819Y-92475451D01*
X164503334Y-92414128D01*
X164500500Y-92387770D01*
X164500500Y-90475889D01*
X171249416Y-90475889D01*
X171249459Y-90500001D01*
X171249500Y-90500099D01*
X171249616Y-90500382D01*
X171249618Y-90500384D01*
X171249808Y-90500462D01*
X171250000Y-90500541D01*
X171250002Y-90500539D01*
X171274616Y-90500524D01*
X171274616Y-90500528D01*
X171274760Y-90500500D01*
X181225240Y-90500500D01*
X181225383Y-90500528D01*
X181225384Y-90500524D01*
X181249997Y-90500539D01*
X181250000Y-90500541D01*
X181250383Y-90500383D01*
X181250500Y-90500099D01*
X181250541Y-90500000D01*
X181250540Y-90499997D01*
X181250583Y-90475889D01*
X181250500Y-90475467D01*
X181250500Y-80524759D01*
X181250528Y-80524616D01*
X181250524Y-80524616D01*
X181250539Y-80500002D01*
X181250541Y-80500000D01*
X181250462Y-80499808D01*
X181250384Y-80499618D01*
X181250382Y-80499616D01*
X181250099Y-80499500D01*
X181250000Y-80499459D01*
X181225446Y-80499459D01*
X181225240Y-80499500D01*
X171274760Y-80499500D01*
X171274554Y-80499459D01*
X171250000Y-80499459D01*
X171249901Y-80499500D01*
X171249617Y-80499616D01*
X171249615Y-80499618D01*
X171249459Y-80499999D01*
X171249476Y-80524616D01*
X171249471Y-80524616D01*
X171249500Y-80524759D01*
X171249500Y-90475467D01*
X171249416Y-90475889D01*
X164500500Y-90475889D01*
X164500500Y-88563705D01*
X164501809Y-88545735D01*
X164505289Y-88521974D01*
X164502408Y-88489045D01*
X164500735Y-88469933D01*
X164500500Y-88464532D01*
X164500500Y-88456296D01*
X164500500Y-88456291D01*
X164496691Y-88423705D01*
X164489998Y-88347203D01*
X164489995Y-88347194D01*
X164488538Y-88340135D01*
X164488598Y-88340122D01*
X164486966Y-88332764D01*
X164486908Y-88332778D01*
X164485241Y-88325747D01*
X164485241Y-88325745D01*
X164458969Y-88253563D01*
X164448599Y-88222267D01*
X164434815Y-88180668D01*
X164431762Y-88174121D01*
X164431815Y-88174095D01*
X164428531Y-88167311D01*
X164428479Y-88167338D01*
X164425236Y-88160882D01*
X164421521Y-88155234D01*
X164383034Y-88096716D01*
X164375833Y-88085042D01*
X164342714Y-88031347D01*
X164338234Y-88025681D01*
X164338280Y-88025643D01*
X164333519Y-88019799D01*
X164333474Y-88019838D01*
X164328834Y-88014308D01*
X164272982Y-87961613D01*
X162780593Y-86469225D01*
X162747108Y-86407902D01*
X162744871Y-86393697D01*
X162736024Y-86303871D01*
X162736024Y-86303870D01*
X162736024Y-86303868D01*
X162678814Y-86115273D01*
X162678811Y-86115269D01*
X162678811Y-86115266D01*
X162585913Y-85941467D01*
X162585909Y-85941460D01*
X162460883Y-85789116D01*
X162308539Y-85664090D01*
X162308532Y-85664086D01*
X162134733Y-85571188D01*
X162134727Y-85571186D01*
X161946132Y-85513976D01*
X161946129Y-85513975D01*
X161750000Y-85494659D01*
X161553870Y-85513975D01*
X161365266Y-85571188D01*
X161191467Y-85664086D01*
X161191460Y-85664090D01*
X161039116Y-85789116D01*
X160914090Y-85941460D01*
X160914086Y-85941467D01*
X160821188Y-86115266D01*
X160763975Y-86303870D01*
X160744659Y-86500000D01*
X160763975Y-86696129D01*
X160821188Y-86884733D01*
X160914086Y-87058532D01*
X160914090Y-87058539D01*
X161039116Y-87210883D01*
X161191460Y-87335909D01*
X161191467Y-87335913D01*
X161365266Y-87428811D01*
X161365269Y-87428811D01*
X161365273Y-87428814D01*
X161553868Y-87486024D01*
X161643697Y-87494871D01*
X161708485Y-87521031D01*
X161719225Y-87530593D01*
X162963181Y-88774548D01*
X162996666Y-88835871D01*
X162999500Y-88862229D01*
X162999500Y-92686294D01*
X162998191Y-92704263D01*
X162994710Y-92728025D01*
X162997885Y-92764304D01*
X162998880Y-92775682D01*
X162999264Y-92780064D01*
X162999500Y-92785470D01*
X162999500Y-92793709D01*
X163003306Y-92826274D01*
X163010000Y-92902791D01*
X163011461Y-92909867D01*
X163011403Y-92909878D01*
X163013034Y-92917237D01*
X163013092Y-92917224D01*
X163014757Y-92924250D01*
X163041025Y-92996424D01*
X163065185Y-93069331D01*
X163068236Y-93075874D01*
X163068182Y-93075898D01*
X163071470Y-93082688D01*
X163071521Y-93082663D01*
X163074761Y-93089113D01*
X163074762Y-93089114D01*
X163074763Y-93089117D01*
X163116965Y-93153283D01*
X163157287Y-93218655D01*
X163161766Y-93224319D01*
X163161719Y-93224356D01*
X163166482Y-93230202D01*
X163166528Y-93230164D01*
X163171173Y-93235700D01*
X163227017Y-93288385D01*
X163463181Y-93524549D01*
X163496666Y-93585872D01*
X163499500Y-93612230D01*
X163499500Y-96888770D01*
X163479815Y-96955809D01*
X163427011Y-97001564D01*
X163357853Y-97011508D01*
X163294297Y-96982483D01*
X163287819Y-96976451D01*
X162980729Y-96669361D01*
X162968949Y-96655730D01*
X162961482Y-96645701D01*
X162954612Y-96636472D01*
X162954610Y-96636470D01*
X162914587Y-96602886D01*
X162910612Y-96599244D01*
X162907690Y-96596322D01*
X162904780Y-96593411D01*
X162879040Y-96573059D01*
X162856145Y-96553848D01*
X162820214Y-96523698D01*
X162820213Y-96523697D01*
X162820209Y-96523694D01*
X162814180Y-96519729D01*
X162814212Y-96519680D01*
X162807853Y-96515628D01*
X162807822Y-96515679D01*
X162801680Y-96511891D01*
X162801678Y-96511890D01*
X162801677Y-96511889D01*
X162746483Y-96486151D01*
X162732058Y-96479424D01*
X162697894Y-96462267D01*
X162663433Y-96444960D01*
X162663431Y-96444959D01*
X162663430Y-96444959D01*
X162656645Y-96442489D01*
X162656665Y-96442433D01*
X162649549Y-96439959D01*
X162649531Y-96440015D01*
X162642672Y-96437742D01*
X162582969Y-96425414D01*
X162567434Y-96422207D01*
X162558443Y-96420076D01*
X162497753Y-96385461D01*
X162483236Y-96367241D01*
X162466288Y-96341300D01*
X162433979Y-96291847D01*
X162276784Y-96121087D01*
X162276779Y-96121083D01*
X162276777Y-96121081D01*
X162093634Y-95978535D01*
X162093628Y-95978531D01*
X161889504Y-95868064D01*
X161889495Y-95868061D01*
X161669984Y-95792702D01*
X161498282Y-95764050D01*
X161441049Y-95754500D01*
X161208951Y-95754500D01*
X161163164Y-95762140D01*
X160980015Y-95792702D01*
X160760504Y-95868061D01*
X160760495Y-95868064D01*
X160556371Y-95978531D01*
X160556365Y-95978535D01*
X160373222Y-96121081D01*
X160373219Y-96121084D01*
X160216016Y-96291852D01*
X160089075Y-96486151D01*
X159995841Y-96698702D01*
X159994705Y-96703191D01*
X159959165Y-96763346D01*
X159896744Y-96794738D01*
X159827261Y-96787398D01*
X159772776Y-96743659D01*
X159750587Y-96677406D01*
X159750500Y-96672749D01*
X159750500Y-91813705D01*
X159751809Y-91795735D01*
X159755289Y-91771974D01*
X159750736Y-91719939D01*
X159750500Y-91714532D01*
X159750500Y-91706296D01*
X159750500Y-91706291D01*
X159746691Y-91673705D01*
X159739998Y-91597203D01*
X159739995Y-91597194D01*
X159738538Y-91590135D01*
X159738598Y-91590122D01*
X159736966Y-91582764D01*
X159736908Y-91582778D01*
X159735241Y-91575747D01*
X159735241Y-91575745D01*
X159708969Y-91503563D01*
X159684814Y-91430666D01*
X159681762Y-91424121D01*
X159681815Y-91424095D01*
X159678531Y-91417311D01*
X159678479Y-91417338D01*
X159675236Y-91410882D01*
X159650291Y-91372955D01*
X159633034Y-91346716D01*
X159592712Y-91281344D01*
X159592710Y-91281342D01*
X159588234Y-91275681D01*
X159588280Y-91275643D01*
X159583519Y-91269799D01*
X159583474Y-91269838D01*
X159578834Y-91264308D01*
X159522982Y-91211613D01*
X157575729Y-89264361D01*
X157563949Y-89250730D01*
X157551815Y-89234432D01*
X157549612Y-89231472D01*
X157549610Y-89231470D01*
X157509587Y-89197886D01*
X157505612Y-89194244D01*
X157502690Y-89191322D01*
X157499780Y-89188411D01*
X157474040Y-89168059D01*
X157415209Y-89118694D01*
X157409180Y-89114729D01*
X157409212Y-89114680D01*
X157402853Y-89110628D01*
X157402822Y-89110679D01*
X157396680Y-89106891D01*
X157396678Y-89106890D01*
X157396677Y-89106889D01*
X157357474Y-89088608D01*
X157327058Y-89074424D01*
X157292894Y-89057267D01*
X157258433Y-89039960D01*
X157258431Y-89039959D01*
X157258430Y-89039959D01*
X157251645Y-89037489D01*
X157251665Y-89037433D01*
X157244549Y-89034959D01*
X157244531Y-89035015D01*
X157237671Y-89032742D01*
X157209841Y-89026996D01*
X157162434Y-89017207D01*
X157113472Y-89005603D01*
X157087719Y-88999499D01*
X157080547Y-88998661D01*
X157080553Y-88998601D01*
X157073055Y-88997835D01*
X157073050Y-88997895D01*
X157065860Y-88997265D01*
X156989083Y-88999500D01*
X153612229Y-88999500D01*
X153545190Y-88979815D01*
X153524548Y-88963181D01*
X152786819Y-88225451D01*
X152753334Y-88164128D01*
X152750500Y-88137770D01*
X152750500Y-87955759D01*
X152770185Y-87888720D01*
X152822989Y-87842965D01*
X152892147Y-87833021D01*
X152955703Y-87862046D01*
X152970354Y-87877095D01*
X153039117Y-87960883D01*
X153191460Y-88085909D01*
X153191467Y-88085913D01*
X153365266Y-88178811D01*
X153365269Y-88178811D01*
X153365273Y-88178814D01*
X153553868Y-88236024D01*
X153750000Y-88255341D01*
X153946132Y-88236024D01*
X154134727Y-88178814D01*
X154308538Y-88085910D01*
X154308540Y-88085908D01*
X154313910Y-88083038D01*
X154314851Y-88084799D01*
X154372765Y-88066654D01*
X154435634Y-88083889D01*
X154436090Y-88083038D01*
X154439840Y-88085042D01*
X154440148Y-88085127D01*
X154440888Y-88085602D01*
X154441457Y-88085906D01*
X154441462Y-88085910D01*
X154615273Y-88178814D01*
X154803868Y-88236024D01*
X155000000Y-88255341D01*
X155196132Y-88236024D01*
X155384727Y-88178814D01*
X155418276Y-88160882D01*
X155538321Y-88096716D01*
X155558538Y-88085910D01*
X155710883Y-87960883D01*
X155835910Y-87808538D01*
X155928814Y-87634727D01*
X155986024Y-87446132D01*
X156005341Y-87250000D01*
X155986024Y-87053868D01*
X155928814Y-86865273D01*
X155928811Y-86865269D01*
X155928811Y-86865266D01*
X155835913Y-86691467D01*
X155835911Y-86691465D01*
X155835910Y-86691462D01*
X155812090Y-86662437D01*
X155778647Y-86621686D01*
X155751334Y-86557376D01*
X155750500Y-86543021D01*
X155750500Y-81813705D01*
X155751809Y-81795735D01*
X155752129Y-81793547D01*
X155755289Y-81771977D01*
X155750735Y-81719931D01*
X155750500Y-81714528D01*
X155750500Y-81706297D01*
X155750500Y-81706291D01*
X155746693Y-81673724D01*
X155739999Y-81597203D01*
X155739999Y-81597201D01*
X155738539Y-81590129D01*
X155738597Y-81590116D01*
X155736965Y-81582757D01*
X155736906Y-81582772D01*
X155735242Y-81575753D01*
X155735241Y-81575745D01*
X155708974Y-81503576D01*
X155684814Y-81430666D01*
X155684809Y-81430659D01*
X155681760Y-81424118D01*
X155681815Y-81424091D01*
X155678533Y-81417313D01*
X155678480Y-81417340D01*
X155675235Y-81410880D01*
X155633028Y-81346708D01*
X155596536Y-81287545D01*
X155592712Y-81281345D01*
X155592711Y-81281344D01*
X155592710Y-81281342D01*
X155588234Y-81275682D01*
X155588281Y-81275644D01*
X155583519Y-81269799D01*
X155583474Y-81269838D01*
X155578834Y-81264308D01*
X155522964Y-81211596D01*
X152036819Y-77725451D01*
X152003334Y-77664128D01*
X152000500Y-77637770D01*
X152000500Y-75980863D01*
X152020185Y-75913824D01*
X152042448Y-75888540D01*
X152042404Y-75888496D01*
X152043103Y-75887796D01*
X152044806Y-75885863D01*
X152046218Y-75884676D01*
X152046233Y-75884667D01*
X152204667Y-75726233D01*
X152333181Y-75542696D01*
X152377618Y-75447399D01*
X152423790Y-75394960D01*
X152490983Y-75375808D01*
X152557865Y-75396023D01*
X152602382Y-75447400D01*
X152646817Y-75542692D01*
X152646821Y-75542700D01*
X152775329Y-75726228D01*
X152775333Y-75726233D01*
X152933767Y-75884667D01*
X152933769Y-75884668D01*
X152933771Y-75884670D01*
X153117299Y-76013178D01*
X153117301Y-76013179D01*
X153117304Y-76013181D01*
X153320370Y-76107872D01*
X153536794Y-76165863D01*
X153696226Y-76179811D01*
X153759998Y-76185391D01*
X153760000Y-76185391D01*
X153760002Y-76185391D01*
X153815927Y-76180498D01*
X153983206Y-76165863D01*
X154199630Y-76107872D01*
X154402696Y-76013181D01*
X154586233Y-75884667D01*
X154744667Y-75726233D01*
X154873181Y-75542696D01*
X154967872Y-75339630D01*
X155025863Y-75123206D01*
X155045391Y-74900000D01*
X155025863Y-74676794D01*
X154967872Y-74460370D01*
X154873181Y-74257305D01*
X154744667Y-74073767D01*
X154586233Y-73915333D01*
X154586229Y-73915330D01*
X154586228Y-73915329D01*
X154402700Y-73786821D01*
X154402696Y-73786819D01*
X154376381Y-73774548D01*
X154199630Y-73692128D01*
X154199627Y-73692127D01*
X154199625Y-73692126D01*
X153983208Y-73634137D01*
X153983200Y-73634136D01*
X153760002Y-73614609D01*
X153759998Y-73614609D01*
X153536799Y-73634136D01*
X153536791Y-73634137D01*
X153320374Y-73692126D01*
X153320368Y-73692129D01*
X153117306Y-73786818D01*
X153117304Y-73786819D01*
X152933764Y-73915334D01*
X152775334Y-74073764D01*
X152646819Y-74257304D01*
X152646818Y-74257306D01*
X152602382Y-74352600D01*
X152556209Y-74405039D01*
X152489016Y-74424191D01*
X152422135Y-74403975D01*
X152377618Y-74352600D01*
X152333181Y-74257306D01*
X152333180Y-74257304D01*
X152317848Y-74235408D01*
X152204667Y-74073767D01*
X152046233Y-73915333D01*
X152046229Y-73915330D01*
X152046228Y-73915329D01*
X151862700Y-73786821D01*
X151862696Y-73786819D01*
X151836381Y-73774548D01*
X151659630Y-73692128D01*
X151659627Y-73692127D01*
X151659625Y-73692126D01*
X151443208Y-73634137D01*
X151443200Y-73634136D01*
X151220002Y-73614609D01*
X151219998Y-73614609D01*
X150996799Y-73634136D01*
X150996791Y-73634137D01*
X150780374Y-73692126D01*
X150780368Y-73692129D01*
X150577306Y-73786818D01*
X150577304Y-73786819D01*
X150393764Y-73915334D01*
X150235334Y-74073764D01*
X150106819Y-74257304D01*
X150106818Y-74257306D01*
X150062382Y-74352600D01*
X150016209Y-74405039D01*
X149949016Y-74424191D01*
X149882135Y-74403975D01*
X149837618Y-74352600D01*
X149793181Y-74257306D01*
X149793180Y-74257304D01*
X149777848Y-74235408D01*
X149664667Y-74073767D01*
X149506233Y-73915333D01*
X149506229Y-73915330D01*
X149506228Y-73915329D01*
X149322700Y-73786821D01*
X149322696Y-73786819D01*
X149296381Y-73774548D01*
X149119630Y-73692128D01*
X149119627Y-73692127D01*
X149119625Y-73692126D01*
X148903208Y-73634137D01*
X148903200Y-73634136D01*
X148680002Y-73614609D01*
X148679998Y-73614609D01*
X148456799Y-73634136D01*
X148456791Y-73634137D01*
X148240374Y-73692126D01*
X148240368Y-73692129D01*
X148037306Y-73786818D01*
X148037304Y-73786819D01*
X147853764Y-73915334D01*
X147695334Y-74073764D01*
X147566819Y-74257304D01*
X147566818Y-74257306D01*
X147522382Y-74352600D01*
X147476209Y-74405039D01*
X147409016Y-74424191D01*
X147342135Y-74403975D01*
X147297618Y-74352600D01*
X147253181Y-74257306D01*
X147253180Y-74257304D01*
X147237848Y-74235408D01*
X147124667Y-74073767D01*
X146966233Y-73915333D01*
X146966229Y-73915330D01*
X146966228Y-73915329D01*
X146782700Y-73786821D01*
X146782696Y-73786819D01*
X146756381Y-73774548D01*
X146579630Y-73692128D01*
X146579627Y-73692127D01*
X146579625Y-73692126D01*
X146363208Y-73634137D01*
X146363200Y-73634136D01*
X146140002Y-73614609D01*
X146139998Y-73614609D01*
X145916799Y-73634136D01*
X145916791Y-73634137D01*
X145700374Y-73692126D01*
X145700368Y-73692129D01*
X145497306Y-73786818D01*
X145497304Y-73786819D01*
X145313764Y-73915334D01*
X145155334Y-74073764D01*
X145026819Y-74257304D01*
X145026818Y-74257306D01*
X144982382Y-74352600D01*
X144936209Y-74405039D01*
X144869016Y-74424191D01*
X144802135Y-74403975D01*
X144757618Y-74352600D01*
X144713181Y-74257306D01*
X144713180Y-74257304D01*
X144697848Y-74235408D01*
X144584667Y-74073767D01*
X144426233Y-73915333D01*
X144426229Y-73915330D01*
X144426228Y-73915329D01*
X144242700Y-73786821D01*
X144242696Y-73786819D01*
X144216381Y-73774548D01*
X144039630Y-73692128D01*
X144039627Y-73692127D01*
X144039625Y-73692126D01*
X143823208Y-73634137D01*
X143823200Y-73634136D01*
X143600002Y-73614609D01*
X143599998Y-73614609D01*
X143376799Y-73634136D01*
X143376791Y-73634137D01*
X143160374Y-73692126D01*
X143160368Y-73692129D01*
X142957306Y-73786818D01*
X142957304Y-73786819D01*
X142773764Y-73915334D01*
X142615334Y-74073764D01*
X142486819Y-74257304D01*
X142486818Y-74257306D01*
X142442382Y-74352600D01*
X142396209Y-74405039D01*
X142329016Y-74424191D01*
X142262135Y-74403975D01*
X142217618Y-74352600D01*
X142173181Y-74257306D01*
X142173180Y-74257304D01*
X142157848Y-74235408D01*
X142044667Y-74073767D01*
X141886233Y-73915333D01*
X141886229Y-73915330D01*
X141886228Y-73915329D01*
X141702700Y-73786821D01*
X141702696Y-73786819D01*
X141676381Y-73774548D01*
X141499630Y-73692128D01*
X141499627Y-73692127D01*
X141499625Y-73692126D01*
X141283208Y-73634137D01*
X141283200Y-73634136D01*
X141060002Y-73614609D01*
X141059998Y-73614609D01*
X140836799Y-73634136D01*
X140836791Y-73634137D01*
X140620374Y-73692126D01*
X140620368Y-73692129D01*
X140417306Y-73786818D01*
X140417304Y-73786819D01*
X140233764Y-73915334D01*
X140075334Y-74073764D01*
X139946819Y-74257304D01*
X139946818Y-74257306D01*
X139902382Y-74352600D01*
X139856209Y-74405039D01*
X139789016Y-74424191D01*
X139722135Y-74403975D01*
X139677618Y-74352600D01*
X139633181Y-74257306D01*
X139633180Y-74257304D01*
X139617848Y-74235408D01*
X139504667Y-74073767D01*
X139346233Y-73915333D01*
X139346229Y-73915330D01*
X139346228Y-73915329D01*
X139162700Y-73786821D01*
X139162696Y-73786819D01*
X139136381Y-73774548D01*
X138959630Y-73692128D01*
X138959627Y-73692127D01*
X138959625Y-73692126D01*
X138743208Y-73634137D01*
X138743200Y-73634136D01*
X138520002Y-73614609D01*
X138519998Y-73614609D01*
X138296799Y-73634136D01*
X138296791Y-73634137D01*
X138080374Y-73692126D01*
X138080368Y-73692129D01*
X137877306Y-73786818D01*
X137877304Y-73786819D01*
X137693764Y-73915334D01*
X137535334Y-74073764D01*
X137406819Y-74257304D01*
X137406818Y-74257306D01*
X137362382Y-74352600D01*
X137316209Y-74405039D01*
X137249016Y-74424191D01*
X137182135Y-74403975D01*
X137137618Y-74352600D01*
X137093181Y-74257306D01*
X137093180Y-74257304D01*
X137077848Y-74235408D01*
X136964667Y-74073767D01*
X136806233Y-73915333D01*
X136806229Y-73915330D01*
X136806228Y-73915329D01*
X136622700Y-73786821D01*
X136622696Y-73786819D01*
X136596381Y-73774548D01*
X136419630Y-73692128D01*
X136419627Y-73692127D01*
X136419625Y-73692126D01*
X136203208Y-73634137D01*
X136203200Y-73634136D01*
X135980002Y-73614609D01*
X135979998Y-73614609D01*
X135756799Y-73634136D01*
X135756791Y-73634137D01*
X135540374Y-73692126D01*
X135540368Y-73692129D01*
X135337306Y-73786818D01*
X135337304Y-73786819D01*
X135153764Y-73915334D01*
X134995334Y-74073764D01*
X134866819Y-74257304D01*
X134866818Y-74257306D01*
X134822382Y-74352600D01*
X134776209Y-74405039D01*
X134709016Y-74424191D01*
X134642135Y-74403975D01*
X134597618Y-74352600D01*
X134553181Y-74257306D01*
X134553180Y-74257304D01*
X134537848Y-74235408D01*
X134424667Y-74073767D01*
X134266233Y-73915333D01*
X134266229Y-73915330D01*
X134266228Y-73915329D01*
X134082700Y-73786821D01*
X134082696Y-73786819D01*
X134056381Y-73774548D01*
X133879630Y-73692128D01*
X133879627Y-73692127D01*
X133879625Y-73692126D01*
X133663208Y-73634137D01*
X133663200Y-73634136D01*
X133440002Y-73614609D01*
X133439998Y-73614609D01*
X133216799Y-73634136D01*
X133216791Y-73634137D01*
X133000374Y-73692126D01*
X133000368Y-73692129D01*
X132797306Y-73786818D01*
X132797304Y-73786819D01*
X132613764Y-73915334D01*
X132455334Y-74073764D01*
X132326819Y-74257304D01*
X132326818Y-74257306D01*
X132282382Y-74352600D01*
X132236209Y-74405039D01*
X132169016Y-74424191D01*
X132102135Y-74403975D01*
X132057618Y-74352600D01*
X132013181Y-74257306D01*
X132013180Y-74257304D01*
X131997848Y-74235408D01*
X131884667Y-74073767D01*
X131726233Y-73915333D01*
X131726229Y-73915330D01*
X131726228Y-73915329D01*
X131542700Y-73786821D01*
X131542696Y-73786819D01*
X131516381Y-73774548D01*
X131339630Y-73692128D01*
X131339627Y-73692127D01*
X131339625Y-73692126D01*
X131123208Y-73634137D01*
X131123200Y-73634136D01*
X130900002Y-73614609D01*
X130899998Y-73614609D01*
X130676799Y-73634136D01*
X130676791Y-73634137D01*
X130460374Y-73692126D01*
X130460368Y-73692129D01*
X130257306Y-73786818D01*
X130257304Y-73786819D01*
X130073764Y-73915334D01*
X129915334Y-74073764D01*
X129786819Y-74257304D01*
X129786818Y-74257306D01*
X129742382Y-74352600D01*
X129696209Y-74405039D01*
X129629016Y-74424191D01*
X129562135Y-74403975D01*
X129517618Y-74352600D01*
X129473181Y-74257306D01*
X129473180Y-74257304D01*
X129457848Y-74235408D01*
X129344667Y-74073767D01*
X129186233Y-73915333D01*
X129186229Y-73915330D01*
X129186228Y-73915329D01*
X129002700Y-73786821D01*
X129002696Y-73786819D01*
X128976381Y-73774548D01*
X128799630Y-73692128D01*
X128799627Y-73692127D01*
X128799625Y-73692126D01*
X128583208Y-73634137D01*
X128583200Y-73634136D01*
X128360002Y-73614609D01*
X128359998Y-73614609D01*
X128136799Y-73634136D01*
X128136791Y-73634137D01*
X127920374Y-73692126D01*
X127920368Y-73692129D01*
X127717306Y-73786818D01*
X127717304Y-73786819D01*
X127533764Y-73915334D01*
X127375334Y-74073764D01*
X127246819Y-74257304D01*
X127246818Y-74257306D01*
X127202382Y-74352600D01*
X127156209Y-74405039D01*
X127089016Y-74424191D01*
X127022135Y-74403975D01*
X126977618Y-74352600D01*
X126933181Y-74257306D01*
X126933180Y-74257304D01*
X126917848Y-74235408D01*
X126804667Y-74073767D01*
X126646233Y-73915333D01*
X126646229Y-73915330D01*
X126646228Y-73915329D01*
X126462700Y-73786821D01*
X126462696Y-73786819D01*
X126436381Y-73774548D01*
X126259630Y-73692128D01*
X126259627Y-73692127D01*
X126259625Y-73692126D01*
X126043208Y-73634137D01*
X126043200Y-73634136D01*
X125820002Y-73614609D01*
X125819998Y-73614609D01*
X125596799Y-73634136D01*
X125596791Y-73634137D01*
X125380374Y-73692126D01*
X125380368Y-73692129D01*
X125177306Y-73786818D01*
X125177304Y-73786819D01*
X124993764Y-73915334D01*
X124835333Y-74073765D01*
X124786074Y-74144116D01*
X124731497Y-74187741D01*
X124661999Y-74194935D01*
X124599644Y-74163412D01*
X124564230Y-74103183D01*
X124560800Y-74075429D01*
X124560676Y-74075436D01*
X124560580Y-74073652D01*
X124560499Y-74072993D01*
X124560499Y-74072129D01*
X124560498Y-74072123D01*
X124560497Y-74072116D01*
X124554091Y-74012517D01*
X124553435Y-74010759D01*
X124503797Y-73877671D01*
X124503793Y-73877664D01*
X124417547Y-73762455D01*
X124417544Y-73762452D01*
X124302335Y-73676206D01*
X124302328Y-73676202D01*
X124167482Y-73625908D01*
X124167483Y-73625908D01*
X124107883Y-73619501D01*
X124107881Y-73619500D01*
X124107873Y-73619500D01*
X124107864Y-73619500D01*
X122452129Y-73619500D01*
X122452123Y-73619501D01*
X122392516Y-73625908D01*
X122257671Y-73676202D01*
X122257664Y-73676206D01*
X122142455Y-73762452D01*
X122142452Y-73762455D01*
X122056206Y-73877664D01*
X122056202Y-73877671D01*
X122005908Y-74012517D01*
X121999501Y-74072116D01*
X121999501Y-74072123D01*
X121999500Y-74072135D01*
X121999500Y-75727870D01*
X121999501Y-75727876D01*
X122005908Y-75787483D01*
X122056202Y-75922328D01*
X122056206Y-75922335D01*
X122142452Y-76037544D01*
X122142455Y-76037547D01*
X122257664Y-76123793D01*
X122257671Y-76123797D01*
X122392517Y-76174091D01*
X122392516Y-76174091D01*
X122399444Y-76174835D01*
X122452127Y-76180500D01*
X124107872Y-76180499D01*
X124167483Y-76174091D01*
X124302331Y-76123796D01*
X124417546Y-76037546D01*
X124503796Y-75922331D01*
X124554091Y-75787483D01*
X124560500Y-75727873D01*
X124560499Y-75727034D01*
X124560554Y-75726849D01*
X124560678Y-75724547D01*
X124561221Y-75724576D01*
X124580168Y-75659993D01*
X124632961Y-75614226D01*
X124702117Y-75604266D01*
X124765679Y-75633276D01*
X124786074Y-75655884D01*
X124835333Y-75726233D01*
X124993767Y-75884667D01*
X124993769Y-75884668D01*
X124993771Y-75884670D01*
X125177299Y-76013178D01*
X125177301Y-76013179D01*
X125177304Y-76013181D01*
X125380370Y-76107872D01*
X125596794Y-76165863D01*
X125756226Y-76179811D01*
X125819998Y-76185391D01*
X125820000Y-76185391D01*
X125820002Y-76185391D01*
X125875927Y-76180498D01*
X126043206Y-76165863D01*
X126259630Y-76107872D01*
X126462696Y-76013181D01*
X126646233Y-75884667D01*
X126804667Y-75726233D01*
X126933181Y-75542696D01*
X126977618Y-75447399D01*
X127023790Y-75394960D01*
X127090983Y-75375808D01*
X127157865Y-75396023D01*
X127202382Y-75447400D01*
X127246817Y-75542692D01*
X127246821Y-75542700D01*
X127375329Y-75726228D01*
X127375333Y-75726233D01*
X127533767Y-75884667D01*
X127533769Y-75884668D01*
X127533771Y-75884670D01*
X127717299Y-76013178D01*
X127717301Y-76013179D01*
X127717304Y-76013181D01*
X127920370Y-76107872D01*
X128136794Y-76165863D01*
X128296226Y-76179811D01*
X128359998Y-76185391D01*
X128360000Y-76185391D01*
X128360002Y-76185391D01*
X128415927Y-76180498D01*
X128583206Y-76165863D01*
X128799630Y-76107872D01*
X129002696Y-76013181D01*
X129186233Y-75884667D01*
X129344667Y-75726233D01*
X129473181Y-75542696D01*
X129517618Y-75447399D01*
X129563790Y-75394960D01*
X129630983Y-75375808D01*
X129697865Y-75396023D01*
X129742382Y-75447400D01*
X129786817Y-75542692D01*
X129786821Y-75542700D01*
X129915329Y-75726228D01*
X129915333Y-75726233D01*
X130073767Y-75884667D01*
X130073769Y-75884668D01*
X130073771Y-75884670D01*
X130257299Y-76013178D01*
X130257301Y-76013179D01*
X130257304Y-76013181D01*
X130460370Y-76107872D01*
X130676794Y-76165863D01*
X130836226Y-76179811D01*
X130899998Y-76185391D01*
X130900000Y-76185391D01*
X130900002Y-76185391D01*
X130955927Y-76180498D01*
X131123206Y-76165863D01*
X131339630Y-76107872D01*
X131542696Y-76013181D01*
X131726233Y-75884667D01*
X131884667Y-75726233D01*
X132013181Y-75542696D01*
X132057618Y-75447399D01*
X132103790Y-75394960D01*
X132170983Y-75375808D01*
X132237865Y-75396023D01*
X132282382Y-75447400D01*
X132326817Y-75542692D01*
X132326821Y-75542700D01*
X132455329Y-75726228D01*
X132455334Y-75726234D01*
X132496185Y-75767085D01*
X132529670Y-75828408D01*
X132524686Y-75898100D01*
X132496185Y-75942447D01*
X131225451Y-77213181D01*
X131164128Y-77246666D01*
X131137770Y-77249500D01*
X129813705Y-77249500D01*
X129795735Y-77248191D01*
X129771972Y-77244710D01*
X129726890Y-77248655D01*
X129719933Y-77249264D01*
X129714532Y-77249500D01*
X129706288Y-77249500D01*
X129673707Y-77253308D01*
X129597199Y-77260001D01*
X129590133Y-77261461D01*
X129590121Y-77261404D01*
X129582754Y-77263038D01*
X129582768Y-77263094D01*
X129575751Y-77264756D01*
X129503573Y-77291026D01*
X129430662Y-77315187D01*
X129424119Y-77318238D01*
X129424094Y-77318186D01*
X129417310Y-77321470D01*
X129417336Y-77321521D01*
X129410885Y-77324761D01*
X129346723Y-77366961D01*
X129281346Y-77407285D01*
X129275682Y-77411765D01*
X129275646Y-77411719D01*
X129269798Y-77416484D01*
X129269835Y-77416528D01*
X129264310Y-77421164D01*
X129211614Y-77477017D01*
X127764358Y-78924272D01*
X127750729Y-78936051D01*
X127731468Y-78950390D01*
X127697898Y-78990397D01*
X127694253Y-78994376D01*
X127688409Y-79000222D01*
X127668059Y-79025959D01*
X127618695Y-79084789D01*
X127614729Y-79090819D01*
X127614682Y-79090788D01*
X127610630Y-79097147D01*
X127610679Y-79097177D01*
X127606889Y-79103321D01*
X127574424Y-79172941D01*
X127539960Y-79241566D01*
X127537488Y-79248357D01*
X127537432Y-79248336D01*
X127534960Y-79255450D01*
X127535015Y-79255469D01*
X127532742Y-79262327D01*
X127524975Y-79299946D01*
X127517207Y-79337565D01*
X127509927Y-79368284D01*
X127499498Y-79412286D01*
X127498661Y-79419454D01*
X127498601Y-79419447D01*
X127497835Y-79426945D01*
X127497895Y-79426951D01*
X127497265Y-79434140D01*
X127499500Y-79510916D01*
X127499500Y-80687298D01*
X127479815Y-80754337D01*
X127446625Y-80788872D01*
X127378595Y-80836507D01*
X127211505Y-81003597D01*
X127075965Y-81197169D01*
X127075964Y-81197171D01*
X126976098Y-81411335D01*
X126976094Y-81411344D01*
X126914938Y-81639586D01*
X126914936Y-81639596D01*
X126899500Y-81816034D01*
X126899500Y-82183966D01*
X126914936Y-82360403D01*
X126914938Y-82360413D01*
X126976094Y-82588655D01*
X126976096Y-82588659D01*
X126976097Y-82588663D01*
X127014133Y-82670231D01*
X127075964Y-82802828D01*
X127075965Y-82802830D01*
X127211505Y-82996402D01*
X127247922Y-83032819D01*
X127281407Y-83094142D01*
X127276423Y-83163834D01*
X127234551Y-83219767D01*
X127169087Y-83244184D01*
X127160241Y-83244500D01*
X125760746Y-83244500D01*
X125693707Y-83224815D01*
X125673069Y-83208185D01*
X125417279Y-82952394D01*
X125352316Y-82887430D01*
X125336056Y-82872531D01*
X125302603Y-82844459D01*
X125296014Y-82839403D01*
X125285095Y-82831024D01*
X125213650Y-82780998D01*
X125197098Y-82767109D01*
X125107890Y-82677902D01*
X125093996Y-82661343D01*
X125021631Y-82557995D01*
X125010824Y-82539277D01*
X125000902Y-82517999D01*
X124957508Y-82424938D01*
X124950121Y-82404644D01*
X124917465Y-82282768D01*
X124913713Y-82261486D01*
X124905236Y-82164594D01*
X124905000Y-82159188D01*
X124905000Y-81840814D01*
X124905236Y-81835408D01*
X124913712Y-81738511D01*
X124917465Y-81717229D01*
X124920395Y-81706297D01*
X124950116Y-81595368D01*
X124957509Y-81575059D01*
X125011398Y-81459493D01*
X125020234Y-81443679D01*
X125024460Y-81437265D01*
X125032112Y-81425286D01*
X125032112Y-81425284D01*
X125032115Y-81425281D01*
X125032635Y-81424091D01*
X125058547Y-81364729D01*
X125089677Y-81293416D01*
X125103368Y-81243714D01*
X125108232Y-81226057D01*
X125108232Y-81226055D01*
X125126312Y-81083322D01*
X125126312Y-81083319D01*
X125103446Y-80941268D01*
X125082638Y-80874569D01*
X125082637Y-80874567D01*
X125025159Y-80754107D01*
X125020677Y-80744713D01*
X124707414Y-80274819D01*
X124707410Y-80274814D01*
X124706351Y-80273533D01*
X124641233Y-80194780D01*
X124641221Y-80194768D01*
X124605104Y-80159253D01*
X124605098Y-80159248D01*
X124523973Y-80094433D01*
X124523971Y-80094432D01*
X124393099Y-80034663D01*
X124326062Y-80014978D01*
X124326056Y-80014976D01*
X124240603Y-80002690D01*
X124183637Y-79994500D01*
X122066363Y-79994500D01*
X122066362Y-79994500D01*
X121963069Y-80005166D01*
X121963053Y-80005169D01*
X121913456Y-80015522D01*
X121913444Y-80015526D01*
X121814520Y-80047073D01*
X121814517Y-80047074D01*
X121814516Y-80047074D01*
X121814510Y-80047077D01*
X121692190Y-80122813D01*
X121692184Y-80122818D01*
X121638632Y-80167668D01*
X121638626Y-80167674D01*
X121638623Y-80167676D01*
X121638622Y-80167678D01*
X121599256Y-80211596D01*
X121552011Y-80264304D01*
X121542588Y-80274816D01*
X121528778Y-80295530D01*
X121475214Y-80340389D01*
X121405898Y-80349169D01*
X121342839Y-80319079D01*
X121337925Y-80314426D01*
X120546482Y-79522983D01*
X119686819Y-78663319D01*
X119653334Y-78601996D01*
X119650500Y-78575638D01*
X119650500Y-72924361D01*
X119670185Y-72857322D01*
X119686819Y-72836680D01*
X120836681Y-71686819D01*
X120898004Y-71653334D01*
X120924362Y-71650500D01*
X166755639Y-71650500D01*
X166822678Y-71670185D01*
X166843320Y-71686819D01*
X168063181Y-72906680D01*
X168096666Y-72968003D01*
X168099500Y-72994361D01*
X168099500Y-73938237D01*
X168079815Y-74005276D01*
X168063181Y-74025918D01*
X168015334Y-74073764D01*
X167886819Y-74257304D01*
X167886818Y-74257306D01*
X167842382Y-74352600D01*
X167796209Y-74405039D01*
X167729016Y-74424191D01*
X167662135Y-74403975D01*
X167617618Y-74352600D01*
X167573181Y-74257306D01*
X167573180Y-74257304D01*
X167557848Y-74235408D01*
X167444667Y-74073767D01*
X167286233Y-73915333D01*
X167286229Y-73915330D01*
X167286228Y-73915329D01*
X167102700Y-73786821D01*
X167102696Y-73786819D01*
X167076381Y-73774548D01*
X166899630Y-73692128D01*
X166899627Y-73692127D01*
X166899625Y-73692126D01*
X166683208Y-73634137D01*
X166683200Y-73634136D01*
X166460002Y-73614609D01*
X166459998Y-73614609D01*
X166236799Y-73634136D01*
X166236791Y-73634137D01*
X166020374Y-73692126D01*
X166020368Y-73692129D01*
X165817306Y-73786818D01*
X165817304Y-73786819D01*
X165633764Y-73915334D01*
X165475334Y-74073764D01*
X165346819Y-74257304D01*
X165346818Y-74257306D01*
X165302382Y-74352600D01*
X165256209Y-74405039D01*
X165189016Y-74424191D01*
X165122135Y-74403975D01*
X165077618Y-74352600D01*
X165033181Y-74257306D01*
X165033180Y-74257304D01*
X165017848Y-74235408D01*
X164904667Y-74073767D01*
X164746233Y-73915333D01*
X164746229Y-73915330D01*
X164746228Y-73915329D01*
X164562700Y-73786821D01*
X164562696Y-73786819D01*
X164536381Y-73774548D01*
X164359630Y-73692128D01*
X164359627Y-73692127D01*
X164359625Y-73692126D01*
X164143208Y-73634137D01*
X164143200Y-73634136D01*
X163920002Y-73614609D01*
X163919998Y-73614609D01*
X163696799Y-73634136D01*
X163696791Y-73634137D01*
X163480374Y-73692126D01*
X163480368Y-73692129D01*
X163277306Y-73786818D01*
X163277304Y-73786819D01*
X163093764Y-73915334D01*
X162935334Y-74073764D01*
X162806819Y-74257304D01*
X162806818Y-74257306D01*
X162762382Y-74352600D01*
X162716209Y-74405039D01*
X162649016Y-74424191D01*
X162582135Y-74403975D01*
X162537618Y-74352600D01*
X162493181Y-74257306D01*
X162493180Y-74257304D01*
X162477848Y-74235408D01*
X162364667Y-74073767D01*
X162206233Y-73915333D01*
X162206229Y-73915330D01*
X162206228Y-73915329D01*
X162022700Y-73786821D01*
X162022696Y-73786819D01*
X161996381Y-73774548D01*
X161819630Y-73692128D01*
X161819627Y-73692127D01*
X161819625Y-73692126D01*
X161603208Y-73634137D01*
X161603200Y-73634136D01*
X161380002Y-73614609D01*
X161379998Y-73614609D01*
X161156799Y-73634136D01*
X161156791Y-73634137D01*
X160940374Y-73692126D01*
X160940368Y-73692129D01*
X160737306Y-73786818D01*
X160737304Y-73786819D01*
X160553764Y-73915334D01*
X160395334Y-74073764D01*
X160266819Y-74257304D01*
X160266818Y-74257306D01*
X160222382Y-74352600D01*
X160176209Y-74405039D01*
X160109016Y-74424191D01*
X160042135Y-74403975D01*
X159997618Y-74352600D01*
X159953181Y-74257306D01*
X159953180Y-74257304D01*
X159937848Y-74235408D01*
X159824667Y-74073767D01*
X159666233Y-73915333D01*
X159666229Y-73915330D01*
X159666228Y-73915329D01*
X159482700Y-73786821D01*
X159482696Y-73786819D01*
X159456381Y-73774548D01*
X159279630Y-73692128D01*
X159279627Y-73692127D01*
X159279625Y-73692126D01*
X159063208Y-73634137D01*
X159063200Y-73634136D01*
X158840002Y-73614609D01*
X158839998Y-73614609D01*
X158616799Y-73634136D01*
X158616791Y-73634137D01*
X158400374Y-73692126D01*
X158400368Y-73692129D01*
X158197306Y-73786818D01*
X158197304Y-73786819D01*
X158013764Y-73915334D01*
X157855334Y-74073764D01*
X157726819Y-74257304D01*
X157726818Y-74257306D01*
X157632129Y-74460368D01*
X157632126Y-74460374D01*
X157574137Y-74676791D01*
X157574136Y-74676799D01*
X157554609Y-74899998D01*
X157554609Y-74900001D01*
X157574136Y-75123200D01*
X157574137Y-75123208D01*
X157632126Y-75339625D01*
X157632127Y-75339627D01*
X157632128Y-75339630D01*
X157682382Y-75447400D01*
X157726819Y-75542696D01*
X157726821Y-75542700D01*
X157855329Y-75726228D01*
X157855333Y-75726233D01*
X158013767Y-75884667D01*
X158013769Y-75884668D01*
X158013771Y-75884670D01*
X158197299Y-76013178D01*
X158197301Y-76013179D01*
X158197304Y-76013181D01*
X158400370Y-76107872D01*
X158616794Y-76165863D01*
X158776226Y-76179811D01*
X158839998Y-76185391D01*
X158840000Y-76185391D01*
X158840002Y-76185391D01*
X158895927Y-76180498D01*
X159063206Y-76165863D01*
X159279630Y-76107872D01*
X159482696Y-76013181D01*
X159666233Y-75884667D01*
X159824667Y-75726233D01*
X159953181Y-75542696D01*
X159997618Y-75447399D01*
X160043790Y-75394960D01*
X160110983Y-75375808D01*
X160177865Y-75396023D01*
X160222382Y-75447400D01*
X160266817Y-75542692D01*
X160266821Y-75542700D01*
X160395329Y-75726228D01*
X160395333Y-75726233D01*
X160553767Y-75884667D01*
X160553769Y-75884668D01*
X160553771Y-75884670D01*
X160737299Y-76013178D01*
X160737301Y-76013179D01*
X160737304Y-76013181D01*
X160940370Y-76107872D01*
X161156794Y-76165863D01*
X161316226Y-76179811D01*
X161379998Y-76185391D01*
X161380000Y-76185391D01*
X161380002Y-76185391D01*
X161435927Y-76180498D01*
X161603206Y-76165863D01*
X161819630Y-76107872D01*
X162022696Y-76013181D01*
X162206233Y-75884667D01*
X162364667Y-75726233D01*
X162493181Y-75542696D01*
X162537618Y-75447399D01*
X162583790Y-75394960D01*
X162650983Y-75375808D01*
X162717865Y-75396023D01*
X162762382Y-75447400D01*
X162806817Y-75542692D01*
X162806821Y-75542700D01*
X162935329Y-75726228D01*
X162935333Y-75726233D01*
X163093767Y-75884667D01*
X163093769Y-75884668D01*
X163093771Y-75884670D01*
X163277299Y-76013178D01*
X163277301Y-76013179D01*
X163277304Y-76013181D01*
X163480370Y-76107872D01*
X163696794Y-76165863D01*
X163856226Y-76179811D01*
X163919998Y-76185391D01*
X163920000Y-76185391D01*
X163920002Y-76185391D01*
X163975927Y-76180498D01*
X164143206Y-76165863D01*
X164359630Y-76107872D01*
X164562696Y-76013181D01*
X164746233Y-75884667D01*
X164904667Y-75726233D01*
X165033181Y-75542696D01*
X165077618Y-75447399D01*
X165123790Y-75394960D01*
X165190983Y-75375808D01*
X165257865Y-75396023D01*
X165302382Y-75447400D01*
X165346817Y-75542692D01*
X165346821Y-75542700D01*
X165475329Y-75726228D01*
X165475333Y-75726233D01*
X165633767Y-75884667D01*
X165633769Y-75884668D01*
X165633771Y-75884670D01*
X165817299Y-76013178D01*
X165817301Y-76013179D01*
X165817304Y-76013181D01*
X166020370Y-76107872D01*
X166236794Y-76165863D01*
X166396226Y-76179811D01*
X166459998Y-76185391D01*
X166460000Y-76185391D01*
X166460002Y-76185391D01*
X166515927Y-76180498D01*
X166683206Y-76165863D01*
X166899630Y-76107872D01*
X167102696Y-76013181D01*
X167286233Y-75884667D01*
X167444667Y-75726233D01*
X167573181Y-75542696D01*
X167617618Y-75447399D01*
X167663790Y-75394960D01*
X167730983Y-75375808D01*
X167797865Y-75396023D01*
X167842382Y-75447400D01*
X167886817Y-75542692D01*
X167886821Y-75542700D01*
X168015329Y-75726228D01*
X168015333Y-75726233D01*
X168173767Y-75884667D01*
X168173769Y-75884668D01*
X168173771Y-75884670D01*
X168357299Y-76013178D01*
X168357301Y-76013179D01*
X168357304Y-76013181D01*
X168560370Y-76107872D01*
X168776794Y-76165863D01*
X168936226Y-76179811D01*
X168999998Y-76185391D01*
X169000000Y-76185391D01*
X169000002Y-76185391D01*
X169055927Y-76180498D01*
X169223206Y-76165863D01*
X169439630Y-76107872D01*
X169642696Y-76013181D01*
X169826233Y-75884667D01*
X169984667Y-75726233D01*
X170113181Y-75542696D01*
X170207872Y-75339630D01*
X170265863Y-75123206D01*
X170285391Y-74900000D01*
X170265863Y-74676794D01*
X170207872Y-74460370D01*
X170113181Y-74257305D01*
X169984667Y-74073767D01*
X169984665Y-74073764D01*
X169936819Y-74025918D01*
X169903334Y-73964595D01*
X169900500Y-73938237D01*
X169900500Y-72650626D01*
X169902027Y-72631225D01*
X169904219Y-72617388D01*
X169900584Y-72548040D01*
X169900500Y-72544797D01*
X169900500Y-72522809D01*
X169900499Y-72522800D01*
X169898201Y-72500936D01*
X169897947Y-72497720D01*
X169894313Y-72428355D01*
X169893264Y-72424441D01*
X169890685Y-72414814D01*
X169887139Y-72395688D01*
X169885674Y-72381744D01*
X169864209Y-72315682D01*
X169863296Y-72312601D01*
X169845320Y-72245512D01*
X169838956Y-72233022D01*
X169831511Y-72215050D01*
X169827179Y-72201716D01*
X169797321Y-72150001D01*
X169792453Y-72141569D01*
X169790903Y-72138714D01*
X169759383Y-72076851D01*
X169750557Y-72065952D01*
X169739540Y-72049920D01*
X169737065Y-72045633D01*
X169732533Y-72037784D01*
X169704668Y-72006837D01*
X169686058Y-71986168D01*
X169683964Y-71983716D01*
X169670120Y-71966620D01*
X169654568Y-71951068D01*
X169652348Y-71948730D01*
X169605871Y-71897112D01*
X169605869Y-71897110D01*
X169594529Y-71888871D01*
X169579736Y-71876236D01*
X168179388Y-70475889D01*
X171249416Y-70475889D01*
X171249459Y-70500001D01*
X171249500Y-70500099D01*
X171249616Y-70500382D01*
X171249618Y-70500384D01*
X171249808Y-70500462D01*
X171250000Y-70500541D01*
X171250002Y-70500539D01*
X171274616Y-70500524D01*
X171274616Y-70500528D01*
X171274760Y-70500500D01*
X181225240Y-70500500D01*
X181225383Y-70500528D01*
X181225384Y-70500524D01*
X181249997Y-70500539D01*
X181250000Y-70500541D01*
X181250383Y-70500383D01*
X181250500Y-70500099D01*
X181250541Y-70500000D01*
X181250540Y-70499997D01*
X181250583Y-70475889D01*
X181250500Y-70475467D01*
X181250500Y-61000007D01*
X205994671Y-61000007D01*
X206013964Y-61294363D01*
X206013965Y-61294373D01*
X206013966Y-61294380D01*
X206013968Y-61294390D01*
X206071518Y-61583716D01*
X206071521Y-61583730D01*
X206166349Y-61863080D01*
X206296825Y-62127660D01*
X206296829Y-62127667D01*
X206460725Y-62372955D01*
X206655241Y-62594758D01*
X206877044Y-62789274D01*
X207122332Y-62953170D01*
X207122339Y-62953174D01*
X207386920Y-63083651D01*
X207386928Y-63083654D01*
X207395923Y-63086707D01*
X207436273Y-63100404D01*
X207440415Y-63102000D01*
X207440428Y-63102006D01*
X207440441Y-63102010D01*
X207446973Y-63104037D01*
X207554199Y-63140435D01*
X207666278Y-63178481D01*
X207666280Y-63178481D01*
X207666282Y-63178482D01*
X207674090Y-63180034D01*
X207720773Y-63189320D01*
X207727030Y-63190910D01*
X207727821Y-63191156D01*
X207727828Y-63191157D01*
X207727831Y-63191158D01*
X207733246Y-63192071D01*
X207742147Y-63193572D01*
X207955620Y-63236034D01*
X208015060Y-63239930D01*
X208021286Y-63240657D01*
X208024533Y-63241205D01*
X208044898Y-63241885D01*
X208121734Y-63246921D01*
X208249993Y-63255329D01*
X208250000Y-63255329D01*
X208250004Y-63255329D01*
X208261781Y-63254556D01*
X208313489Y-63251167D01*
X208319589Y-63251070D01*
X208325268Y-63251260D01*
X208349923Y-63248779D01*
X208544380Y-63236034D01*
X208610815Y-63222819D01*
X208616673Y-63221944D01*
X208624660Y-63221141D01*
X208651935Y-63214640D01*
X208833722Y-63178481D01*
X208901804Y-63155369D01*
X208907316Y-63153780D01*
X208917366Y-63151386D01*
X208945775Y-63140443D01*
X209113077Y-63083652D01*
X209181359Y-63049978D01*
X209186443Y-63047752D01*
X209198163Y-63043239D01*
X209226327Y-63027803D01*
X209377665Y-62953172D01*
X209444527Y-62908495D01*
X209449137Y-62905701D01*
X209462040Y-62898630D01*
X209487698Y-62879724D01*
X209489912Y-62878170D01*
X209622957Y-62789273D01*
X209686689Y-62733380D01*
X209690735Y-62730125D01*
X209704288Y-62720140D01*
X209727587Y-62697606D01*
X209729689Y-62695670D01*
X209844758Y-62594758D01*
X209903556Y-62527711D01*
X209907028Y-62524066D01*
X209920585Y-62510955D01*
X209940723Y-62485453D01*
X209942727Y-62483045D01*
X210039273Y-62372957D01*
X210091316Y-62295068D01*
X210094206Y-62291096D01*
X210102137Y-62281050D01*
X210107069Y-62274806D01*
X210123507Y-62247052D01*
X210125265Y-62244260D01*
X210203172Y-62127665D01*
X210246661Y-62039476D01*
X210248877Y-62035387D01*
X210260415Y-62015908D01*
X210272811Y-61986672D01*
X210274266Y-61983499D01*
X210333652Y-61863077D01*
X210366763Y-61765535D01*
X210368370Y-61761317D01*
X210377884Y-61738882D01*
X210386072Y-61708990D01*
X210387138Y-61705511D01*
X210428481Y-61583722D01*
X210449515Y-61477974D01*
X210450525Y-61473697D01*
X210457381Y-61448670D01*
X210461378Y-61418949D01*
X210462009Y-61415159D01*
X210486034Y-61294380D01*
X210493409Y-61181865D01*
X210493829Y-61177655D01*
X210497488Y-61150452D01*
X210498154Y-61110530D01*
X210498274Y-61107628D01*
X210504021Y-61019946D01*
X210505329Y-61000005D01*
X210505329Y-60999994D01*
X210503699Y-60975142D01*
X210498274Y-60892374D01*
X210498154Y-60889466D01*
X210497488Y-60849548D01*
X210493826Y-60822321D01*
X210493408Y-60818136D01*
X210486034Y-60705620D01*
X210462011Y-60584850D01*
X210461375Y-60581031D01*
X210457380Y-60551326D01*
X210457379Y-60551324D01*
X210450527Y-60526309D01*
X210449515Y-60522023D01*
X210428483Y-60416286D01*
X210428481Y-60416280D01*
X210428481Y-60416278D01*
X210387142Y-60294500D01*
X210386058Y-60290959D01*
X210377885Y-60261123D01*
X210377884Y-60261118D01*
X210368377Y-60238699D01*
X210366761Y-60234458D01*
X210333652Y-60136923D01*
X210295566Y-60059692D01*
X210274272Y-60016511D01*
X210272797Y-60013293D01*
X210260417Y-59984097D01*
X210260415Y-59984092D01*
X210248888Y-59964632D01*
X210246645Y-59960490D01*
X210203172Y-59872336D01*
X210203172Y-59872335D01*
X210203170Y-59872332D01*
X210125284Y-59755768D01*
X210123491Y-59752919D01*
X210107071Y-59725197D01*
X210094205Y-59708904D01*
X210091312Y-59704925D01*
X210087279Y-59698890D01*
X210039273Y-59627043D01*
X209942743Y-59516973D01*
X209940720Y-59514542D01*
X209920585Y-59489045D01*
X209907050Y-59475955D01*
X209903544Y-59472274D01*
X209844758Y-59405242D01*
X209729736Y-59304370D01*
X209727526Y-59302334D01*
X209704289Y-59279861D01*
X209704284Y-59279857D01*
X209690766Y-59269897D01*
X209686663Y-59266596D01*
X209622958Y-59210727D01*
X209489963Y-59121863D01*
X209487661Y-59120248D01*
X209462040Y-59101370D01*
X209462037Y-59101368D01*
X209462034Y-59101366D01*
X209449146Y-59094303D01*
X209444497Y-59091483D01*
X209377658Y-59046823D01*
X209377656Y-59046822D01*
X209271056Y-58994254D01*
X209226347Y-58972206D01*
X209198163Y-58956761D01*
X209198158Y-58956759D01*
X209198154Y-58956757D01*
X209186460Y-58952253D01*
X209181320Y-58950001D01*
X209113082Y-58916350D01*
X209113078Y-58916348D01*
X209113077Y-58916348D01*
X209080737Y-58905370D01*
X208945790Y-58859560D01*
X208917366Y-58848614D01*
X208917362Y-58848612D01*
X208907339Y-58846224D01*
X208901782Y-58844622D01*
X208850310Y-58827150D01*
X208833722Y-58821519D01*
X208833717Y-58821518D01*
X208651957Y-58785363D01*
X208631990Y-58780606D01*
X208624660Y-58778859D01*
X208624656Y-58778858D01*
X208624654Y-58778858D01*
X208616679Y-58778055D01*
X208610795Y-58777175D01*
X208557429Y-58766561D01*
X208544380Y-58763966D01*
X208544377Y-58763965D01*
X208544373Y-58763965D01*
X208349924Y-58751220D01*
X208325278Y-58748740D01*
X208325259Y-58748740D01*
X208319593Y-58748928D01*
X208313478Y-58748830D01*
X208250002Y-58744671D01*
X208250000Y-58744671D01*
X208225962Y-58746246D01*
X208044903Y-58758113D01*
X208024524Y-58758795D01*
X208021283Y-58759342D01*
X208015036Y-58760071D01*
X207955629Y-58763964D01*
X207742162Y-58806425D01*
X207727815Y-58808845D01*
X207727801Y-58808848D01*
X207726994Y-58809099D01*
X207720739Y-58810685D01*
X207666280Y-58821518D01*
X207666265Y-58821522D01*
X207446970Y-58895964D01*
X207440425Y-58897994D01*
X207436250Y-58899602D01*
X207386933Y-58916343D01*
X207386921Y-58916348D01*
X207122334Y-59046828D01*
X206877041Y-59210728D01*
X206655241Y-59405241D01*
X206460728Y-59627041D01*
X206296828Y-59872334D01*
X206166349Y-60136919D01*
X206071521Y-60416269D01*
X206071518Y-60416283D01*
X206013968Y-60705609D01*
X206013964Y-60705636D01*
X205994671Y-60999992D01*
X205994671Y-61000007D01*
X181250500Y-61000007D01*
X181250500Y-60524759D01*
X181250528Y-60524616D01*
X181250524Y-60524616D01*
X181250539Y-60500002D01*
X181250541Y-60500000D01*
X181250462Y-60499808D01*
X181250384Y-60499618D01*
X181250382Y-60499616D01*
X181250099Y-60499500D01*
X181250000Y-60499459D01*
X181225446Y-60499459D01*
X181225240Y-60499500D01*
X171274760Y-60499500D01*
X171274554Y-60499459D01*
X171250000Y-60499459D01*
X171249901Y-60499500D01*
X171249617Y-60499616D01*
X171249615Y-60499618D01*
X171249459Y-60499999D01*
X171249476Y-60524616D01*
X171249471Y-60524616D01*
X171249500Y-60524759D01*
X171249500Y-70475467D01*
X171249416Y-70475889D01*
X168179388Y-70475889D01*
X167873764Y-70170265D01*
X167861126Y-70155468D01*
X167852887Y-70144128D01*
X167801277Y-70097657D01*
X167798922Y-70095423D01*
X167783382Y-70079882D01*
X167766295Y-70066043D01*
X167763831Y-70063939D01*
X167712220Y-70017470D01*
X167712213Y-70017465D01*
X167700070Y-70010454D01*
X167684043Y-69999438D01*
X167673153Y-69990620D01*
X167673151Y-69990619D01*
X167673149Y-69990617D01*
X167654259Y-69980992D01*
X167611266Y-69959085D01*
X167608414Y-69957537D01*
X167548282Y-69922820D01*
X167534949Y-69918488D01*
X167516978Y-69911043D01*
X167504498Y-69904684D01*
X167504486Y-69904679D01*
X167437409Y-69886705D01*
X167434309Y-69885787D01*
X167368256Y-69864326D01*
X167368251Y-69864325D01*
X167368249Y-69864325D01*
X167354314Y-69862860D01*
X167335189Y-69859315D01*
X167321653Y-69855688D01*
X167321643Y-69855686D01*
X167252290Y-69852051D01*
X167249059Y-69851797D01*
X167234537Y-69850271D01*
X167227192Y-69849500D01*
X167227189Y-69849500D01*
X167205203Y-69849500D01*
X167201959Y-69849415D01*
X167132612Y-69845781D01*
X167132611Y-69845781D01*
X167118772Y-69847973D01*
X167099373Y-69849500D01*
X120580627Y-69849500D01*
X120561228Y-69847973D01*
X120547388Y-69845781D01*
X120478041Y-69849415D01*
X120474798Y-69849500D01*
X120452808Y-69849500D01*
X120446559Y-69850156D01*
X120430941Y-69851797D01*
X120427710Y-69852051D01*
X120358358Y-69855686D01*
X120358353Y-69855687D01*
X120344803Y-69859317D01*
X120325691Y-69862859D01*
X120311749Y-69864325D01*
X120311737Y-69864327D01*
X120259469Y-69881310D01*
X120245687Y-69885788D01*
X120242607Y-69886701D01*
X120205695Y-69896591D01*
X120175514Y-69904679D01*
X120163020Y-69911045D01*
X120145053Y-69918487D01*
X120131714Y-69922821D01*
X120071591Y-69957533D01*
X120068740Y-69959081D01*
X120006850Y-69990617D01*
X119995951Y-69999442D01*
X119979931Y-70010452D01*
X119967787Y-70017464D01*
X119967783Y-70017467D01*
X119916190Y-70063921D01*
X119913726Y-70066026D01*
X119896620Y-70079879D01*
X119881056Y-70095443D01*
X119878723Y-70097657D01*
X119857206Y-70117030D01*
X119827113Y-70144127D01*
X119827105Y-70144136D01*
X119818872Y-70155468D01*
X119806238Y-70170260D01*
X118170263Y-71806236D01*
X118155474Y-71818869D01*
X118144126Y-71827114D01*
X118097666Y-71878713D01*
X118095435Y-71881065D01*
X118079890Y-71896610D01*
X118079875Y-71896627D01*
X118066039Y-71913710D01*
X118063936Y-71916172D01*
X118017469Y-71967781D01*
X118017466Y-71967785D01*
X118010458Y-71979923D01*
X117999444Y-71995948D01*
X117990626Y-72006837D01*
X117990616Y-72006853D01*
X117959082Y-72068740D01*
X117957533Y-72071592D01*
X117922821Y-72131713D01*
X117918487Y-72145053D01*
X117911045Y-72163020D01*
X117904680Y-72175512D01*
X117886706Y-72242584D01*
X117885785Y-72245692D01*
X117864326Y-72311742D01*
X117864325Y-72311745D01*
X117862860Y-72325686D01*
X117859315Y-72344812D01*
X117855686Y-72358352D01*
X117852051Y-72427710D01*
X117851797Y-72430941D01*
X117849500Y-72452810D01*
X117849500Y-72474797D01*
X117849415Y-72478040D01*
X117848215Y-72500936D01*
X117845781Y-72547387D01*
X117847973Y-72561225D01*
X117849500Y-72580626D01*
X117849500Y-78919373D01*
X117847972Y-78938772D01*
X117845781Y-78952612D01*
X114410623Y-78952612D01*
X114403291Y-78841866D01*
X114366268Y-78152467D01*
X114334194Y-77344292D01*
X114333414Y-77315187D01*
X114315670Y-76653970D01*
X114304979Y-75845329D01*
X114304979Y-75154670D01*
X114307608Y-74955809D01*
X114315670Y-74346032D01*
X114318640Y-74235413D01*
X114334193Y-73655747D01*
X114366270Y-72847468D01*
X114403290Y-72158162D01*
X114456738Y-71350847D01*
X114512219Y-70662961D01*
X114587018Y-69857079D01*
X114660895Y-69171258D01*
X114757020Y-68367271D01*
X114839455Y-67756387D01*
X114849198Y-67684178D01*
X114966620Y-66882511D01*
X115077016Y-66202582D01*
X115215681Y-65403803D01*
X115344160Y-64727685D01*
X115504021Y-63932228D01*
X115650433Y-63260524D01*
X115831431Y-62468868D01*
X115995610Y-61802134D01*
X116197700Y-61014667D01*
X116201731Y-61000007D01*
X134494671Y-61000007D01*
X134513964Y-61294363D01*
X134513965Y-61294373D01*
X134513966Y-61294380D01*
X134513968Y-61294390D01*
X134571518Y-61583716D01*
X134571521Y-61583730D01*
X134666349Y-61863080D01*
X134796825Y-62127660D01*
X134796829Y-62127667D01*
X134960725Y-62372955D01*
X135155241Y-62594758D01*
X135377044Y-62789274D01*
X135622332Y-62953170D01*
X135622339Y-62953174D01*
X135886920Y-63083651D01*
X135886928Y-63083654D01*
X135895923Y-63086707D01*
X135936273Y-63100404D01*
X135940415Y-63102000D01*
X135940428Y-63102006D01*
X135940441Y-63102010D01*
X135946973Y-63104037D01*
X136054199Y-63140435D01*
X136166278Y-63178481D01*
X136166280Y-63178481D01*
X136166282Y-63178482D01*
X136174090Y-63180034D01*
X136220773Y-63189320D01*
X136227030Y-63190910D01*
X136227821Y-63191156D01*
X136227828Y-63191157D01*
X136227831Y-63191158D01*
X136233246Y-63192071D01*
X136242147Y-63193572D01*
X136455620Y-63236034D01*
X136515060Y-63239930D01*
X136521286Y-63240657D01*
X136524533Y-63241205D01*
X136544898Y-63241885D01*
X136621734Y-63246921D01*
X136749993Y-63255329D01*
X136750000Y-63255329D01*
X136750004Y-63255329D01*
X136761781Y-63254556D01*
X136813489Y-63251167D01*
X136819589Y-63251070D01*
X136825268Y-63251260D01*
X136849923Y-63248779D01*
X137044380Y-63236034D01*
X137110815Y-63222819D01*
X137116673Y-63221944D01*
X137124660Y-63221141D01*
X137151935Y-63214640D01*
X137333722Y-63178481D01*
X137401804Y-63155369D01*
X137407316Y-63153780D01*
X137417366Y-63151386D01*
X137445775Y-63140443D01*
X137613077Y-63083652D01*
X137681359Y-63049978D01*
X137686443Y-63047752D01*
X137698163Y-63043239D01*
X137726327Y-63027803D01*
X137877665Y-62953172D01*
X137944527Y-62908495D01*
X137949137Y-62905701D01*
X137962040Y-62898630D01*
X137987698Y-62879724D01*
X137989912Y-62878170D01*
X138122957Y-62789273D01*
X138186689Y-62733380D01*
X138190735Y-62730125D01*
X138204288Y-62720140D01*
X138227587Y-62697606D01*
X138229689Y-62695670D01*
X138344758Y-62594758D01*
X138403556Y-62527711D01*
X138407028Y-62524066D01*
X138420585Y-62510955D01*
X138440723Y-62485453D01*
X138442727Y-62483045D01*
X138539273Y-62372957D01*
X138591316Y-62295068D01*
X138594206Y-62291096D01*
X138602137Y-62281050D01*
X138607069Y-62274806D01*
X138623507Y-62247052D01*
X138625265Y-62244260D01*
X138703172Y-62127665D01*
X138746661Y-62039476D01*
X138748877Y-62035387D01*
X138760415Y-62015908D01*
X138772811Y-61986672D01*
X138774266Y-61983499D01*
X138833652Y-61863077D01*
X138866763Y-61765535D01*
X138868370Y-61761317D01*
X138877884Y-61738882D01*
X138886072Y-61708990D01*
X138887138Y-61705511D01*
X138928481Y-61583722D01*
X138949515Y-61477974D01*
X138950525Y-61473697D01*
X138957381Y-61448670D01*
X138961378Y-61418949D01*
X138962009Y-61415159D01*
X138986034Y-61294380D01*
X138993409Y-61181865D01*
X138993829Y-61177655D01*
X138997488Y-61150452D01*
X138998154Y-61110530D01*
X138998274Y-61107628D01*
X139004021Y-61019946D01*
X139005329Y-61000005D01*
X139005329Y-60999994D01*
X139003699Y-60975142D01*
X138998274Y-60892374D01*
X138998154Y-60889466D01*
X138997488Y-60849548D01*
X138993826Y-60822321D01*
X138993408Y-60818136D01*
X138986034Y-60705620D01*
X138962011Y-60584850D01*
X138961375Y-60581031D01*
X138957380Y-60551326D01*
X138957379Y-60551324D01*
X138950527Y-60526309D01*
X138949515Y-60522023D01*
X138928483Y-60416286D01*
X138928481Y-60416280D01*
X138928481Y-60416278D01*
X138887142Y-60294500D01*
X138886058Y-60290959D01*
X138877885Y-60261123D01*
X138877884Y-60261118D01*
X138868377Y-60238699D01*
X138866761Y-60234458D01*
X138833652Y-60136923D01*
X138795566Y-60059692D01*
X138774272Y-60016511D01*
X138772797Y-60013293D01*
X138760417Y-59984097D01*
X138760415Y-59984092D01*
X138748888Y-59964632D01*
X138746645Y-59960490D01*
X138703172Y-59872336D01*
X138703172Y-59872335D01*
X138703170Y-59872332D01*
X138625284Y-59755768D01*
X138623491Y-59752919D01*
X138607071Y-59725197D01*
X138594205Y-59708904D01*
X138591312Y-59704925D01*
X138587279Y-59698890D01*
X138539273Y-59627043D01*
X138442743Y-59516973D01*
X138440720Y-59514542D01*
X138420585Y-59489045D01*
X138407050Y-59475955D01*
X138403544Y-59472274D01*
X138344758Y-59405242D01*
X138229736Y-59304370D01*
X138227526Y-59302334D01*
X138204289Y-59279861D01*
X138204284Y-59279857D01*
X138190766Y-59269897D01*
X138186663Y-59266596D01*
X138122958Y-59210727D01*
X137989963Y-59121863D01*
X137987661Y-59120248D01*
X137962040Y-59101370D01*
X137962037Y-59101368D01*
X137962034Y-59101366D01*
X137949146Y-59094303D01*
X137944497Y-59091483D01*
X137877658Y-59046823D01*
X137877656Y-59046822D01*
X137771056Y-58994254D01*
X137726347Y-58972206D01*
X137698163Y-58956761D01*
X137698158Y-58956759D01*
X137698154Y-58956757D01*
X137686460Y-58952253D01*
X137681320Y-58950001D01*
X137613082Y-58916350D01*
X137613078Y-58916348D01*
X137613077Y-58916348D01*
X137580737Y-58905370D01*
X137445790Y-58859560D01*
X137417366Y-58848614D01*
X137417362Y-58848612D01*
X137407339Y-58846224D01*
X137401782Y-58844622D01*
X137350310Y-58827150D01*
X137333722Y-58821519D01*
X137333717Y-58821518D01*
X137151957Y-58785363D01*
X137131990Y-58780606D01*
X137124660Y-58778859D01*
X137124656Y-58778858D01*
X137124654Y-58778858D01*
X137116679Y-58778055D01*
X137110795Y-58777175D01*
X137057429Y-58766561D01*
X137044380Y-58763966D01*
X137044377Y-58763965D01*
X137044373Y-58763965D01*
X136849924Y-58751220D01*
X136825278Y-58748740D01*
X136825259Y-58748740D01*
X136819593Y-58748928D01*
X136813478Y-58748830D01*
X136750002Y-58744671D01*
X136750000Y-58744671D01*
X136725962Y-58746246D01*
X136544903Y-58758113D01*
X136524524Y-58758795D01*
X136521283Y-58759342D01*
X136515036Y-58760071D01*
X136455629Y-58763964D01*
X136242162Y-58806425D01*
X136227815Y-58808845D01*
X136227801Y-58808848D01*
X136226994Y-58809099D01*
X136220739Y-58810685D01*
X136166280Y-58821518D01*
X136166265Y-58821522D01*
X135946970Y-58895964D01*
X135940425Y-58897994D01*
X135936250Y-58899602D01*
X135886933Y-58916343D01*
X135886921Y-58916348D01*
X135622334Y-59046828D01*
X135377041Y-59210728D01*
X135155241Y-59405241D01*
X134960728Y-59627041D01*
X134796828Y-59872334D01*
X134666349Y-60136919D01*
X134571521Y-60416269D01*
X134571518Y-60416283D01*
X134513968Y-60705609D01*
X134513964Y-60705636D01*
X134494671Y-60999992D01*
X134494671Y-61000007D01*
X116201731Y-61000007D01*
X116379423Y-60353596D01*
X116602567Y-59570686D01*
X116801598Y-58915908D01*
X117045729Y-58138007D01*
X117261841Y-57490037D01*
X117526882Y-56717619D01*
X117759802Y-56077041D01*
X118045678Y-55310546D01*
X118295055Y-54678072D01*
X118601776Y-53917724D01*
X118867259Y-53293972D01*
X119194772Y-52540169D01*
X119475997Y-51925721D01*
X119824194Y-51178979D01*
X120017266Y-50785391D01*
X120120752Y-50574428D01*
X120489701Y-49834889D01*
X120665275Y-49500001D01*
X124534609Y-49500001D01*
X124554136Y-49723200D01*
X124554137Y-49723208D01*
X124612126Y-49939625D01*
X124612127Y-49939627D01*
X124612128Y-49939630D01*
X124662382Y-50047400D01*
X124706819Y-50142696D01*
X124706821Y-50142700D01*
X124835329Y-50326228D01*
X124835334Y-50326234D01*
X124993765Y-50484665D01*
X124993771Y-50484670D01*
X125177299Y-50613178D01*
X125177301Y-50613179D01*
X125177304Y-50613181D01*
X125380370Y-50707872D01*
X125596794Y-50765863D01*
X125756226Y-50779811D01*
X125819998Y-50785391D01*
X125820000Y-50785391D01*
X125820002Y-50785391D01*
X125875801Y-50780509D01*
X126043206Y-50765863D01*
X126259630Y-50707872D01*
X126462696Y-50613181D01*
X126646233Y-50484667D01*
X126804667Y-50326233D01*
X126933181Y-50142696D01*
X126977618Y-50047399D01*
X127023790Y-49994960D01*
X127090983Y-49975808D01*
X127157865Y-49996023D01*
X127202382Y-50047400D01*
X127246817Y-50142692D01*
X127246821Y-50142700D01*
X127375329Y-50326228D01*
X127375334Y-50326234D01*
X127533765Y-50484665D01*
X127533771Y-50484670D01*
X127717299Y-50613178D01*
X127717301Y-50613179D01*
X127717304Y-50613181D01*
X127920370Y-50707872D01*
X128136794Y-50765863D01*
X128296226Y-50779811D01*
X128359998Y-50785391D01*
X128360000Y-50785391D01*
X128360002Y-50785391D01*
X128415801Y-50780509D01*
X128583206Y-50765863D01*
X128799630Y-50707872D01*
X129002696Y-50613181D01*
X129186233Y-50484667D01*
X129344667Y-50326233D01*
X129473181Y-50142696D01*
X129517618Y-50047399D01*
X129563790Y-49994960D01*
X129630983Y-49975808D01*
X129697865Y-49996023D01*
X129742382Y-50047400D01*
X129786817Y-50142692D01*
X129786821Y-50142700D01*
X129915329Y-50326228D01*
X129915334Y-50326234D01*
X130073765Y-50484665D01*
X130073771Y-50484670D01*
X130257299Y-50613178D01*
X130257301Y-50613179D01*
X130257304Y-50613181D01*
X130460370Y-50707872D01*
X130676794Y-50765863D01*
X130836226Y-50779811D01*
X130899998Y-50785391D01*
X130900000Y-50785391D01*
X130900002Y-50785391D01*
X130955801Y-50780509D01*
X131123206Y-50765863D01*
X131339630Y-50707872D01*
X131542696Y-50613181D01*
X131726233Y-50484667D01*
X131884667Y-50326233D01*
X132013181Y-50142696D01*
X132057618Y-50047399D01*
X132103790Y-49994960D01*
X132170983Y-49975808D01*
X132237865Y-49996023D01*
X132282382Y-50047400D01*
X132326817Y-50142692D01*
X132326821Y-50142700D01*
X132455329Y-50326228D01*
X132455334Y-50326234D01*
X132613765Y-50484665D01*
X132613771Y-50484670D01*
X132797299Y-50613178D01*
X132797301Y-50613179D01*
X132797304Y-50613181D01*
X133000370Y-50707872D01*
X133216794Y-50765863D01*
X133376226Y-50779811D01*
X133439998Y-50785391D01*
X133440000Y-50785391D01*
X133440002Y-50785391D01*
X133495801Y-50780509D01*
X133663206Y-50765863D01*
X133879630Y-50707872D01*
X134082696Y-50613181D01*
X134266233Y-50484667D01*
X134424667Y-50326233D01*
X134553181Y-50142696D01*
X134597618Y-50047399D01*
X134643790Y-49994960D01*
X134710983Y-49975808D01*
X134777865Y-49996023D01*
X134822382Y-50047400D01*
X134866817Y-50142692D01*
X134866821Y-50142700D01*
X134995329Y-50326228D01*
X134995334Y-50326234D01*
X135153765Y-50484665D01*
X135153771Y-50484670D01*
X135337299Y-50613178D01*
X135337301Y-50613179D01*
X135337304Y-50613181D01*
X135540370Y-50707872D01*
X135756794Y-50765863D01*
X135916226Y-50779811D01*
X135979998Y-50785391D01*
X135980000Y-50785391D01*
X135980002Y-50785391D01*
X136035801Y-50780509D01*
X136203206Y-50765863D01*
X136419630Y-50707872D01*
X136622696Y-50613181D01*
X136806233Y-50484667D01*
X136964667Y-50326233D01*
X137093181Y-50142696D01*
X137187872Y-49939630D01*
X137245863Y-49723206D01*
X137265391Y-49500001D01*
X139774609Y-49500001D01*
X139794136Y-49723200D01*
X139794137Y-49723208D01*
X139852126Y-49939625D01*
X139852127Y-49939627D01*
X139852128Y-49939630D01*
X139902382Y-50047400D01*
X139946819Y-50142696D01*
X139946821Y-50142700D01*
X140075329Y-50326228D01*
X140075334Y-50326234D01*
X140233765Y-50484665D01*
X140233771Y-50484670D01*
X140417299Y-50613178D01*
X140417301Y-50613179D01*
X140417304Y-50613181D01*
X140620370Y-50707872D01*
X140836794Y-50765863D01*
X140996226Y-50779811D01*
X141059998Y-50785391D01*
X141060000Y-50785391D01*
X141060002Y-50785391D01*
X141115801Y-50780509D01*
X141283206Y-50765863D01*
X141499630Y-50707872D01*
X141702696Y-50613181D01*
X141886233Y-50484667D01*
X142044667Y-50326233D01*
X142173181Y-50142696D01*
X142217618Y-50047399D01*
X142263790Y-49994960D01*
X142330983Y-49975808D01*
X142397865Y-49996023D01*
X142442382Y-50047400D01*
X142486817Y-50142692D01*
X142486821Y-50142700D01*
X142615329Y-50326228D01*
X142615334Y-50326234D01*
X142773765Y-50484665D01*
X142773771Y-50484670D01*
X142957299Y-50613178D01*
X142957301Y-50613179D01*
X142957304Y-50613181D01*
X143160370Y-50707872D01*
X143376794Y-50765863D01*
X143536226Y-50779811D01*
X143599998Y-50785391D01*
X143600000Y-50785391D01*
X143600002Y-50785391D01*
X143655801Y-50780509D01*
X143823206Y-50765863D01*
X144039630Y-50707872D01*
X144242696Y-50613181D01*
X144426233Y-50484667D01*
X144584667Y-50326233D01*
X144713181Y-50142696D01*
X144757618Y-50047399D01*
X144803790Y-49994960D01*
X144870983Y-49975808D01*
X144937865Y-49996023D01*
X144982382Y-50047400D01*
X145026817Y-50142692D01*
X145026821Y-50142700D01*
X145155329Y-50326228D01*
X145155334Y-50326234D01*
X145313765Y-50484665D01*
X145313771Y-50484670D01*
X145497299Y-50613178D01*
X145497301Y-50613179D01*
X145497304Y-50613181D01*
X145700370Y-50707872D01*
X145916794Y-50765863D01*
X146076226Y-50779811D01*
X146139998Y-50785391D01*
X146140000Y-50785391D01*
X146140002Y-50785391D01*
X146195801Y-50780509D01*
X146363206Y-50765863D01*
X146579630Y-50707872D01*
X146782696Y-50613181D01*
X146966233Y-50484667D01*
X147124667Y-50326233D01*
X147253181Y-50142696D01*
X147297618Y-50047399D01*
X147343790Y-49994960D01*
X147410983Y-49975808D01*
X147477865Y-49996023D01*
X147522382Y-50047400D01*
X147566817Y-50142692D01*
X147566821Y-50142700D01*
X147695329Y-50326228D01*
X147695334Y-50326234D01*
X147853765Y-50484665D01*
X147853771Y-50484670D01*
X148037299Y-50613178D01*
X148037301Y-50613179D01*
X148037304Y-50613181D01*
X148240370Y-50707872D01*
X148456794Y-50765863D01*
X148616226Y-50779811D01*
X148679998Y-50785391D01*
X148680000Y-50785391D01*
X148680002Y-50785391D01*
X148735801Y-50780509D01*
X148903206Y-50765863D01*
X149119630Y-50707872D01*
X149322696Y-50613181D01*
X149506233Y-50484667D01*
X149664667Y-50326233D01*
X149793181Y-50142696D01*
X149837618Y-50047399D01*
X149883790Y-49994960D01*
X149950983Y-49975808D01*
X150017865Y-49996023D01*
X150062382Y-50047400D01*
X150106817Y-50142692D01*
X150106821Y-50142700D01*
X150235329Y-50326228D01*
X150235334Y-50326234D01*
X150393765Y-50484665D01*
X150393771Y-50484670D01*
X150577299Y-50613178D01*
X150577301Y-50613179D01*
X150577304Y-50613181D01*
X150780370Y-50707872D01*
X150996794Y-50765863D01*
X151156226Y-50779811D01*
X151219998Y-50785391D01*
X151220000Y-50785391D01*
X151220002Y-50785391D01*
X151275801Y-50780509D01*
X151443206Y-50765863D01*
X151659630Y-50707872D01*
X151862696Y-50613181D01*
X152046233Y-50484667D01*
X152204667Y-50326233D01*
X152333181Y-50142696D01*
X152377618Y-50047399D01*
X152423790Y-49994960D01*
X152490983Y-49975808D01*
X152557865Y-49996023D01*
X152602382Y-50047400D01*
X152646817Y-50142692D01*
X152646821Y-50142700D01*
X152775329Y-50326228D01*
X152775334Y-50326234D01*
X152933765Y-50484665D01*
X152933771Y-50484670D01*
X153117299Y-50613178D01*
X153117301Y-50613179D01*
X153117304Y-50613181D01*
X153320370Y-50707872D01*
X153536794Y-50765863D01*
X153696226Y-50779811D01*
X153759998Y-50785391D01*
X153760000Y-50785391D01*
X153760002Y-50785391D01*
X153815801Y-50780509D01*
X153983206Y-50765863D01*
X154199630Y-50707872D01*
X154402696Y-50613181D01*
X154586233Y-50484667D01*
X154744667Y-50326233D01*
X154873181Y-50142696D01*
X154917618Y-50047399D01*
X154963790Y-49994960D01*
X155030983Y-49975808D01*
X155097865Y-49996023D01*
X155142382Y-50047400D01*
X155186817Y-50142692D01*
X155186821Y-50142700D01*
X155315329Y-50326228D01*
X155315334Y-50326234D01*
X155473765Y-50484665D01*
X155473771Y-50484670D01*
X155657299Y-50613178D01*
X155657301Y-50613179D01*
X155657304Y-50613181D01*
X155860370Y-50707872D01*
X156076794Y-50765863D01*
X156236226Y-50779811D01*
X156299998Y-50785391D01*
X156300000Y-50785391D01*
X156300002Y-50785391D01*
X156355801Y-50780509D01*
X156523206Y-50765863D01*
X156739630Y-50707872D01*
X156942696Y-50613181D01*
X157126233Y-50484667D01*
X157284667Y-50326233D01*
X157413181Y-50142696D01*
X157457618Y-50047399D01*
X157503790Y-49994960D01*
X157570983Y-49975808D01*
X157637865Y-49996023D01*
X157682382Y-50047400D01*
X157726817Y-50142692D01*
X157726821Y-50142700D01*
X157855329Y-50326228D01*
X157855334Y-50326234D01*
X158013765Y-50484665D01*
X158013771Y-50484670D01*
X158197299Y-50613178D01*
X158197301Y-50613179D01*
X158197304Y-50613181D01*
X158400370Y-50707872D01*
X158616794Y-50765863D01*
X158776226Y-50779811D01*
X158839998Y-50785391D01*
X158840000Y-50785391D01*
X158840002Y-50785391D01*
X158895801Y-50780509D01*
X159063206Y-50765863D01*
X159279630Y-50707872D01*
X159482696Y-50613181D01*
X159666233Y-50484667D01*
X159824667Y-50326233D01*
X159953181Y-50142696D01*
X159997618Y-50047399D01*
X160043790Y-49994960D01*
X160110983Y-49975808D01*
X160177865Y-49996023D01*
X160222382Y-50047400D01*
X160266817Y-50142692D01*
X160266821Y-50142700D01*
X160395329Y-50326228D01*
X160395334Y-50326234D01*
X160553765Y-50484665D01*
X160553771Y-50484670D01*
X160737299Y-50613178D01*
X160737301Y-50613179D01*
X160737304Y-50613181D01*
X160940370Y-50707872D01*
X161156794Y-50765863D01*
X161316226Y-50779811D01*
X161379998Y-50785391D01*
X161380000Y-50785391D01*
X161380002Y-50785391D01*
X161435801Y-50780509D01*
X161603206Y-50765863D01*
X161819630Y-50707872D01*
X162022696Y-50613181D01*
X162206233Y-50484667D01*
X162364667Y-50326233D01*
X162493181Y-50142696D01*
X162537618Y-50047399D01*
X162583790Y-49994960D01*
X162650983Y-49975808D01*
X162717865Y-49996023D01*
X162762382Y-50047400D01*
X162806817Y-50142692D01*
X162806821Y-50142700D01*
X162935329Y-50326228D01*
X162935334Y-50326234D01*
X163093765Y-50484665D01*
X163093771Y-50484670D01*
X163277299Y-50613178D01*
X163277301Y-50613179D01*
X163277304Y-50613181D01*
X163480370Y-50707872D01*
X163696794Y-50765863D01*
X163856226Y-50779811D01*
X163919998Y-50785391D01*
X163920000Y-50785391D01*
X163920002Y-50785391D01*
X163975801Y-50780509D01*
X164143206Y-50765863D01*
X164359630Y-50707872D01*
X164562696Y-50613181D01*
X164746233Y-50484667D01*
X164904667Y-50326233D01*
X165033181Y-50142696D01*
X165077618Y-50047399D01*
X165123790Y-49994960D01*
X165190983Y-49975808D01*
X165257865Y-49996023D01*
X165302382Y-50047400D01*
X165346817Y-50142692D01*
X165346821Y-50142700D01*
X165475329Y-50326228D01*
X165475334Y-50326234D01*
X165633765Y-50484665D01*
X165633771Y-50484670D01*
X165817299Y-50613178D01*
X165817301Y-50613179D01*
X165817304Y-50613181D01*
X166020370Y-50707872D01*
X166236794Y-50765863D01*
X166396226Y-50779811D01*
X166459998Y-50785391D01*
X166460000Y-50785391D01*
X166460002Y-50785391D01*
X166515801Y-50780509D01*
X166683206Y-50765863D01*
X166899630Y-50707872D01*
X167102696Y-50613181D01*
X167286233Y-50484667D01*
X167444667Y-50326233D01*
X167573181Y-50142696D01*
X167617618Y-50047399D01*
X167663790Y-49994960D01*
X167730983Y-49975808D01*
X167797865Y-49996023D01*
X167842382Y-50047400D01*
X167886817Y-50142692D01*
X167886821Y-50142700D01*
X168015329Y-50326228D01*
X168015334Y-50326234D01*
X168173765Y-50484665D01*
X168173771Y-50484670D01*
X168357299Y-50613178D01*
X168357301Y-50613179D01*
X168357304Y-50613181D01*
X168560370Y-50707872D01*
X168776794Y-50765863D01*
X168936226Y-50779811D01*
X168999998Y-50785391D01*
X169000000Y-50785391D01*
X169000002Y-50785391D01*
X169055801Y-50780509D01*
X169223206Y-50765863D01*
X169439630Y-50707872D01*
X169642696Y-50613181D01*
X169826233Y-50484667D01*
X169984667Y-50326233D01*
X170113181Y-50142696D01*
X170207872Y-49939630D01*
X170265863Y-49723206D01*
X170285391Y-49500000D01*
X170265863Y-49276794D01*
X170207872Y-49060370D01*
X170113181Y-48857305D01*
X169984667Y-48673767D01*
X169826233Y-48515333D01*
X169826229Y-48515330D01*
X169826228Y-48515329D01*
X169642700Y-48386821D01*
X169642696Y-48386819D01*
X169621137Y-48376766D01*
X169439630Y-48292128D01*
X169439627Y-48292127D01*
X169439625Y-48292126D01*
X169223208Y-48234137D01*
X169223200Y-48234136D01*
X169000002Y-48214609D01*
X168999998Y-48214609D01*
X168776799Y-48234136D01*
X168776791Y-48234137D01*
X168560374Y-48292126D01*
X168560368Y-48292129D01*
X168357306Y-48386818D01*
X168357304Y-48386819D01*
X168173764Y-48515334D01*
X168015334Y-48673764D01*
X167886819Y-48857304D01*
X167886818Y-48857306D01*
X167842382Y-48952600D01*
X167796209Y-49005039D01*
X167729016Y-49024191D01*
X167662135Y-49003975D01*
X167617618Y-48952600D01*
X167573181Y-48857306D01*
X167573180Y-48857304D01*
X167444668Y-48673768D01*
X167444664Y-48673764D01*
X167286233Y-48515333D01*
X167286229Y-48515330D01*
X167286228Y-48515329D01*
X167102700Y-48386821D01*
X167102696Y-48386819D01*
X167081137Y-48376766D01*
X166899630Y-48292128D01*
X166899627Y-48292127D01*
X166899625Y-48292126D01*
X166683208Y-48234137D01*
X166683200Y-48234136D01*
X166460002Y-48214609D01*
X166459998Y-48214609D01*
X166236799Y-48234136D01*
X166236791Y-48234137D01*
X166020374Y-48292126D01*
X166020368Y-48292129D01*
X165817306Y-48386818D01*
X165817304Y-48386819D01*
X165633764Y-48515334D01*
X165475334Y-48673764D01*
X165346819Y-48857304D01*
X165346818Y-48857306D01*
X165302382Y-48952600D01*
X165256209Y-49005039D01*
X165189016Y-49024191D01*
X165122135Y-49003975D01*
X165077618Y-48952600D01*
X165033181Y-48857306D01*
X165033180Y-48857304D01*
X164904668Y-48673768D01*
X164904664Y-48673764D01*
X164746233Y-48515333D01*
X164746229Y-48515330D01*
X164746228Y-48515329D01*
X164562700Y-48386821D01*
X164562696Y-48386819D01*
X164541137Y-48376766D01*
X164359630Y-48292128D01*
X164359627Y-48292127D01*
X164359625Y-48292126D01*
X164143208Y-48234137D01*
X164143200Y-48234136D01*
X163920002Y-48214609D01*
X163919998Y-48214609D01*
X163696799Y-48234136D01*
X163696791Y-48234137D01*
X163480374Y-48292126D01*
X163480368Y-48292129D01*
X163277306Y-48386818D01*
X163277304Y-48386819D01*
X163093764Y-48515334D01*
X162935334Y-48673764D01*
X162806819Y-48857304D01*
X162806818Y-48857306D01*
X162762382Y-48952600D01*
X162716209Y-49005039D01*
X162649016Y-49024191D01*
X162582135Y-49003975D01*
X162537618Y-48952600D01*
X162493181Y-48857306D01*
X162493180Y-48857304D01*
X162364668Y-48673768D01*
X162364664Y-48673764D01*
X162206233Y-48515333D01*
X162206229Y-48515330D01*
X162206228Y-48515329D01*
X162022700Y-48386821D01*
X162022696Y-48386819D01*
X162001137Y-48376766D01*
X161819630Y-48292128D01*
X161819627Y-48292127D01*
X161819625Y-48292126D01*
X161603208Y-48234137D01*
X161603200Y-48234136D01*
X161380002Y-48214609D01*
X161379998Y-48214609D01*
X161156799Y-48234136D01*
X161156791Y-48234137D01*
X160940374Y-48292126D01*
X160940368Y-48292129D01*
X160737306Y-48386818D01*
X160737304Y-48386819D01*
X160553764Y-48515334D01*
X160395334Y-48673764D01*
X160266819Y-48857304D01*
X160266818Y-48857306D01*
X160222382Y-48952600D01*
X160176209Y-49005039D01*
X160109016Y-49024191D01*
X160042135Y-49003975D01*
X159997618Y-48952600D01*
X159953181Y-48857306D01*
X159953180Y-48857304D01*
X159824668Y-48673768D01*
X159824664Y-48673764D01*
X159666233Y-48515333D01*
X159666229Y-48515330D01*
X159666228Y-48515329D01*
X159482700Y-48386821D01*
X159482696Y-48386819D01*
X159461137Y-48376766D01*
X159279630Y-48292128D01*
X159279627Y-48292127D01*
X159279625Y-48292126D01*
X159063208Y-48234137D01*
X159063200Y-48234136D01*
X158840002Y-48214609D01*
X158839998Y-48214609D01*
X158616799Y-48234136D01*
X158616791Y-48234137D01*
X158400374Y-48292126D01*
X158400368Y-48292129D01*
X158197306Y-48386818D01*
X158197304Y-48386819D01*
X158013764Y-48515334D01*
X157855334Y-48673764D01*
X157726819Y-48857304D01*
X157726818Y-48857306D01*
X157682382Y-48952600D01*
X157636209Y-49005039D01*
X157569016Y-49024191D01*
X157502135Y-49003975D01*
X157457618Y-48952600D01*
X157413181Y-48857306D01*
X157413180Y-48857304D01*
X157284668Y-48673768D01*
X157284664Y-48673764D01*
X157126233Y-48515333D01*
X157126229Y-48515330D01*
X157126228Y-48515329D01*
X156942700Y-48386821D01*
X156942696Y-48386819D01*
X156921137Y-48376766D01*
X156739630Y-48292128D01*
X156739627Y-48292127D01*
X156739625Y-48292126D01*
X156523208Y-48234137D01*
X156523200Y-48234136D01*
X156300002Y-48214609D01*
X156299998Y-48214609D01*
X156076799Y-48234136D01*
X156076791Y-48234137D01*
X155860374Y-48292126D01*
X155860368Y-48292129D01*
X155657306Y-48386818D01*
X155657304Y-48386819D01*
X155473764Y-48515334D01*
X155315334Y-48673764D01*
X155186819Y-48857304D01*
X155186818Y-48857306D01*
X155142382Y-48952600D01*
X155096209Y-49005039D01*
X155029016Y-49024191D01*
X154962135Y-49003975D01*
X154917618Y-48952600D01*
X154873181Y-48857306D01*
X154873180Y-48857304D01*
X154744668Y-48673768D01*
X154744664Y-48673764D01*
X154586233Y-48515333D01*
X154586229Y-48515330D01*
X154586228Y-48515329D01*
X154402700Y-48386821D01*
X154402696Y-48386819D01*
X154381137Y-48376766D01*
X154199630Y-48292128D01*
X154199627Y-48292127D01*
X154199625Y-48292126D01*
X153983208Y-48234137D01*
X153983200Y-48234136D01*
X153760002Y-48214609D01*
X153759998Y-48214609D01*
X153536799Y-48234136D01*
X153536791Y-48234137D01*
X153320374Y-48292126D01*
X153320368Y-48292129D01*
X153117306Y-48386818D01*
X153117304Y-48386819D01*
X152933764Y-48515334D01*
X152775334Y-48673764D01*
X152646819Y-48857304D01*
X152646818Y-48857306D01*
X152602382Y-48952600D01*
X152556209Y-49005039D01*
X152489016Y-49024191D01*
X152422135Y-49003975D01*
X152377618Y-48952600D01*
X152333181Y-48857306D01*
X152333180Y-48857304D01*
X152204668Y-48673768D01*
X152204664Y-48673764D01*
X152046233Y-48515333D01*
X152046229Y-48515330D01*
X152046228Y-48515329D01*
X151862700Y-48386821D01*
X151862696Y-48386819D01*
X151841137Y-48376766D01*
X151659630Y-48292128D01*
X151659627Y-48292127D01*
X151659625Y-48292126D01*
X151443208Y-48234137D01*
X151443200Y-48234136D01*
X151220002Y-48214609D01*
X151219998Y-48214609D01*
X150996799Y-48234136D01*
X150996791Y-48234137D01*
X150780374Y-48292126D01*
X150780368Y-48292129D01*
X150577306Y-48386818D01*
X150577304Y-48386819D01*
X150393764Y-48515334D01*
X150235334Y-48673764D01*
X150106819Y-48857304D01*
X150106818Y-48857306D01*
X150062382Y-48952600D01*
X150016209Y-49005039D01*
X149949016Y-49024191D01*
X149882135Y-49003975D01*
X149837618Y-48952600D01*
X149793181Y-48857306D01*
X149793180Y-48857304D01*
X149664668Y-48673768D01*
X149664664Y-48673764D01*
X149506233Y-48515333D01*
X149506229Y-48515330D01*
X149506228Y-48515329D01*
X149322700Y-48386821D01*
X149322696Y-48386819D01*
X149301137Y-48376766D01*
X149119630Y-48292128D01*
X149119627Y-48292127D01*
X149119625Y-48292126D01*
X148903208Y-48234137D01*
X148903200Y-48234136D01*
X148680002Y-48214609D01*
X148679998Y-48214609D01*
X148456799Y-48234136D01*
X148456791Y-48234137D01*
X148240374Y-48292126D01*
X148240368Y-48292129D01*
X148037306Y-48386818D01*
X148037304Y-48386819D01*
X147853764Y-48515334D01*
X147695334Y-48673764D01*
X147566819Y-48857304D01*
X147566818Y-48857306D01*
X147522382Y-48952600D01*
X147476209Y-49005039D01*
X147409016Y-49024191D01*
X147342135Y-49003975D01*
X147297618Y-48952600D01*
X147253181Y-48857306D01*
X147253180Y-48857304D01*
X147124668Y-48673768D01*
X147124664Y-48673764D01*
X146966233Y-48515333D01*
X146966229Y-48515330D01*
X146966228Y-48515329D01*
X146782700Y-48386821D01*
X146782696Y-48386819D01*
X146761137Y-48376766D01*
X146579630Y-48292128D01*
X146579627Y-48292127D01*
X146579625Y-48292126D01*
X146363208Y-48234137D01*
X146363200Y-48234136D01*
X146140002Y-48214609D01*
X146139998Y-48214609D01*
X145916799Y-48234136D01*
X145916791Y-48234137D01*
X145700374Y-48292126D01*
X145700368Y-48292129D01*
X145497306Y-48386818D01*
X145497304Y-48386819D01*
X145313764Y-48515334D01*
X145155334Y-48673764D01*
X145026819Y-48857304D01*
X145026818Y-48857306D01*
X144982382Y-48952600D01*
X144936209Y-49005039D01*
X144869016Y-49024191D01*
X144802135Y-49003975D01*
X144757618Y-48952600D01*
X144713181Y-48857306D01*
X144713180Y-48857304D01*
X144584668Y-48673768D01*
X144584664Y-48673764D01*
X144426233Y-48515333D01*
X144426229Y-48515330D01*
X144426228Y-48515329D01*
X144242700Y-48386821D01*
X144242696Y-48386819D01*
X144221137Y-48376766D01*
X144039630Y-48292128D01*
X144039627Y-48292127D01*
X144039625Y-48292126D01*
X143823208Y-48234137D01*
X143823200Y-48234136D01*
X143600002Y-48214609D01*
X143599998Y-48214609D01*
X143376799Y-48234136D01*
X143376791Y-48234137D01*
X143160374Y-48292126D01*
X143160368Y-48292129D01*
X142957306Y-48386818D01*
X142957304Y-48386819D01*
X142773764Y-48515334D01*
X142615334Y-48673764D01*
X142486819Y-48857304D01*
X142486818Y-48857306D01*
X142442382Y-48952600D01*
X142396209Y-49005039D01*
X142329016Y-49024191D01*
X142262135Y-49003975D01*
X142217618Y-48952600D01*
X142173181Y-48857306D01*
X142173180Y-48857304D01*
X142044668Y-48673768D01*
X142044664Y-48673764D01*
X141886233Y-48515333D01*
X141886229Y-48515330D01*
X141886228Y-48515329D01*
X141702700Y-48386821D01*
X141702696Y-48386819D01*
X141681137Y-48376766D01*
X141499630Y-48292128D01*
X141499627Y-48292127D01*
X141499625Y-48292126D01*
X141283208Y-48234137D01*
X141283200Y-48234136D01*
X141060002Y-48214609D01*
X141059998Y-48214609D01*
X140836799Y-48234136D01*
X140836791Y-48234137D01*
X140620374Y-48292126D01*
X140620368Y-48292129D01*
X140417306Y-48386818D01*
X140417304Y-48386819D01*
X140233764Y-48515334D01*
X140075334Y-48673764D01*
X139946819Y-48857304D01*
X139946818Y-48857306D01*
X139852129Y-49060368D01*
X139852126Y-49060374D01*
X139794137Y-49276791D01*
X139794136Y-49276799D01*
X139774609Y-49499998D01*
X139774609Y-49500001D01*
X137265391Y-49500001D01*
X137265391Y-49500000D01*
X137245863Y-49276794D01*
X137187872Y-49060370D01*
X137093181Y-48857305D01*
X136964667Y-48673767D01*
X136806233Y-48515333D01*
X136806229Y-48515330D01*
X136806228Y-48515329D01*
X136622700Y-48386821D01*
X136622696Y-48386819D01*
X136601137Y-48376766D01*
X136419630Y-48292128D01*
X136419627Y-48292127D01*
X136419625Y-48292126D01*
X136203208Y-48234137D01*
X136203200Y-48234136D01*
X135980002Y-48214609D01*
X135979998Y-48214609D01*
X135756799Y-48234136D01*
X135756791Y-48234137D01*
X135540374Y-48292126D01*
X135540368Y-48292129D01*
X135337306Y-48386818D01*
X135337304Y-48386819D01*
X135153764Y-48515334D01*
X134995334Y-48673764D01*
X134866819Y-48857304D01*
X134866818Y-48857306D01*
X134822382Y-48952600D01*
X134776209Y-49005039D01*
X134709016Y-49024191D01*
X134642135Y-49003975D01*
X134597618Y-48952600D01*
X134553181Y-48857306D01*
X134553180Y-48857304D01*
X134424668Y-48673768D01*
X134424664Y-48673764D01*
X134266233Y-48515333D01*
X134266229Y-48515330D01*
X134266228Y-48515329D01*
X134082700Y-48386821D01*
X134082696Y-48386819D01*
X134061137Y-48376766D01*
X133879630Y-48292128D01*
X133879627Y-48292127D01*
X133879625Y-48292126D01*
X133663208Y-48234137D01*
X133663200Y-48234136D01*
X133440002Y-48214609D01*
X133439998Y-48214609D01*
X133216799Y-48234136D01*
X133216791Y-48234137D01*
X133000374Y-48292126D01*
X133000368Y-48292129D01*
X132797306Y-48386818D01*
X132797304Y-48386819D01*
X132613764Y-48515334D01*
X132455334Y-48673764D01*
X132326819Y-48857304D01*
X132326818Y-48857306D01*
X132282382Y-48952600D01*
X132236209Y-49005039D01*
X132169016Y-49024191D01*
X132102135Y-49003975D01*
X132057618Y-48952600D01*
X132013181Y-48857306D01*
X132013180Y-48857304D01*
X131884668Y-48673768D01*
X131884664Y-48673764D01*
X131726233Y-48515333D01*
X131726229Y-48515330D01*
X131726228Y-48515329D01*
X131542700Y-48386821D01*
X131542696Y-48386819D01*
X131521137Y-48376766D01*
X131339630Y-48292128D01*
X131339627Y-48292127D01*
X131339625Y-48292126D01*
X131123208Y-48234137D01*
X131123200Y-48234136D01*
X130900002Y-48214609D01*
X130899998Y-48214609D01*
X130676799Y-48234136D01*
X130676791Y-48234137D01*
X130460374Y-48292126D01*
X130460368Y-48292129D01*
X130257306Y-48386818D01*
X130257304Y-48386819D01*
X130073764Y-48515334D01*
X129915334Y-48673764D01*
X129786819Y-48857304D01*
X129786818Y-48857306D01*
X129742382Y-48952600D01*
X129696209Y-49005039D01*
X129629016Y-49024191D01*
X129562135Y-49003975D01*
X129517618Y-48952600D01*
X129473181Y-48857306D01*
X129473180Y-48857304D01*
X129344668Y-48673768D01*
X129344664Y-48673764D01*
X129186233Y-48515333D01*
X129186229Y-48515330D01*
X129186228Y-48515329D01*
X129002700Y-48386821D01*
X129002696Y-48386819D01*
X128981137Y-48376766D01*
X128799630Y-48292128D01*
X128799627Y-48292127D01*
X128799625Y-48292126D01*
X128583208Y-48234137D01*
X128583200Y-48234136D01*
X128360002Y-48214609D01*
X128359998Y-48214609D01*
X128136799Y-48234136D01*
X128136791Y-48234137D01*
X127920374Y-48292126D01*
X127920368Y-48292129D01*
X127717306Y-48386818D01*
X127717304Y-48386819D01*
X127533764Y-48515334D01*
X127375334Y-48673764D01*
X127246819Y-48857304D01*
X127246818Y-48857306D01*
X127202382Y-48952600D01*
X127156209Y-49005039D01*
X127089016Y-49024191D01*
X127022135Y-49003975D01*
X126977618Y-48952600D01*
X126933181Y-48857306D01*
X126933180Y-48857304D01*
X126804668Y-48673768D01*
X126804664Y-48673764D01*
X126646233Y-48515333D01*
X126646229Y-48515330D01*
X126646228Y-48515329D01*
X126462700Y-48386821D01*
X126462696Y-48386819D01*
X126441137Y-48376766D01*
X126259630Y-48292128D01*
X126259627Y-48292127D01*
X126259625Y-48292126D01*
X126043208Y-48234137D01*
X126043200Y-48234136D01*
X125820002Y-48214609D01*
X125819998Y-48214609D01*
X125596799Y-48234136D01*
X125596791Y-48234137D01*
X125380374Y-48292126D01*
X125380368Y-48292129D01*
X125177306Y-48386818D01*
X125177304Y-48386819D01*
X124993764Y-48515334D01*
X124835334Y-48673764D01*
X124706819Y-48857304D01*
X124706818Y-48857306D01*
X124612129Y-49060368D01*
X124612126Y-49060374D01*
X124554137Y-49276791D01*
X124554136Y-49276799D01*
X124534609Y-49499998D01*
X124534609Y-49500001D01*
X120665275Y-49500001D01*
X120800974Y-49241171D01*
X121190733Y-48509043D01*
X121516168Y-47926843D01*
X121926842Y-47202289D01*
X122265832Y-46632297D01*
X122697461Y-45915634D01*
X122975221Y-45475889D01*
X131749416Y-45475889D01*
X131749459Y-45500001D01*
X131749500Y-45500099D01*
X131749616Y-45500382D01*
X131749618Y-45500384D01*
X131749808Y-45500462D01*
X131750000Y-45500541D01*
X131750002Y-45500539D01*
X131774616Y-45500524D01*
X131774616Y-45500528D01*
X131774760Y-45500500D01*
X141725240Y-45500500D01*
X141725383Y-45500528D01*
X141725384Y-45500524D01*
X141749997Y-45500539D01*
X141750000Y-45500541D01*
X141750383Y-45500383D01*
X141750500Y-45500099D01*
X141750541Y-45500000D01*
X141750540Y-45499997D01*
X141750583Y-45475889D01*
X141750500Y-45475467D01*
X141750500Y-40750007D01*
X205994671Y-40750007D01*
X206013964Y-41044363D01*
X206013965Y-41044373D01*
X206013966Y-41044380D01*
X206013968Y-41044390D01*
X206071518Y-41333716D01*
X206071521Y-41333730D01*
X206166349Y-41613080D01*
X206296825Y-41877660D01*
X206296829Y-41877667D01*
X206460725Y-42122955D01*
X206655241Y-42344758D01*
X206877044Y-42539274D01*
X207122332Y-42703170D01*
X207122339Y-42703174D01*
X207386920Y-42833651D01*
X207386928Y-42833654D01*
X207395923Y-42836707D01*
X207436273Y-42850404D01*
X207440415Y-42852000D01*
X207440428Y-42852006D01*
X207440441Y-42852010D01*
X207446973Y-42854037D01*
X207554199Y-42890435D01*
X207666278Y-42928481D01*
X207666280Y-42928481D01*
X207666282Y-42928482D01*
X207674090Y-42930034D01*
X207720773Y-42939320D01*
X207727030Y-42940910D01*
X207727821Y-42941156D01*
X207727828Y-42941157D01*
X207727831Y-42941158D01*
X207733246Y-42942071D01*
X207742147Y-42943572D01*
X207955620Y-42986034D01*
X208015060Y-42989930D01*
X208021286Y-42990657D01*
X208024533Y-42991205D01*
X208044898Y-42991885D01*
X208121734Y-42996921D01*
X208249993Y-43005329D01*
X208250000Y-43005329D01*
X208250004Y-43005329D01*
X208261781Y-43004556D01*
X208313489Y-43001167D01*
X208319589Y-43001070D01*
X208325268Y-43001260D01*
X208349923Y-42998779D01*
X208544380Y-42986034D01*
X208610815Y-42972819D01*
X208616673Y-42971944D01*
X208624660Y-42971141D01*
X208651935Y-42964640D01*
X208833722Y-42928481D01*
X208901804Y-42905369D01*
X208907316Y-42903780D01*
X208917366Y-42901386D01*
X208945775Y-42890443D01*
X209113077Y-42833652D01*
X209181359Y-42799978D01*
X209186443Y-42797752D01*
X209198163Y-42793239D01*
X209226327Y-42777803D01*
X209377665Y-42703172D01*
X209444527Y-42658495D01*
X209449137Y-42655701D01*
X209462040Y-42648630D01*
X209487698Y-42629724D01*
X209489912Y-42628170D01*
X209622957Y-42539273D01*
X209686689Y-42483380D01*
X209690735Y-42480125D01*
X209704288Y-42470140D01*
X209727587Y-42447606D01*
X209729689Y-42445670D01*
X209844758Y-42344758D01*
X209903556Y-42277711D01*
X209907028Y-42274066D01*
X209920585Y-42260955D01*
X209940723Y-42235453D01*
X209942727Y-42233045D01*
X210039273Y-42122957D01*
X210091316Y-42045068D01*
X210094206Y-42041096D01*
X210102137Y-42031050D01*
X210107069Y-42024806D01*
X210123507Y-41997052D01*
X210125265Y-41994260D01*
X210203172Y-41877665D01*
X210246661Y-41789476D01*
X210248877Y-41785387D01*
X210260415Y-41765908D01*
X210272811Y-41736672D01*
X210274266Y-41733499D01*
X210333652Y-41613077D01*
X210366763Y-41515535D01*
X210368370Y-41511317D01*
X210377884Y-41488882D01*
X210386072Y-41458990D01*
X210387138Y-41455511D01*
X210428481Y-41333722D01*
X210449515Y-41227974D01*
X210450525Y-41223697D01*
X210457381Y-41198670D01*
X210461378Y-41168949D01*
X210462009Y-41165159D01*
X210486034Y-41044380D01*
X210493409Y-40931865D01*
X210493829Y-40927655D01*
X210497488Y-40900452D01*
X210498154Y-40860530D01*
X210498274Y-40857628D01*
X210505329Y-40750000D01*
X210505328Y-40749992D01*
X210503699Y-40725142D01*
X210498274Y-40642374D01*
X210498154Y-40639466D01*
X210497488Y-40599548D01*
X210493826Y-40572321D01*
X210493408Y-40568136D01*
X210486034Y-40455620D01*
X210462011Y-40334850D01*
X210461375Y-40331031D01*
X210457380Y-40301326D01*
X210457379Y-40301324D01*
X210450527Y-40276309D01*
X210449515Y-40272023D01*
X210428483Y-40166286D01*
X210428481Y-40166280D01*
X210428481Y-40166278D01*
X210387142Y-40044500D01*
X210386058Y-40040959D01*
X210377885Y-40011123D01*
X210377884Y-40011118D01*
X210368377Y-39988699D01*
X210366761Y-39984458D01*
X210333652Y-39886923D01*
X210297900Y-39814425D01*
X210274272Y-39766511D01*
X210272797Y-39763293D01*
X210260417Y-39734097D01*
X210260415Y-39734092D01*
X210248888Y-39714632D01*
X210246645Y-39710490D01*
X210203172Y-39622336D01*
X210203172Y-39622335D01*
X210203170Y-39622332D01*
X210125284Y-39505768D01*
X210123491Y-39502919D01*
X210107071Y-39475197D01*
X210094205Y-39458904D01*
X210091312Y-39454925D01*
X210087279Y-39448890D01*
X210039273Y-39377043D01*
X209942743Y-39266973D01*
X209940720Y-39264542D01*
X209920585Y-39239045D01*
X209907050Y-39225955D01*
X209903544Y-39222274D01*
X209844758Y-39155242D01*
X209729736Y-39054370D01*
X209727526Y-39052334D01*
X209704289Y-39029861D01*
X209704284Y-39029857D01*
X209690766Y-39019897D01*
X209686663Y-39016596D01*
X209622958Y-38960727D01*
X209489963Y-38871863D01*
X209487661Y-38870248D01*
X209462040Y-38851370D01*
X209462037Y-38851368D01*
X209462034Y-38851366D01*
X209449146Y-38844303D01*
X209444497Y-38841483D01*
X209377658Y-38796823D01*
X209377656Y-38796822D01*
X209271056Y-38744254D01*
X209226347Y-38722206D01*
X209198163Y-38706761D01*
X209198158Y-38706759D01*
X209198154Y-38706757D01*
X209186460Y-38702253D01*
X209181320Y-38700001D01*
X209113082Y-38666350D01*
X209113078Y-38666348D01*
X209113077Y-38666348D01*
X209080737Y-38655370D01*
X208945790Y-38609560D01*
X208917366Y-38598614D01*
X208917362Y-38598612D01*
X208907339Y-38596224D01*
X208901782Y-38594622D01*
X208850310Y-38577150D01*
X208833722Y-38571519D01*
X208833717Y-38571518D01*
X208651957Y-38535363D01*
X208631990Y-38530606D01*
X208624660Y-38528859D01*
X208624656Y-38528858D01*
X208624654Y-38528858D01*
X208616679Y-38528055D01*
X208610795Y-38527175D01*
X208557429Y-38516561D01*
X208544380Y-38513966D01*
X208544377Y-38513965D01*
X208544373Y-38513965D01*
X208349924Y-38501220D01*
X208325278Y-38498740D01*
X208325259Y-38498740D01*
X208319593Y-38498928D01*
X208313478Y-38498830D01*
X208250002Y-38494671D01*
X208250000Y-38494671D01*
X208225962Y-38496246D01*
X208044903Y-38508113D01*
X208024524Y-38508795D01*
X208021283Y-38509342D01*
X208015036Y-38510071D01*
X207955629Y-38513964D01*
X207742162Y-38556425D01*
X207727815Y-38558845D01*
X207727801Y-38558848D01*
X207726994Y-38559099D01*
X207720739Y-38560685D01*
X207666280Y-38571518D01*
X207666265Y-38571522D01*
X207446970Y-38645964D01*
X207440425Y-38647994D01*
X207436250Y-38649602D01*
X207386933Y-38666343D01*
X207386921Y-38666348D01*
X207122334Y-38796828D01*
X206877041Y-38960728D01*
X206655241Y-39155241D01*
X206460728Y-39377041D01*
X206296828Y-39622334D01*
X206166349Y-39886919D01*
X206071521Y-40166269D01*
X206071518Y-40166283D01*
X206013968Y-40455609D01*
X206013964Y-40455636D01*
X205994671Y-40749992D01*
X205994671Y-40750007D01*
X141750500Y-40750007D01*
X141750500Y-35524759D01*
X141750528Y-35524616D01*
X141750524Y-35524616D01*
X141750539Y-35500002D01*
X141750541Y-35500000D01*
X141750462Y-35499808D01*
X141750384Y-35499618D01*
X141750382Y-35499616D01*
X141750099Y-35499500D01*
X141750000Y-35499459D01*
X141725446Y-35499459D01*
X141725240Y-35499500D01*
X131774760Y-35499500D01*
X131774554Y-35499459D01*
X131750000Y-35499459D01*
X131749901Y-35499500D01*
X131749617Y-35499616D01*
X131749615Y-35499618D01*
X131749459Y-35499999D01*
X131749476Y-35524616D01*
X131749471Y-35524616D01*
X131749500Y-35524759D01*
X131749500Y-45475467D01*
X131749416Y-45475889D01*
X122975221Y-45475889D01*
X123049204Y-45358760D01*
X123502104Y-44649887D01*
X123865700Y-44107064D01*
X124340166Y-43406008D01*
X124714675Y-42878094D01*
X125211058Y-42184875D01*
X125595020Y-41673288D01*
X126114120Y-40987409D01*
X126506185Y-40493214D01*
X127048780Y-39814366D01*
X127446638Y-39339603D01*
X128014365Y-38666601D01*
X128415162Y-38213589D01*
X129010161Y-37544958D01*
X129410262Y-37116466D01*
X130035458Y-36450241D01*
X130428847Y-36050966D01*
X131089575Y-35383174D01*
X131466063Y-35021018D01*
X132171730Y-34344554D01*
X132514798Y-34031826D01*
X132748548Y-33819320D01*
X133281168Y-33335107D01*
X133552171Y-33101067D01*
X133864335Y-32832000D01*
X134417112Y-32355539D01*
X134500671Y-32287202D01*
X135572339Y-31411792D01*
X136172391Y-30947531D01*
X136716663Y-30526427D01*
X136781731Y-30500972D01*
X136792542Y-30500500D01*
X204499901Y-30500500D01*
X214125500Y-30500500D01*
X214192539Y-30520185D01*
G37*
%TD.AperFunction*%
%TD*%
M02*
